<svg xmlns="http://www.w3.org/2000/svg" xmlns:xlink="http://www.w3.org/1999/xlink" viewBox="0 0 624.33 665.82"><defs><style>.cls-1{fill:#58b871;}.cls-2{opacity:0.15;}.cls-3{fill:url(#linear-gradient);}.cls-4{fill:url(#linear-gradient-2);}.cls-5{fill:#015770;}</style><linearGradient id="linear-gradient" y1="433.69" x2="560.32" y2="433.69" gradientUnits="userSpaceOnUse"><stop offset="0" stop-color="gray"/><stop offset="1" stop-color="#efefef"/></linearGradient><linearGradient id="linear-gradient-2" x1="198.54" y1="232.82" x2="601.29" y2="232.82" gradientUnits="userSpaceOnUse"><stop offset="0" stop-color="#00576f"/><stop offset="1" stop-color="#a7db78"/></linearGradient></defs><g id="Layer_2" data-name="Layer 2"><g id="Layer_1-2" data-name="Layer 1"><polygon class="cls-1" points="300.24 464.95 159.38 464.95 159.38 324.09 165.31 324.09 165.31 459.02 300.24 459.02 300.24 464.95"/><polygon class="cls-1" points="624.33 232.47 618.4 232.47 618.4 5.93 391.85 5.93 391.85 0 624.33 0 624.33 232.47"/><g class="cls-2"><path class="cls-3" d="M560.32,665.82H0V201.55H560.32Z"/></g><path class="cls-4" d="M601.29,136.79H524.77V100.68H239.34V274.45L198.54,365h367l-19.5-43.26h55.23ZM263,124.29h238.2v12.5h-15.4v91.4H263Zm0,127.51h222.8v13.38H263ZM529,341.35H235.09l23.69-52.56h227V321.7h34.41Zm48.66-43.27H509.36V160.4h68.32Z"/><rect class="cls-5" x="529.95" y="259.34" width="28.35" height="23.61"/></g></g></svg>