<svg id="Group_935" data-name="Group 935" xmlns="http://www.w3.org/2000/svg" width="135.701" height="135.088" viewBox="0 0 135.701 135.088">
  <g id="Group_894" data-name="Group 894" transform="translate(30.042 102.389)">
    <path id="Path_2160" data-name="Path 2160" d="M41.677,82.8H14.7V50.1H41.677ZM24.918,72.581h6.54V60.318h-6.54Z" transform="translate(-14.7 -50.1)" fill="#fff"/>
  </g>
  <g id="Group_895" data-name="Group 895" transform="translate(25.955 78.682)">
    <rect id="Rectangle_667" data-name="Rectangle 667" width="34.947" height="10.218" fill="#fff"/>
  </g>
  <g id="Group_896" data-name="Group 896" transform="translate(25.955 56.61)">
    <rect id="Rectangle_668" data-name="Rectangle 668" width="34.947" height="10.218" fill="#fff"/>
  </g>
  <g id="Group_897" data-name="Group 897" transform="translate(25.955 34.743)">
    <rect id="Rectangle_669" data-name="Rectangle 669" width="34.947" height="10.218" fill="#fff"/>
  </g>
  <path id="Path_2161" data-name="Path 2161" d="M76.639,56.588v62.333H10.218v-103H69.281A30.965,30.965,0,0,1,78.274,5.7H0V129.139H86.857V62.515A30.39,30.39,0,0,1,76.639,56.588Z" transform="translate(0 5.949)" fill="#fff"/>
  <path id="Path_2162" data-name="Path 2162" d="M67.208,75.617a37.808,37.808,0,1,1,37.808-37.808A37.854,37.854,0,0,1,67.208,75.617Zm0-65.4A27.59,27.59,0,1,0,94.8,37.808,27.737,27.737,0,0,0,67.208,10.218Z" transform="translate(30.685)" fill="#fff"/>
  <g id="Group_899" data-name="Group 899" transform="translate(79.091 23.707)">
    <g id="Group_898" data-name="Group 898">
      <path id="Path_2163" data-name="Path 2163" d="M54.028,42.051,38.7,26.723l7.153-7.357,8.175,8.175L69.969,11.6l7.153,7.153Z" transform="translate(-38.7 -11.6)" fill="#fff"/>
    </g>
  </g>
</svg>
