<svg xmlns="http://www.w3.org/2000/svg" viewBox="0 0 72.01 60.44"><defs><style>.cls-1{fill:#fff;}</style></defs><g id="Layer_2" data-name="Layer 2"><g id="Layer_1-2" data-name="Layer 1"><polygon class="cls-1" points="29.58 32.29 26.1 28.69 36.9 18.27 47.69 28.69 44.22 32.29 36.9 25.22 29.58 32.29"/><path class="cls-1" d="M50.61,8.67a20.35,20.35,0,0,0-36.87,9.25A15.09,15.09,0,0,0,15.09,48h4.16V43H15.09a10.09,10.09,0,0,1,0-20.18c.27,0,.54,0,.8,0l2.7.16v-2.7a15.36,15.36,0,0,1,28.62-7.75l.87,1.49,1.71-.29a15.27,15.27,0,0,1,2.5-.22,14.72,14.72,0,0,1,2.25,29.27v5A19.72,19.72,0,0,0,50.61,8.67Z"/><rect class="cls-1" x="34.4" y="21.74" width="5" height="15.24"/><rect class="cls-1" x="24.64" y="45.24" width="4.98" height="4.98"/><rect class="cls-1" x="24.64" y="55.47" width="4.98" height="4.98"/><rect class="cls-1" x="34.41" y="42.24" width="4.98" height="4.98"/><rect class="cls-1" x="34.41" y="52.47" width="4.98" height="4.98"/><rect class="cls-1" x="44.18" y="39.24" width="4.98" height="4.98"/><rect class="cls-1" x="44.18" y="49.47" width="4.98" height="4.98"/></g></g></svg>