<svg xmlns="http://www.w3.org/2000/svg" xmlns:xlink="http://www.w3.org/1999/xlink" viewBox="0 0 722.31 703.01"><defs><style>.cls-1{opacity:0.15;fill:url(#linear-gradient);}.cls-2{fill:#00576f;}.cls-3{fill:url(#linear-gradient-2);}.cls-4{fill:none;stroke:#e3e3e3;stroke-miterlimit:10;stroke-width:5px;}</style><linearGradient id="linear-gradient" y1="487.76" x2="645.31" y2="487.76" gradientUnits="userSpaceOnUse"><stop offset="0" stop-color="gray"/><stop offset="1" stop-color="#efefef"/></linearGradient><linearGradient id="linear-gradient-2" x1="245.21" y1="274.5" x2="617.96" y2="274.5" gradientUnits="userSpaceOnUse"><stop offset="0" stop-color="#00576f"/><stop offset="1" stop-color="#a7db78"/></linearGradient></defs><g id="Layer_2" data-name="Layer 2"><g id="Layer_1-2" data-name="Layer 1"><path class="cls-1" d="M453.56,350.17a183.33,183.33,0,0,0-149.33-77.66c-93.11,0-170.15,70.1-181.12,160.59C54.2,439.25,0,497.31,0,567.79,0,642.35,60.66,703,135.22,703l353.52-1.64v.34A176.38,176.38,0,0,0,645.31,526.27C645.31,423.85,557.49,341.27,453.56,350.17Z"/><polygon class="cls-2" points="398.31 317.29 380.33 298.67 436.2 244.72 492.06 298.67 474.08 317.29 436.2 280.7 398.31 317.29"/><path class="cls-3" d="M507.2,195a105.36,105.36,0,0,0-190.87,47.91,78.11,78.11,0,0,0,7,155.9h21.55V373H323.32a52.23,52.23,0,1,1,0-104.45c1.41,0,2.79.07,4.16.18l13.95.87v-14a79.51,79.51,0,0,1,148.15-40.13l4.52,7.72,8.82-1.51a77.31,77.31,0,0,1,12.95-1.11A76.18,76.18,0,0,1,527.52,372v26.08A101.88,101.88,0,0,0,618,296.74C618,237.58,567.23,189.88,507.2,195Z"/><rect class="cls-2" x="423.26" y="262.71" width="25.88" height="78.87"/><rect class="cls-2" x="372.74" y="384.31" width="25.75" height="25.75"/><rect class="cls-2" x="372.74" y="437.28" width="25.75" height="25.75"/><rect class="cls-2" x="423.32" y="368.78" width="25.75" height="25.75"/><rect class="cls-2" x="423.32" y="421.75" width="25.75" height="25.75"/><rect class="cls-2" x="473.9" y="353.26" width="25.75" height="25.75"/><rect class="cls-2" x="473.9" y="406.22" width="25.75" height="25.75"/><path class="cls-4" d="M719.81,302.34c0,165.59-134.24,299.83-299.83,299.83"/><path class="cls-4" d="M120.14,302.34C120.14,136.74,254.38,2.5,420,2.5"/></g></g></svg>