<svg xmlns="http://www.w3.org/2000/svg" viewBox="0 0 66.6 73.71"><defs><style>.cls-1{fill:#005770;}</style></defs><g id="Layer_2" data-name="Layer 2"><g id="Layer_1-2" data-name="Layer 1"><path class="cls-1" d="M35.8,73.71h-5V67A30.38,30.38,0,0,1,8.4,54.18L2.48,57.47.06,53.1l5.81-3.24a30,30,0,0,1-2.95-13,29.38,29.38,0,0,1,3-12.8L0,20.58l2.54-4.31,5.88,3.47A30.81,30.81,0,0,1,30.8,6.68V0h5V6.68A30.83,30.83,0,0,1,58.19,19.74l5.87-3.47,2.54,4.31-5.88,3.47a29.38,29.38,0,0,1,3,12.8,30,30,0,0,1-3,13l5.82,3.24-2.43,4.37L58.2,54.18A30.41,30.41,0,0,1,35.8,67ZM33.3,11.58A25.66,25.66,0,0,0,7.92,36.85a25.38,25.38,0,0,0,50.76,0A25.66,25.66,0,0,0,33.3,11.58Z"/><path class="cls-1" d="M32.55,54.59A17.25,17.25,0,1,1,49.79,37.35h-5A12.24,12.24,0,1,0,32.55,49.59Z"/><polygon class="cls-1" points="46.86 44.58 38.28 36 41.81 32.46 46.86 37.51 51.91 32.46 55.45 36 46.86 44.58"/></g></g></svg>