<svg id="Hybrid_Cloud_Implementation_2_" xmlns="http://www.w3.org/2000/svg" xmlns:xlink="http://www.w3.org/1999/xlink" width="140.637" height="148.088" viewBox="0 0 140.637 148.088">
  <defs>
    <clipPath id="clip-path">
      <rect id="Rectangle_340" data-name="Rectangle 340" width="140.637" height="148.088" fill="#004f68"/>
    </clipPath>
  </defs>
  <g id="Group_508" data-name="Group 508">
    <g id="Group_507" data-name="Group 507" clip-path="url(#clip-path)">
      <g id="Group_503" data-name="Group 503" clip-path="url(#clip-path)">
        <path id="Path_952" data-name="Path 952" d="M57.232,78.208h-32A25.246,25.246,0,0,1,21.54,27.99,33.42,33.42,0,0,1,81.276,13.4a32.431,32.431,0,0,1,32.686,42.141L103.13,52.1a21.956,21.956,0,0,0,1-6.387A21.077,21.077,0,0,0,79.46,24.984l-3.882.689-2-3.381A22.054,22.054,0,0,0,32.5,33.312v6.324l-6.136-.5c-.376,0-.751-.063-1.127-.063a13.838,13.838,0,0,0,0,27.677h32Z" fill="#004f68"/>
      </g>
      <g id="Group_504" data-name="Group 504" clip-path="url(#clip-path)">
        <path id="Path_953" data-name="Path 953" d="M171.4,176.836H82.3V76.9h89.1ZM93.7,165.44H160.07V88.3H93.7Z" transform="translate(-30.767 -28.748)" fill="#004f68"/>
      </g>
      <g id="Group_505" data-name="Group 505" clip-path="url(#clip-path)">
        <path id="Path_954" data-name="Path 954" d="M159.456,214.78H129.4V178.4h30.056Zm-18.66-11.4h7.326V189.8H140.8Z" transform="translate(-48.374 -66.692)" fill="#004f68"/>
      </g>
      <g id="Group_506" data-name="Group 506" clip-path="url(#clip-path)">
        <rect id="Rectangle_338" data-name="Rectangle 338" width="38.822" height="11.396" transform="translate(76.643 78.521)" fill="#004f68"/>
      </g>
    </g>
  </g>
</svg>
