<svg xmlns="http://www.w3.org/2000/svg" xmlns:xlink="http://www.w3.org/1999/xlink" viewBox="0 0 755.83 804.03"><defs><style>.cls-1{isolation:isolate;}.cls-2{fill:#a6da78;}.cls-10,.cls-11,.cls-12,.cls-14,.cls-15,.cls-16,.cls-17,.cls-18,.cls-19,.cls-3,.cls-4,.cls-5,.cls-6,.cls-7,.cls-8,.cls-9{opacity:0.15;}.cls-3{mix-blend-mode:multiply;fill:url(#linear-gradient);}.cls-4{fill:url(#linear-gradient-2);}.cls-5{fill:url(#linear-gradient-3);}.cls-6{fill:url(#linear-gradient-4);}.cls-7{fill:url(#linear-gradient-5);}.cls-8{fill:url(#linear-gradient-6);}.cls-9{fill:url(#linear-gradient-7);}.cls-10{fill:url(#linear-gradient-8);}.cls-11{fill:url(#linear-gradient-9);}.cls-12{fill:url(#linear-gradient-10);}.cls-13{fill:none;stroke:#e3e3e3;stroke-miterlimit:10;stroke-width:5px;}.cls-14{fill:url(#linear-gradient-11);}.cls-15{fill:url(#linear-gradient-12);}.cls-16{fill:url(#linear-gradient-13);}.cls-17{fill:url(#linear-gradient-14);}.cls-18{fill:url(#linear-gradient-15);}.cls-19{fill:url(#linear-gradient-16);}.cls-20{fill:url(#linear-gradient-17);}</style><linearGradient id="linear-gradient" x1="156.33" y1="528.88" x2="676.07" y2="528.88" gradientUnits="userSpaceOnUse"><stop offset="0" stop-color="gray"/><stop offset="1" stop-color="#eee"/></linearGradient><linearGradient id="linear-gradient-2" x1="3273.78" y1="520.87" x2="3600.54" y2="-35.32" gradientTransform="translate(-3068.91 318.44)" xlink:href="#linear-gradient"/><linearGradient id="linear-gradient-3" x1="3206.79" y1="481.51" x2="3533.55" y2="-74.67" gradientTransform="translate(-3068.91 318.44)" xlink:href="#linear-gradient"/><linearGradient id="linear-gradient-4" x1="3163.9" y1="456.31" x2="3490.66" y2="-99.87" gradientTransform="translate(-3068.91 318.44)" xlink:href="#linear-gradient"/><linearGradient id="linear-gradient-5" x1="3188" y1="470.47" x2="3514.76" y2="-85.71" gradientTransform="translate(-3068.91 318.44)" xlink:href="#linear-gradient"/><linearGradient id="linear-gradient-6" x1="11416.67" y1="9716.23" x2="11743.43" y2="9160.05" gradientTransform="translate(11465.47 10122.95) rotate(180)" xlink:href="#linear-gradient"/><linearGradient id="linear-gradient-7" x1="11349.68" y1="9676.87" x2="11676.44" y2="9120.69" gradientTransform="translate(11465.47 10122.95) rotate(180)" xlink:href="#linear-gradient"/><linearGradient id="linear-gradient-8" x1="11373.78" y1="9691.03" x2="11700.54" y2="9134.85" gradientTransform="translate(11465.47 10122.95) rotate(180)" xlink:href="#linear-gradient"/><linearGradient id="linear-gradient-9" x1="11306.79" y1="9651.67" x2="11633.55" y2="9095.49" gradientTransform="translate(11465.47 10122.95) rotate(180)" xlink:href="#linear-gradient"/><linearGradient id="linear-gradient-10" x1="11330.89" y1="9665.83" x2="11657.65" y2="9109.65" gradientTransform="translate(11465.47 10122.95) rotate(180)" xlink:href="#linear-gradient"/><linearGradient id="linear-gradient-11" x1="593.36" y1="413.06" x2="920.12" y2="-143.12" xlink:href="#linear-gradient"/><linearGradient id="linear-gradient-12" x1="550.47" y1="387.86" x2="877.23" y2="-168.32" xlink:href="#linear-gradient"/><linearGradient id="linear-gradient-13" x1="483.48" y1="348.51" x2="810.24" y2="-207.68" xlink:href="#linear-gradient"/><linearGradient id="linear-gradient-14" x1="440.59" y1="323.31" x2="767.35" y2="-232.88" xlink:href="#linear-gradient"/><linearGradient id="linear-gradient-15" x1="394.76" y1="348.51" x2="721.52" y2="-207.68" xlink:href="#linear-gradient"/><linearGradient id="linear-gradient-16" x1="351.87" y1="323.31" x2="678.63" y2="-232.88" xlink:href="#linear-gradient"/><linearGradient id="linear-gradient-17" x1="138.87" y1="402.01" x2="635.72" y2="402.01" gradientUnits="userSpaceOnUse"><stop offset="0" stop-color="#00576f"/><stop offset="1" stop-color="#88cb77"/></linearGradient></defs><g class="cls-1"><g id="Layer_2" data-name="Layer 2"><g id="Layer_1-2" data-name="Layer 1"><circle class="cls-2" cx="72.9" cy="98.2" r="22.69"/><circle class="cls-2" cx="705.25" cy="728.52" r="22.69"/><circle class="cls-3" cx="416.2" cy="528.88" r="259.87"/><path class="cls-4" d="M249.58,769.29h0a145.07,145.07,0,0,0-27.17,0h0a3.84,3.84,0,0,0-3.47,3.46h0a145.07,145.07,0,0,0,0,27.17h0a3.84,3.84,0,0,0,3.47,3.47h0a145.07,145.07,0,0,0,27.17,0h0a3.84,3.84,0,0,0,3.46-3.47h0a145.07,145.07,0,0,0,0-27.17h0A3.84,3.84,0,0,0,249.58,769.29Z"/><path class="cls-5" d="M159.46,769.29h0a145.07,145.07,0,0,0-27.17,0h0a3.83,3.83,0,0,0-3.46,3.46h0a145.07,145.07,0,0,0,0,27.17h0a3.83,3.83,0,0,0,3.46,3.47h0a145.07,145.07,0,0,0,27.17,0h0a3.85,3.85,0,0,0,3.47-3.47h0a145.07,145.07,0,0,0,0-27.17h0A3.85,3.85,0,0,0,159.46,769.29Z"/><path class="cls-6" d="M159.46,671.09h0a145.07,145.07,0,0,0-27.17,0h0a3.83,3.83,0,0,0-3.46,3.46h0a145.07,145.07,0,0,0,0,27.17h0a3.83,3.83,0,0,0,3.46,3.47h0a145.07,145.07,0,0,0,27.17,0h0a3.85,3.85,0,0,0,3.47-3.47h0a145.07,145.07,0,0,0,0-27.17h0A3.85,3.85,0,0,0,159.46,671.09Z"/><path class="cls-7" d="M249.58,572.89h0a145.07,145.07,0,0,0-27.17,0h0a3.83,3.83,0,0,0-3.47,3.46h0a145.07,145.07,0,0,0,0,27.17h0a3.85,3.85,0,0,0,3.47,3.47h0a145.07,145.07,0,0,0,27.17,0h0a3.85,3.85,0,0,0,3.46-3.47h0a145.07,145.07,0,0,0,0-27.17h0A3.83,3.83,0,0,0,249.58,572.89Z"/><path class="cls-8" d="M4.1,476.73h0a145.07,145.07,0,0,0,27.17,0h0a3.84,3.84,0,0,0,3.47-3.46h0a145.07,145.07,0,0,0,0-27.17h0a3.84,3.84,0,0,0-3.47-3.47h0a145.07,145.07,0,0,0-27.17,0h0A3.83,3.83,0,0,0,.64,446.1h0a145.07,145.07,0,0,0,0,27.17h0A3.83,3.83,0,0,0,4.1,476.73Z"/><path class="cls-9" d="M94.22,476.73h0a145.07,145.07,0,0,0,27.17,0h0a3.84,3.84,0,0,0,3.46-3.46h0a145.07,145.07,0,0,0,0-27.17h0a3.84,3.84,0,0,0-3.46-3.47h0a145.07,145.07,0,0,0-27.17,0h0a3.84,3.84,0,0,0-3.47,3.47h0a145.07,145.07,0,0,0,0,27.17h0A3.84,3.84,0,0,0,94.22,476.73Z"/><path class="cls-10" d="M4.1,574.93h0a145.07,145.07,0,0,0,27.17,0h0a3.84,3.84,0,0,0,3.47-3.46h0a145.07,145.07,0,0,0,0-27.17h0a3.84,3.84,0,0,0-3.47-3.47h0a145.07,145.07,0,0,0-27.17,0h0A3.83,3.83,0,0,0,.64,544.3h0a145.07,145.07,0,0,0,0,27.17h0A3.83,3.83,0,0,0,4.1,574.93Z"/><path class="cls-11" d="M94.22,574.93h0a145.07,145.07,0,0,0,27.17,0h0a3.84,3.84,0,0,0,3.46-3.46h0a145.07,145.07,0,0,0,0-27.17h0a3.84,3.84,0,0,0-3.46-3.47h0a145.07,145.07,0,0,0-27.17,0h0a3.84,3.84,0,0,0-3.47,3.47h0a145.07,145.07,0,0,0,0,27.17h0A3.84,3.84,0,0,0,94.22,574.93Z"/><path class="cls-12" d="M4.1,673.13h0a145.07,145.07,0,0,0,27.17,0h0a3.83,3.83,0,0,0,3.47-3.46h0a145.07,145.07,0,0,0,0-27.17h0A3.84,3.84,0,0,0,31.27,639h0A145.07,145.07,0,0,0,4.1,639h0A3.83,3.83,0,0,0,.64,642.5h0a145.07,145.07,0,0,0,0,27.17h0A3.82,3.82,0,0,0,4.1,673.13Z"/><path class="cls-13" d="M753.33,429.8c0,186.62-151.29,337.91-337.91,337.91"/><path class="cls-13" d="M36.84,365.36c0-186.63,151.29-337.91,337.91-337.91"/><path class="cls-14" d="M723.84,197h0a145.07,145.07,0,0,0-27.17,0h0a3.85,3.85,0,0,0-3.47,3.46h0a146.79,146.79,0,0,0,0,27.17h0a3.85,3.85,0,0,0,3.47,3.47h0a145.07,145.07,0,0,0,27.17,0h0a3.85,3.85,0,0,0,3.47-3.47h0a146.79,146.79,0,0,0,0-27.17h0A3.85,3.85,0,0,0,723.84,197Z"/><path class="cls-15" d="M723.84,98.84h0a145.07,145.07,0,0,0-27.17,0h0a3.85,3.85,0,0,0-3.47,3.46h0a146.79,146.79,0,0,0,0,27.17h0a3.85,3.85,0,0,0,3.47,3.47h0a145.07,145.07,0,0,0,27.17,0h0a3.85,3.85,0,0,0,3.47-3.47h0a146.79,146.79,0,0,0,0-27.17h0A3.85,3.85,0,0,0,723.84,98.84Z"/><path class="cls-16" d="M633.73,98.84h0a145.07,145.07,0,0,0-27.17,0h0a3.84,3.84,0,0,0-3.47,3.46h0a145.07,145.07,0,0,0,0,27.17h0a3.84,3.84,0,0,0,3.47,3.47h0a145.07,145.07,0,0,0,27.17,0h0a3.84,3.84,0,0,0,3.46-3.47h0a145.07,145.07,0,0,0,0-27.17h0A3.84,3.84,0,0,0,633.73,98.84Z"/><path class="cls-17" d="M633.73.64h0a145.07,145.07,0,0,0-27.17,0h0a3.83,3.83,0,0,0-3.47,3.46h0a145.07,145.07,0,0,0,0,27.17h0a3.84,3.84,0,0,0,3.47,3.47h0a145.07,145.07,0,0,0,27.17,0h0a3.84,3.84,0,0,0,3.46-3.47h0a145.07,145.07,0,0,0,0-27.17h0A3.83,3.83,0,0,0,633.73.64Z"/><path class="cls-18" d="M545,98.84h0a145.07,145.07,0,0,0-27.17,0h0a3.85,3.85,0,0,0-3.47,3.46h0a146.79,146.79,0,0,0,0,27.17h0a3.85,3.85,0,0,0,3.47,3.47h0a145.07,145.07,0,0,0,27.17,0h0a3.85,3.85,0,0,0,3.47-3.47h0a146.79,146.79,0,0,0,0-27.17h0A3.85,3.85,0,0,0,545,98.84Z"/><path class="cls-19" d="M545,.64h0a145.07,145.07,0,0,0-27.17,0h0a3.84,3.84,0,0,0-3.47,3.46h0a146.79,146.79,0,0,0,0,27.17h0a3.85,3.85,0,0,0,3.47,3.47h0a145.07,145.07,0,0,0,27.17,0h0a3.85,3.85,0,0,0,3.47-3.47h0a146.79,146.79,0,0,0,0-27.17h0A3.84,3.84,0,0,0,545,.64Z"/><path class="cls-20" d="M633.41,489.49A66.68,66.68,0,0,0,524.5,456.9l-48.8-28.18a91.8,91.8,0,0,0,0-53.41l48.8-28.18a66.82,66.82,0,1,0,44.29-116.8h0a66.84,66.84,0,0,0-65.48,80.38l-48.78,28.16a92.25,92.25,0,0,0-46.16-26.71V255.87a66.89,66.89,0,1,0-42.14,0v56.29a92.25,92.25,0,0,0-46.16,26.71l-48.79-28.16a67.4,67.4,0,1,0-21.19,36.42l48.81,28.18a91.8,91.8,0,0,0,0,53.41L250.1,456.9a67,67,0,0,0-44.32-17h0a66.95,66.95,0,1,0,65.51,53.41l48.78-28.16a92.25,92.25,0,0,0,46.16,26.71v56.29a66.89,66.89,0,1,0,42.14,0V491.87a92.25,92.25,0,0,0,46.16-26.71l48.78,28.16a66.88,66.88,0,1,0,130.1-3.83ZM561,283.74a15.57,15.57,0,1,1-5.7,21.27A15.49,15.49,0,0,1,561,283.74ZM219.28,305a15.58,15.58,0,1,1-5.7-21.27A15.58,15.58,0,0,1,219.28,305Zm-5.7,215.28a15.57,15.57,0,1,1,5.7-21.27A15.45,15.45,0,0,1,213.58,520.29ZM387.3,176.86a15.58,15.58,0,1,1-15.57,15.57A15.58,15.58,0,0,1,387.3,176.86Zm0,450.31a15.58,15.58,0,1,1,15.57-15.57A15.57,15.57,0,0,1,387.3,627.17Zm0-184.1A41.06,41.06,0,1,1,428.35,402,41.11,41.11,0,0,1,387.3,443.07Zm195,71.52a15.58,15.58,0,1,1-5.7-21.27A15.57,15.57,0,0,1,582.29,514.59Z"/></g></g></g></svg>