<svg xmlns="http://www.w3.org/2000/svg" xmlns:xlink="http://www.w3.org/1999/xlink" viewBox="0 0 836.57 713.98"><defs><style>.cls-1{opacity:0.15;fill:url(#linear-gradient);}.cls-2{opacity:0.11;}.cls-3{fill:url(#linear-gradient-2);}.cls-4{fill:url(#linear-gradient-3);}.cls-5{fill:url(#linear-gradient-4);}.cls-6{fill:url(#linear-gradient-5);}.cls-7{fill:url(#linear-gradient-6);}.cls-8{fill:url(#linear-gradient-7);}.cls-9{fill:url(#linear-gradient-8);}.cls-10{fill:url(#linear-gradient-9);}.cls-11{fill:url(#linear-gradient-10);}.cls-12{fill:url(#linear-gradient-11);}.cls-13{fill:url(#linear-gradient-12);}.cls-14,.cls-16,.cls-17{fill:none;stroke-miterlimit:10;stroke-width:5px;}.cls-14{stroke:#c9c9c9;}.cls-15{fill:#58b771;}.cls-16{stroke:#a6da78;}.cls-17{stroke:#00576f;}.cls-18{fill:url(#linear-gradient-13);}</style><linearGradient id="linear-gradient" x1="335.48" y1="467.15" x2="-46.85" y2="572.48" gradientUnits="userSpaceOnUse"><stop offset="0" stop-color="gray"/><stop offset="1" stop-color="#eee"/></linearGradient><linearGradient id="linear-gradient-2" x1="11699.35" y1="16227.25" x2="11542.89" y2="16477.58" gradientTransform="translate(-19115.49 -3077.51) rotate(-45)" xlink:href="#linear-gradient"/><linearGradient id="linear-gradient-3" x1="11665.29" y1="16205.96" x2="11508.83" y2="16456.29" gradientTransform="translate(-19115.49 -3077.51) rotate(-45)" xlink:href="#linear-gradient"/><linearGradient id="linear-gradient-4" x1="11615.7" y1="16174.96" x2="11459.24" y2="16425.3" gradientTransform="translate(-19115.49 -3077.51) rotate(-45)" xlink:href="#linear-gradient"/><linearGradient id="linear-gradient-5" x1="11631.23" y1="16184.67" x2="11474.78" y2="16435.01" gradientTransform="translate(-19115.49 -3077.51) rotate(-45)" xlink:href="#linear-gradient"/><linearGradient id="linear-gradient-6" x1="5453.35" y1="10209.46" x2="5296.89" y2="10459.79" gradientTransform="matrix(-0.71, -0.71, -0.71, 0.71, 11685.2, -3077.51)" xlink:href="#linear-gradient"/><linearGradient id="linear-gradient-7" x1="5419.29" y1="10188.17" x2="5262.83" y2="10438.5" gradientTransform="matrix(-0.71, -0.71, -0.71, 0.71, 11685.2, -3077.51)" xlink:href="#linear-gradient"/><linearGradient id="linear-gradient-8" x1="5350.53" y1="10145.2" x2="5194.07" y2="10395.53" gradientTransform="matrix(-0.71, -0.71, -0.71, 0.71, 11685.2, -3077.51)" xlink:href="#linear-gradient"/><linearGradient id="linear-gradient-9" x1="5366.07" y1="10154.91" x2="5209.61" y2="10405.24" gradientTransform="matrix(-0.71, -0.71, -0.71, 0.71, 11685.2, -3077.51)" xlink:href="#linear-gradient"/><linearGradient id="linear-gradient-10" x1="5385.23" y1="10166.89" x2="5228.78" y2="10417.22" gradientTransform="matrix(-0.71, -0.71, -0.71, 0.71, 11685.2, -3077.51)" xlink:href="#linear-gradient"/><linearGradient id="linear-gradient-11" x1="5316.47" y1="10123.91" x2="5160.01" y2="10374.24" gradientTransform="matrix(-0.71, -0.71, -0.71, 0.71, 11685.2, -3077.51)" xlink:href="#linear-gradient"/><linearGradient id="linear-gradient-12" x1="5247.71" y1="10080.93" x2="5091.25" y2="10331.27" gradientTransform="matrix(-0.71, -0.71, -0.71, 0.71, 11685.2, -3077.51)" xlink:href="#linear-gradient"/><linearGradient id="linear-gradient-13" x1="194.23" y1="361.33" x2="679.02" y2="361.33" gradientUnits="userSpaceOnUse"><stop offset="0" stop-color="#00576f"/><stop offset="1" stop-color="#88cb77"/></linearGradient></defs><g id="Layer_2" data-name="Layer 2"><g id="Layer_1-2" data-name="Layer 1"><rect class="cls-1" y="276.61" width="466.62" height="437.36" rx="118.13"/><g class="cls-2"><path class="cls-3" d="M626.32,30.74a2.86,2.86,0,0,0,2.7-3.82,55.38,55.38,0,0,0-5.69-11.48A82.72,82.72,0,0,0,611.19.79a2.86,2.86,0,0,0-3.94,0,87.85,87.85,0,0,0-11.83,14.65,55.52,55.52,0,0,0-5.7,11.48,2.87,2.87,0,0,0,2.7,3.82Z"/><path class="cls-4" d="M626.32,209.35a2.86,2.86,0,0,0,2.7-3.81,55.38,55.38,0,0,0-5.69-11.48,82.83,82.83,0,0,0-12.14-14.66,2.85,2.85,0,0,0-3.94,0,87,87,0,0,0-11.83,14.65,55.52,55.52,0,0,0-5.7,11.48,2.86,2.86,0,0,0,2.7,3.81Z"/><path class="cls-5" d="M585.37,292a2.86,2.86,0,0,0,2.7-3.81,55.28,55.28,0,0,0-5.7-11.49A83.09,83.09,0,0,0,570.24,262a2.86,2.86,0,0,0-4,0,87.81,87.81,0,0,0-11.83,14.64,55.66,55.66,0,0,0-5.69,11.49,2.86,2.86,0,0,0,2.7,3.81Z"/><path class="cls-6" d="M626.32,388a2.86,2.86,0,0,0,2.7-3.82,55.38,55.38,0,0,0-5.69-11.48A83.09,83.09,0,0,0,611.19,358a2.86,2.86,0,0,0-3.94,0,87.85,87.85,0,0,0-11.83,14.65,55.52,55.52,0,0,0-5.7,11.48,2.87,2.87,0,0,0,2.7,3.82Z"/><path class="cls-7" d="M633.37,113.37a2.86,2.86,0,0,1-2.69-3.82,55.38,55.38,0,0,1,5.69-11.48,82.83,82.83,0,0,1,12.14-14.66,2.86,2.86,0,0,1,3.94,0,88.36,88.36,0,0,1,11.83,14.65A54.87,54.87,0,0,1,670,109.55a2.86,2.86,0,0,1-2.69,3.82Z"/><path class="cls-8" d="M633.37,292a2.85,2.85,0,0,1-2.69-3.81,55.66,55.66,0,0,1,5.69-11.49A83.09,83.09,0,0,1,648.51,262a2.85,2.85,0,0,1,3.94,0,87.81,87.81,0,0,1,11.83,14.64A55.14,55.14,0,0,1,670,288.17a2.85,2.85,0,0,1-2.69,3.81Z"/><path class="cls-9" d="M716.59,292a2.86,2.86,0,0,1-2.7-3.81,55.79,55.79,0,0,1,5.7-11.49A82.66,82.66,0,0,1,731.73,262a2.85,2.85,0,0,1,3.94,0,87.81,87.81,0,0,1,11.83,14.64,55.66,55.66,0,0,1,5.69,11.49,2.86,2.86,0,0,1-2.7,3.81Z"/><path class="cls-10" d="M675.64,388a2.87,2.87,0,0,1-2.7-3.82,55.38,55.38,0,0,1,5.69-11.48A83.09,83.09,0,0,1,690.77,358a2.87,2.87,0,0,1,4,0,87.86,87.86,0,0,1,11.82,14.65,55,55,0,0,1,5.7,11.48,2.87,2.87,0,0,1-2.7,3.82Z"/><path class="cls-11" d="M633.37,470.6a2.86,2.86,0,0,1-2.69-3.82,55.38,55.38,0,0,1,5.69-11.48,82.72,82.72,0,0,1,12.14-14.65,2.86,2.86,0,0,1,3.94,0,88.36,88.36,0,0,1,11.83,14.65A54.87,54.87,0,0,1,670,466.78a2.86,2.86,0,0,1-2.69,3.82Z"/><path class="cls-12" d="M716.59,470.6a2.87,2.87,0,0,1-2.7-3.82,55.52,55.52,0,0,1,5.7-11.48,82.29,82.29,0,0,1,12.14-14.65,2.86,2.86,0,0,1,3.94,0A88.36,88.36,0,0,1,747.5,455.3a55.38,55.38,0,0,1,5.69,11.48,2.86,2.86,0,0,1-2.7,3.82Z"/><path class="cls-13" d="M799.81,470.6a2.87,2.87,0,0,1-2.7-3.82,55,55,0,0,1,5.7-11.48,82.72,82.72,0,0,1,12.13-14.65,2.87,2.87,0,0,1,3.95,0,87.86,87.86,0,0,1,11.82,14.65,55,55,0,0,1,5.7,11.48,2.87,2.87,0,0,1-2.7,3.82Z"/></g><polyline class="cls-14" points="315.15 619.54 202.69 619.54 202.69 506.78"/><polyline class="cls-14" points="530.64 53.75 704.4 53.75 704.4 227.98"/><rect class="cls-15" x="329.98" y="88.43" width="30" height="33.94"/><rect class="cls-15" x="399.49" y="88.43" width="30" height="33.94"/><rect class="cls-15" x="505.38" y="137.01" width="30" height="33.94"/><rect class="cls-15" x="574.9" y="137.01" width="30" height="33.94"/><rect class="cls-16" x="126.45" y="39.94" width="56.61" height="64.05"/><rect class="cls-17" x="673.45" y="578.11" width="38.64" height="43.71"/><rect class="cls-17" x="654.13" y="553.25" width="38.64" height="43.71"/><path class="cls-18" d="M679,212.2l-383.48,3.51-17-61.73H194.23v36.46h56.56l37.57,136.65,4.22,15,42.18,181.79h40.71a29.54,29.54,0,1,0,50.35,0H533.3a29.19,29.19,0,0,0-4.37,15.26,29.54,29.54,0,1,0,54.72-15.26h50.48V487.42H363.73l-11.49-49.51H636.07Zm-54.56,91.72H555.14l3.61-54.16,76.14-.69Zm-180.2,36.46h71.91l-4.07,61.07H448.22Zm-32.57,61.07H347.17L330,340.38h77.74Zm30.2-97.53-3.45-53.06,83.75-.76-3.59,53.82Zm-40-52.72,3.42,52.72H319.8l-14.25-51.84ZM548.64,401.45l4.07-61.07h64.81L605.9,401.45Z"/></g></g></svg>