<svg xmlns="http://www.w3.org/2000/svg" xmlns:xlink="http://www.w3.org/1999/xlink" width="450" height="450" viewBox="0 0 450 450">
  <defs>
    <linearGradient id="linear-gradient" x1="-0.525" y1="0.868" x2="0.475" y2="0.868" gradientUnits="objectBoundingBox">
      <stop offset="0" stop-color="gray"/>
      <stop offset="1" stop-color="#efefef"/>
    </linearGradient>
    <linearGradient id="linear-gradient-2" x1="-16.124" y1="1.42" x2="5.02" y2="0.22" xlink:href="#linear-gradient"/>
    <linearGradient id="linear-gradient-3" x1="-10.506" y1="1.102" x2="10.638" y2="-0.099" xlink:href="#linear-gradient"/>
    <linearGradient id="linear-gradient-4" x1="-5.179" y1="0.799" x2="15.966" y2="-0.401" xlink:href="#linear-gradient"/>
    <linearGradient id="linear-gradient-5" x1="-7.929" y1="0.955" x2="13.215" y2="-0.245" xlink:href="#linear-gradient"/>
    <linearGradient id="linear-gradient-6" x1="-13.547" y1="1.274" x2="7.597" y2="0.074" xlink:href="#linear-gradient"/>
    <linearGradient id="linear-gradient-7" x1="-13.353" y1="1.263" x2="7.791" y2="0.063" xlink:href="#linear-gradient"/>
    <linearGradient id="linear-gradient-8" x1="-7.735" y1="0.944" x2="13.409" y2="-0.256" xlink:href="#linear-gradient"/>
    <linearGradient id="linear-gradient-9" x1="-4.982" y1="0.788" x2="16.163" y2="-0.412" xlink:href="#linear-gradient"/>
    <linearGradient id="linear-gradient-10" x1="-10.308" y1="1.09" x2="10.835" y2="-0.11" xlink:href="#linear-gradient"/>
    <linearGradient id="linear-gradient-11" x1="-2.408" y1="0.642" x2="18.736" y2="-0.558" xlink:href="#linear-gradient"/>
    <linearGradient id="linear-gradient-12" x1="-18.629" y1="1.563" x2="2.514" y2="0.363" xlink:href="#linear-gradient"/>
    <linearGradient id="linear-gradient-13" x1="-13.012" y1="1.244" x2="8.133" y2="0.044" xlink:href="#linear-gradient"/>
    <linearGradient id="linear-gradient-14" x1="-16.053" y1="1.416" x2="5.091" y2="0.216" xlink:href="#linear-gradient"/>
    <linearGradient id="linear-gradient-15" x1="-15.859" y1="1.405" x2="5.285" y2="0.205" xlink:href="#linear-gradient"/>
    <linearGradient id="linear-gradient-16" x1="-12.815" y1="1.233" x2="8.33" y2="0.033" xlink:href="#linear-gradient"/>
    <linearGradient id="linear-gradient-17" x1="-8.894" y1="6.192" x2="-0.736" y2="1.249" gradientUnits="objectBoundingBox">
      <stop offset="0" stop-color="#00576f"/>
      <stop offset="1" stop-color="#88cb77"/>
    </linearGradient>
    <linearGradient id="linear-gradient-18" x1="-5.9" y1="4.378" x2="2.258" y2="-0.565" xlink:href="#linear-gradient-17"/>
    <linearGradient id="linear-gradient-19" x1="-6.306" y1="3.752" x2="4.086" y2="-1.213" xlink:href="#linear-gradient-17"/>
    <linearGradient id="linear-gradient-20" x1="-7.888" y1="4.508" x2="2.504" y2="-0.458" xlink:href="#linear-gradient-17"/>
    <linearGradient id="linear-gradient-21" x1="-2.493" y1="1.93" x2="7.899" y2="-3.035" xlink:href="#linear-gradient-17"/>
    <linearGradient id="linear-gradient-22" x1="-4.075" y1="2.686" x2="6.317" y2="-2.28" xlink:href="#linear-gradient-17"/>
    <linearGradient id="linear-gradient-23" x1="-4.653" y1="3.622" x2="3.506" y2="-1.321" xlink:href="#linear-gradient-17"/>
    <linearGradient id="linear-gradient-24" x1="-0.903" y1="1.17" x2="9.489" y2="-3.795" xlink:href="#linear-gradient-17"/>
    <linearGradient id="linear-gradient-25" x1="-2.485" y1="1.926" x2="7.907" y2="-3.039" xlink:href="#linear-gradient-17"/>
    <linearGradient id="linear-gradient-26" x1="0.201" y1="0.834" x2="0.792" y2="0.381" xlink:href="#linear-gradient-17"/>
  </defs>
  <g id="Group_1203" data-name="Group 1203" transform="translate(-72.69 -54.58)">
    <rect id="Rectangle_512" data-name="Rectangle 512" width="354.278" height="222.729" rx="98.267" transform="translate(522.69 455.424) rotate(180)" opacity="0.15" fill="url(#linear-gradient)"/>
    <g id="Group_1201" data-name="Group 1201" transform="translate(72.69 54.58)" opacity="0.15">
      <path id="Path_1088" data-name="Path 1088" d="M730.8,117.6a1.718,1.718,0,0,0,2.291,1.618,33.114,33.114,0,0,0,6.891-3.417,49.7,49.7,0,0,0,8.8-7.285,1.714,1.714,0,0,0,0-2.367,52.812,52.812,0,0,0-8.791-7.1,33.174,33.174,0,0,0-6.891-3.417A1.718,1.718,0,0,0,730.8,97.25Z" transform="translate(-340.859 -70.952)" fill="url(#linear-gradient-2)"/>
      <path id="Path_1089" data-name="Path 1089" d="M557.182,117.6a1.718,1.718,0,0,0,2.291,1.618,33.112,33.112,0,0,0,6.891-3.417,49.691,49.691,0,0,0,8.8-7.285,1.713,1.713,0,0,0,0-2.367,52.776,52.776,0,0,0-8.791-7.1,33.173,33.173,0,0,0-6.891-3.417,1.718,1.718,0,0,0-2.291,1.619Z" transform="translate(-270.113 -70.952)" fill="url(#linear-gradient-3)"/>
      <path id="Path_1090" data-name="Path 1090" d="M392.567,117.6a1.718,1.718,0,0,0,2.291,1.618,33.142,33.142,0,0,0,6.891-3.417,49.685,49.685,0,0,0,8.795-7.285,1.714,1.714,0,0,0,0-2.367,52.806,52.806,0,0,0-8.791-7.1,33.2,33.2,0,0,0-6.891-3.417,1.718,1.718,0,0,0-2.291,1.619Z" transform="translate(-203.035 -70.952)" fill="url(#linear-gradient-4)"/>
      <path id="Path_1091" data-name="Path 1091" d="M474.554,76.646a1.718,1.718,0,0,0,2.291,1.618,33.135,33.135,0,0,0,6.891-3.416,49.719,49.719,0,0,0,8.8-7.286,1.713,1.713,0,0,0,0-2.366,52.723,52.723,0,0,0-8.791-7.1,33.111,33.111,0,0,0-6.891-3.417,1.718,1.718,0,0,0-2.291,1.618Z" transform="translate(-236.443 -54.58)" fill="url(#linear-gradient-5)"/>
      <path id="Path_1092" data-name="Path 1092" d="M648.17,76.646a1.718,1.718,0,0,0,2.291,1.618,33.137,33.137,0,0,0,6.891-3.416,49.688,49.688,0,0,0,8.795-7.286,1.713,1.713,0,0,0,0-2.366,52.744,52.744,0,0,0-8.791-7.1,33.114,33.114,0,0,0-6.891-3.417A1.718,1.718,0,0,0,648.17,56.3Z" transform="translate(-307.825 -54.58)" fill="url(#linear-gradient-6)"/>
      <path id="Path_1093" data-name="Path 1093" d="M648.17,138.2a1.718,1.718,0,0,1,2.291-1.619A33.175,33.175,0,0,1,657.352,140a49.638,49.638,0,0,1,8.795,7.286,1.713,1.713,0,0,1,0,2.366,52.744,52.744,0,0,1-8.791,7.1,33.146,33.146,0,0,1-6.891,3.417,1.718,1.718,0,0,1-2.291-1.618Z" transform="translate(-307.825 -87.324)" fill="url(#linear-gradient-7)"/>
      <path id="Path_1094" data-name="Path 1094" d="M474.554,138.2a1.718,1.718,0,0,1,2.291-1.619A33.173,33.173,0,0,1,483.736,140a49.668,49.668,0,0,1,8.8,7.286,1.713,1.713,0,0,1,0,2.366,52.723,52.723,0,0,1-8.791,7.1,33.143,33.143,0,0,1-6.891,3.417,1.718,1.718,0,0,1-2.291-1.618Z" transform="translate(-236.443 -87.324)" fill="url(#linear-gradient-8)"/>
      <path id="Path_1095" data-name="Path 1095" d="M392.567,180.467a1.718,1.718,0,0,1,2.291-1.618,33.174,33.174,0,0,1,6.891,3.417,49.684,49.684,0,0,1,8.795,7.285,1.714,1.714,0,0,1,0,2.367,52.775,52.775,0,0,1-8.791,7.1,33.2,33.2,0,0,1-6.891,3.417,1.718,1.718,0,0,1-2.291-1.619Z" transform="translate(-203.035 -103.368)" fill="url(#linear-gradient-9)"/>
      <path id="Path_1096" data-name="Path 1096" d="M557.182,180.467a1.718,1.718,0,0,1,2.291-1.618,33.144,33.144,0,0,1,6.891,3.417,49.69,49.69,0,0,1,8.8,7.285,1.713,1.713,0,0,1,0,2.367,52.746,52.746,0,0,1-8.791,7.1,33.173,33.173,0,0,1-6.891,3.417,1.718,1.718,0,0,1-2.291-1.619Z" transform="translate(-270.113 -103.368)" fill="url(#linear-gradient-10)"/>
      <path id="Path_1097" data-name="Path 1097" d="M309.938,138.2a1.718,1.718,0,0,1,2.291-1.619A33.192,33.192,0,0,1,319.121,140a49.685,49.685,0,0,1,8.795,7.286,1.713,1.713,0,0,1,0,2.366,52.71,52.71,0,0,1-8.791,7.1,33.162,33.162,0,0,1-6.892,3.417,1.718,1.718,0,0,1-2.291-1.618Z" transform="translate(-169.365 -87.324)" fill="url(#linear-gradient-11)"/>
      <path id="Path_1098" data-name="Path 1098" d="M246.3,695.494a1.718,1.718,0,0,0,2.291,1.619,33.193,33.193,0,0,0,6.892-3.417,49.7,49.7,0,0,0,8.795-7.285,1.713,1.713,0,0,0,0-2.367,52.713,52.713,0,0,0-8.791-7.1,33.16,33.16,0,0,0-6.892-3.417,1.718,1.718,0,0,0-2.291,1.618Z" transform="translate(-143.435 -297.16)" fill="url(#linear-gradient-12)"/>
      <path id="Path_1099" data-name="Path 1099" d="M72.69,695.494a1.718,1.718,0,0,0,2.291,1.619,33.191,33.191,0,0,0,6.891-3.417,49.68,49.68,0,0,0,8.795-7.285,1.714,1.714,0,0,0,0-2.367,52.746,52.746,0,0,0-8.791-7.1,33.159,33.159,0,0,0-6.891-3.417,1.718,1.718,0,0,0-2.291,1.618Z" transform="translate(-72.69 -297.16)" fill="url(#linear-gradient-13)"/>
      <path id="Path_1100" data-name="Path 1100" d="M163.677,654.542a1.718,1.718,0,0,0,2.291,1.618,33.169,33.169,0,0,0,6.891-3.417,49.69,49.69,0,0,0,8.8-7.285,1.713,1.713,0,0,0,0-2.367,52.723,52.723,0,0,0-8.791-7.1,33.169,33.169,0,0,0-6.891-3.417,1.718,1.718,0,0,0-2.291,1.618Z" transform="translate(-109.065 -281.641)" fill="url(#linear-gradient-14)"/>
      <path id="Path_1101" data-name="Path 1101" d="M163.677,716.1a1.718,1.718,0,0,1,2.291-1.618,33.142,33.142,0,0,1,6.891,3.417,49.7,49.7,0,0,1,8.8,7.285,1.713,1.713,0,0,1,0,2.367,52.748,52.748,0,0,1-8.791,7.1,33.173,33.173,0,0,1-6.891,3.417,1.718,1.718,0,0,1-2.291-1.619Z" transform="translate(-109.065 -313.533)" fill="url(#linear-gradient-15)"/>
      <path id="Path_1102" data-name="Path 1102" d="M72.69,758.363a1.718,1.718,0,0,1,2.291-1.619,33.2,33.2,0,0,1,6.891,3.417,49.688,49.688,0,0,1,8.795,7.285,1.714,1.714,0,0,1,0,2.367,52.746,52.746,0,0,1-8.791,7.1,33.153,33.153,0,0,1-6.891,3.417,1.718,1.718,0,0,1-2.291-1.618Z" transform="translate(-72.69 -330.429)" fill="url(#linear-gradient-16)"/>
    </g>
    <g id="Group_1202" data-name="Group 1202" transform="translate(86.494 150.274)">
      <path id="Path_1103" data-name="Path 1103" d="M522.2,270.573a11.468,11.468,0,1,0,11.468,11.469A11.468,11.468,0,0,0,522.2,270.573Z" transform="translate(-261.619 -234.311)" fill="url(#linear-gradient-17)"/>
      <circle id="Ellipse_282" data-name="Ellipse 282" cx="11.468" cy="11.468" r="11.468" transform="translate(249.117 191.222)" fill="url(#linear-gradient-18)"/>
      <rect id="Rectangle_513" data-name="Rectangle 513" width="18.006" height="22.834" transform="translate(124.576 36.365)" fill="url(#linear-gradient-19)"/>
      <rect id="Rectangle_514" data-name="Rectangle 514" width="18.006" height="22.834" transform="translate(163.515 36.365)" fill="url(#linear-gradient-20)"/>
      <rect id="Rectangle_515" data-name="Rectangle 515" width="18.006" height="22.834" transform="translate(124.576 191.273)" fill="url(#linear-gradient-21)"/>
      <rect id="Rectangle_516" data-name="Rectangle 516" width="18.006" height="22.834" transform="translate(163.515 191.273)" fill="url(#linear-gradient-22)"/>
      <path id="Path_1104" data-name="Path 1104" d="M378.83,399.659A11.469,11.469,0,1,0,390.3,411.128,11.469,11.469,0,0,0,378.83,399.659Z" transform="translate(-204.3 -285.918)" fill="url(#linear-gradient-23)"/>
      <rect id="Rectangle_517" data-name="Rectangle 517" width="18.006" height="22.833" transform="translate(38.52 113.845)" fill="url(#linear-gradient-24)"/>
      <rect id="Rectangle_518" data-name="Rectangle 518" width="18.006" height="22.833" transform="translate(77.46 113.845)" fill="url(#linear-gradient-25)"/>
      <path id="Path_1105" data-name="Path 1105" d="M412.291,305.617V210.158H181.744v77.473l-86.055.007V383.1l86.055-.007v77.433H412.291v-95.46l-86.055.008V305.625Zm-212.54-77.453H394.284v59.448l-194.534.018ZM394.284,442.517H199.751V383.089l194.534-.018Zm-86.055-77.444L113.7,365.09V305.644l194.534-.017Z" transform="translate(-95.689 -210.158)" fill="url(#linear-gradient-26)"/>
    </g>
  </g>
</svg>
