<svg xmlns="http://www.w3.org/2000/svg" xmlns:xlink="http://www.w3.org/1999/xlink" viewBox="0 0 828.16 764.62"><defs><style>.cls-1,.cls-10,.cls-11,.cls-12,.cls-13,.cls-14,.cls-15,.cls-16,.cls-17,.cls-18,.cls-19,.cls-20,.cls-21,.cls-22,.cls-23,.cls-24,.cls-25,.cls-26,.cls-27,.cls-28,.cls-29,.cls-30,.cls-31,.cls-32,.cls-5,.cls-6,.cls-7,.cls-8,.cls-9{opacity:0.15;}.cls-1{fill:url(#linear-gradient);}.cls-2{fill:#a6da78;}.cls-3{fill:url(#linear-gradient-2);}.cls-4{fill:#00576f;}.cls-5{fill:url(#linear-gradient-3);}.cls-6{fill:url(#linear-gradient-4);}.cls-7{fill:url(#linear-gradient-5);}.cls-8{fill:url(#linear-gradient-6);}.cls-9{fill:url(#linear-gradient-7);}.cls-10{fill:url(#linear-gradient-8);}.cls-11{fill:url(#linear-gradient-9);}.cls-12{fill:url(#linear-gradient-10);}.cls-13{fill:url(#linear-gradient-11);}.cls-14{fill:url(#linear-gradient-12);}.cls-15{fill:url(#linear-gradient-13);}.cls-16{fill:url(#linear-gradient-14);}.cls-17{fill:url(#linear-gradient-15);}.cls-18{fill:url(#linear-gradient-16);}.cls-19{fill:url(#linear-gradient-17);}.cls-20{fill:url(#linear-gradient-18);}.cls-21{fill:url(#linear-gradient-19);}.cls-22{fill:url(#linear-gradient-20);}.cls-23{fill:url(#linear-gradient-21);}.cls-24{fill:url(#linear-gradient-22);}.cls-25{fill:url(#linear-gradient-23);}.cls-26{fill:url(#linear-gradient-24);}.cls-27{fill:url(#linear-gradient-25);}.cls-28{fill:url(#linear-gradient-26);}.cls-29{fill:url(#linear-gradient-27);}.cls-30{fill:url(#linear-gradient-28);}.cls-31{fill:url(#linear-gradient-29);}.cls-32{fill:url(#linear-gradient-30);}.cls-33{fill:url(#linear-gradient-31);}</style><linearGradient id="linear-gradient" x1="407.75" y1="476.9" x2="-57.93" y2="605.2" gradientUnits="userSpaceOnUse"><stop offset="0" stop-color="gray"/><stop offset="1" stop-color="#eee"/></linearGradient><linearGradient id="linear-gradient-2" x1="230.84" y1="353.46" x2="268.56" y2="308.2" gradientUnits="userSpaceOnUse"><stop offset="0" stop-color="#00576f"/><stop offset="1" stop-color="#88cb77"/></linearGradient><linearGradient id="linear-gradient-3" x1="3106.99" y1="-175.21" x2="3433.75" y2="-731.4" gradientTransform="translate(-3068.91 318.44)" xlink:href="#linear-gradient"/><linearGradient id="linear-gradient-4" x1="3064.1" y1="-200.41" x2="3390.86" y2="-756.6" gradientTransform="translate(-3068.91 318.44)" xlink:href="#linear-gradient"/><linearGradient id="linear-gradient-5" x1="3193.18" y1="-175.21" x2="3519.93" y2="-731.4" gradientTransform="translate(-3068.91 318.44)" xlink:href="#linear-gradient"/><linearGradient id="linear-gradient-6" x1="3150.29" y1="-200.41" x2="3477.04" y2="-756.6" gradientTransform="translate(-3068.91 318.44)" xlink:href="#linear-gradient"/><linearGradient id="linear-gradient-7" x1="3106.99" y1="28.15" x2="3433.75" y2="-528.04" gradientTransform="translate(-3068.91 318.44)" xlink:href="#linear-gradient"/><linearGradient id="linear-gradient-8" x1="3064.1" y1="2.95" x2="3390.86" y2="-553.24" gradientTransform="translate(-3068.91 318.44)" xlink:href="#linear-gradient"/><linearGradient id="linear-gradient-9" x1="3193.18" y1="28.15" x2="3519.93" y2="-528.04" gradientTransform="translate(-3068.91 318.44)" xlink:href="#linear-gradient"/><linearGradient id="linear-gradient-10" x1="3150.29" y1="2.95" x2="3477.04" y2="-553.24" gradientTransform="translate(-3068.91 318.44)" xlink:href="#linear-gradient"/><linearGradient id="linear-gradient-11" x1="3106.99" y1="230.13" x2="3433.75" y2="-326.05" gradientTransform="translate(-3068.91 318.44)" xlink:href="#linear-gradient"/><linearGradient id="linear-gradient-12" x1="3064.1" y1="204.93" x2="3390.86" y2="-351.25" gradientTransform="translate(-3068.91 318.44)" xlink:href="#linear-gradient"/><linearGradient id="linear-gradient-13" x1="3193.18" y1="230.13" x2="3519.93" y2="-326.05" gradientTransform="translate(-3068.91 318.44)" xlink:href="#linear-gradient"/><linearGradient id="linear-gradient-14" x1="3150.29" y1="204.93" x2="3477.04" y2="-351.25" gradientTransform="translate(-3068.91 318.44)" xlink:href="#linear-gradient"/><linearGradient id="linear-gradient-15" x1="3106.99" y1="424.42" x2="3433.75" y2="-131.77" gradientTransform="translate(-3068.91 318.44)" xlink:href="#linear-gradient"/><linearGradient id="linear-gradient-16" x1="3064.1" y1="399.22" x2="3390.86" y2="-156.96" gradientTransform="translate(-3068.91 318.44)" xlink:href="#linear-gradient"/><linearGradient id="linear-gradient-17" x1="3193.18" y1="424.42" x2="3519.93" y2="-131.77" gradientTransform="translate(-3068.91 318.44)" xlink:href="#linear-gradient"/><linearGradient id="linear-gradient-18" x1="3150.29" y1="399.22" x2="3477.04" y2="-156.96" gradientTransform="translate(-3068.91 318.44)" xlink:href="#linear-gradient"/><linearGradient id="linear-gradient-19" x1="691.28" y1="945.91" x2="1018.04" y2="389.72" xlink:href="#linear-gradient"/><linearGradient id="linear-gradient-20" x1="648.39" y1="920.71" x2="975.15" y2="364.52" xlink:href="#linear-gradient"/><linearGradient id="linear-gradient-21" x1="581.4" y1="881.35" x2="908.16" y2="325.17" xlink:href="#linear-gradient"/><linearGradient id="linear-gradient-22" x1="538.51" y1="856.15" x2="865.27" y2="299.97" xlink:href="#linear-gradient"/><linearGradient id="linear-gradient-23" x1="492.68" y1="881.35" x2="819.44" y2="325.17" xlink:href="#linear-gradient"/><linearGradient id="linear-gradient-24" x1="449.79" y1="856.15" x2="776.55" y2="299.97" xlink:href="#linear-gradient"/><linearGradient id="linear-gradient-25" x1="693.58" y1="591.81" x2="1020.34" y2="35.63" gradientTransform="matrix(1, 0, 0, -1, 0, 410.53)" xlink:href="#linear-gradient"/><linearGradient id="linear-gradient-26" x1="650.69" y1="566.62" x2="977.45" y2="10.43" gradientTransform="matrix(1, 0, 0, -1, 0, 410.53)" xlink:href="#linear-gradient"/><linearGradient id="linear-gradient-27" x1="583.7" y1="527.26" x2="910.46" y2="-28.93" gradientTransform="matrix(1, 0, 0, -1, 0, 410.53)" xlink:href="#linear-gradient"/><linearGradient id="linear-gradient-28" x1="540.81" y1="502.06" x2="867.57" y2="-54.12" gradientTransform="matrix(1, 0, 0, -1, 0, 410.53)" xlink:href="#linear-gradient"/><linearGradient id="linear-gradient-29" x1="494.98" y1="527.26" x2="821.74" y2="-28.93" gradientTransform="matrix(1, 0, 0, -1, 0, 410.53)" xlink:href="#linear-gradient"/><linearGradient id="linear-gradient-30" x1="452.09" y1="502.06" x2="778.85" y2="-54.12" gradientTransform="matrix(1, 0, 0, -1, 0, 410.53)" xlink:href="#linear-gradient"/><linearGradient id="linear-gradient-31" x1="169.42" y1="364.89" x2="694.04" y2="364.89" xlink:href="#linear-gradient-2"/></defs><g id="Layer_2" data-name="Layer 2"><g id="Layer_1-2" data-name="Layer 1"><rect class="cls-1" y="263.96" width="566.62" height="494.45" rx="118.13"/><rect class="cls-2" x="310.71" y="226.45" width="41.47" height="45.39"/><circle class="cls-3" cx="243.92" cy="337.76" r="22.69"/><circle class="cls-2" cx="331.45" cy="337.76" r="22.69"/><rect class="cls-4" x="310.71" y="403.68" width="41.47" height="45.39"/><circle class="cls-2" cx="243.92" cy="426.38" r="22.69"/><path class="cls-5" d="M59.66,112.56h0a146.79,146.79,0,0,0-27.17,0h0A3.85,3.85,0,0,0,29,116h0a145.07,145.07,0,0,0,0,27.17h0a3.85,3.85,0,0,0,3.46,3.47h0a146.79,146.79,0,0,0,27.17,0h0a3.85,3.85,0,0,0,3.47-3.47h0a145.07,145.07,0,0,0,0-27.17h0A3.85,3.85,0,0,0,59.66,112.56Z"/><path class="cls-6" d="M59.66,14.36h0a145.07,145.07,0,0,0-27.17,0h0A3.85,3.85,0,0,0,29,17.83h0A145.07,145.07,0,0,0,29,45h0a3.83,3.83,0,0,0,3.46,3.46h0a145.07,145.07,0,0,0,27.17,0h0A3.83,3.83,0,0,0,63.13,45h0a145.07,145.07,0,0,0,0-27.17h0A3.85,3.85,0,0,0,59.66,14.36Z"/><path class="cls-7" d="M145.85,112.56h0a146.79,146.79,0,0,0-27.17,0h0a3.86,3.86,0,0,0-3.47,3.47h0a146.79,146.79,0,0,0,0,27.17h0a3.86,3.86,0,0,0,3.47,3.47h0a146.79,146.79,0,0,0,27.17,0h0a3.86,3.86,0,0,0,3.47-3.47h0a146.79,146.79,0,0,0,0-27.17h0A3.86,3.86,0,0,0,145.85,112.56Z"/><path class="cls-8" d="M145.85,14.36h0a145.07,145.07,0,0,0-27.17,0h0a3.86,3.86,0,0,0-3.47,3.47h0a146.79,146.79,0,0,0,0,27.17h0a3.84,3.84,0,0,0,3.47,3.46h0a145.07,145.07,0,0,0,27.17,0h0A3.84,3.84,0,0,0,149.32,45h0a146.79,146.79,0,0,0,0-27.17h0A3.86,3.86,0,0,0,145.85,14.36Z"/><path class="cls-9" d="M59.66,315.92h0a146.79,146.79,0,0,0-27.17,0h0A3.85,3.85,0,0,0,29,319.39h0a145.07,145.07,0,0,0,0,27.17h0A3.85,3.85,0,0,0,32.49,350h0a146.79,146.79,0,0,0,27.17,0h0a3.85,3.85,0,0,0,3.47-3.47h0a145.07,145.07,0,0,0,0-27.17h0A3.85,3.85,0,0,0,59.66,315.92Z"/><path class="cls-10" d="M59.66,217.72h0a146.79,146.79,0,0,0-27.17,0h0A3.85,3.85,0,0,0,29,221.19h0a145.07,145.07,0,0,0,0,27.17h0a3.85,3.85,0,0,0,3.46,3.47h0a146.79,146.79,0,0,0,27.17,0h0a3.85,3.85,0,0,0,3.47-3.47h0a145.07,145.07,0,0,0,0-27.17h0A3.85,3.85,0,0,0,59.66,217.72Z"/><path class="cls-11" d="M145.85,315.92h0a146.79,146.79,0,0,0-27.17,0h0a3.86,3.86,0,0,0-3.47,3.47h0a146.79,146.79,0,0,0,0,27.17h0a3.86,3.86,0,0,0,3.47,3.47h0a146.79,146.79,0,0,0,27.17,0h0a3.86,3.86,0,0,0,3.47-3.47h0a146.79,146.79,0,0,0,0-27.17h0A3.86,3.86,0,0,0,145.85,315.92Z"/><path class="cls-12" d="M145.85,217.72h0a146.79,146.79,0,0,0-27.17,0h0a3.86,3.86,0,0,0-3.47,3.47h0a146.79,146.79,0,0,0,0,27.17h0a3.86,3.86,0,0,0,3.47,3.47h0a146.79,146.79,0,0,0,27.17,0h0a3.86,3.86,0,0,0,3.47-3.47h0a146.79,146.79,0,0,0,0-27.17h0A3.86,3.86,0,0,0,145.85,217.72Z"/><path class="cls-13" d="M59.66,517.91h0a145.07,145.07,0,0,0-27.17,0h0A3.84,3.84,0,0,0,29,521.38h0a145,145,0,0,0,0,27.16h0A3.84,3.84,0,0,0,32.49,552h0a145.07,145.07,0,0,0,27.17,0h0a3.84,3.84,0,0,0,3.47-3.47h0a145,145,0,0,0,0-27.16h0A3.84,3.84,0,0,0,59.66,517.91Z"/><path class="cls-14" d="M59.66,419.71h0a145.07,145.07,0,0,0-27.17,0h0A3.84,3.84,0,0,0,29,423.17h0a145.07,145.07,0,0,0,0,27.17h0a3.84,3.84,0,0,0,3.46,3.47h0a145.07,145.07,0,0,0,27.17,0h0a3.84,3.84,0,0,0,3.47-3.47h0a145.07,145.07,0,0,0,0-27.17h0A3.84,3.84,0,0,0,59.66,419.71Z"/><path class="cls-15" d="M145.85,517.91h0a145.07,145.07,0,0,0-27.17,0h0a3.85,3.85,0,0,0-3.47,3.47h0a146.68,146.68,0,0,0,0,27.16h0a3.85,3.85,0,0,0,3.47,3.47h0a145.07,145.07,0,0,0,27.17,0h0a3.85,3.85,0,0,0,3.47-3.47h0a146.68,146.68,0,0,0,0-27.16h0A3.85,3.85,0,0,0,145.85,517.91Z"/><path class="cls-16" d="M145.85,419.71h0a145.07,145.07,0,0,0-27.17,0h0a3.85,3.85,0,0,0-3.47,3.46h0a146.79,146.79,0,0,0,0,27.17h0a3.85,3.85,0,0,0,3.47,3.47h0a145.07,145.07,0,0,0,27.17,0h0a3.85,3.85,0,0,0,3.47-3.47h0a146.79,146.79,0,0,0,0-27.17h0A3.85,3.85,0,0,0,145.85,419.71Z"/><path class="cls-17" d="M59.66,712.2h0a145.07,145.07,0,0,0-27.17,0h0A3.83,3.83,0,0,0,29,715.66h0a145.07,145.07,0,0,0,0,27.17h0a3.84,3.84,0,0,0,3.46,3.47h0a145.07,145.07,0,0,0,27.17,0h0a3.84,3.84,0,0,0,3.47-3.47h0a145.07,145.07,0,0,0,0-27.17h0A3.83,3.83,0,0,0,59.66,712.2Z"/><path class="cls-18" d="M59.66,614h0a146.79,146.79,0,0,0-27.17,0h0A3.85,3.85,0,0,0,29,617.46h0a145.07,145.07,0,0,0,0,27.17h0a3.85,3.85,0,0,0,3.46,3.47h0a146.79,146.79,0,0,0,27.17,0h0a3.85,3.85,0,0,0,3.47-3.47h0a145.07,145.07,0,0,0,0-27.17h0A3.85,3.85,0,0,0,59.66,614Z"/><path class="cls-19" d="M145.85,712.2h0a145.07,145.07,0,0,0-27.17,0h0a3.84,3.84,0,0,0-3.47,3.46h0a146.79,146.79,0,0,0,0,27.17h0a3.85,3.85,0,0,0,3.47,3.47h0a145.07,145.07,0,0,0,27.17,0h0a3.85,3.85,0,0,0,3.47-3.47h0a146.79,146.79,0,0,0,0-27.17h0A3.84,3.84,0,0,0,145.85,712.2Z"/><path class="cls-20" d="M145.85,614h0a146.79,146.79,0,0,0-27.17,0h0a3.86,3.86,0,0,0-3.47,3.47h0a146.79,146.79,0,0,0,0,27.17h0a3.86,3.86,0,0,0,3.47,3.47h0a146.79,146.79,0,0,0,27.17,0h0a3.86,3.86,0,0,0,3.47-3.47h0a146.79,146.79,0,0,0,0-27.17h0A3.86,3.86,0,0,0,145.85,614Z"/><path class="cls-21" d="M821.76,729.88h0a145.07,145.07,0,0,0-27.17,0h0a3.86,3.86,0,0,0-3.47,3.47h0a146.79,146.79,0,0,0,0,27.17h0a3.84,3.84,0,0,0,3.47,3.46h0a145.07,145.07,0,0,0,27.17,0h0a3.84,3.84,0,0,0,3.47-3.46h0a146.79,146.79,0,0,0,0-27.17h0A3.86,3.86,0,0,0,821.76,729.88Z"/><path class="cls-22" d="M821.76,631.68h0a145.07,145.07,0,0,0-27.17,0h0a3.85,3.85,0,0,0-3.47,3.47h0a146.79,146.79,0,0,0,0,27.17h0a3.84,3.84,0,0,0,3.47,3.46h0a145.07,145.07,0,0,0,27.17,0h0a3.84,3.84,0,0,0,3.47-3.46h0a146.79,146.79,0,0,0,0-27.17h0A3.85,3.85,0,0,0,821.76,631.68Z"/><path class="cls-23" d="M731.65,631.68h0a145.07,145.07,0,0,0-27.17,0h0a3.84,3.84,0,0,0-3.47,3.47h0a145.07,145.07,0,0,0,0,27.17h0a3.83,3.83,0,0,0,3.47,3.46h0a145.07,145.07,0,0,0,27.17,0h0a3.83,3.83,0,0,0,3.46-3.46h0a145.07,145.07,0,0,0,0-27.17h0A3.84,3.84,0,0,0,731.65,631.68Z"/><path class="cls-24" d="M731.65,533.48h0a145.07,145.07,0,0,0-27.17,0h0A3.84,3.84,0,0,0,701,537h0a145.07,145.07,0,0,0,0,27.17h0a3.84,3.84,0,0,0,3.47,3.46h0a145.07,145.07,0,0,0,27.17,0h0a3.84,3.84,0,0,0,3.46-3.46h0a145.07,145.07,0,0,0,0-27.17h0A3.84,3.84,0,0,0,731.65,533.48Z"/><path class="cls-25" d="M642.93,631.68h0a145.07,145.07,0,0,0-27.17,0h0a3.85,3.85,0,0,0-3.47,3.47h0a146.79,146.79,0,0,0,0,27.17h0a3.84,3.84,0,0,0,3.47,3.46h0a145.07,145.07,0,0,0,27.17,0h0a3.84,3.84,0,0,0,3.47-3.46h0a146.79,146.79,0,0,0,0-27.17h0A3.85,3.85,0,0,0,642.93,631.68Z"/><path class="cls-26" d="M642.93,533.48h0a145.07,145.07,0,0,0-27.17,0h0a3.85,3.85,0,0,0-3.47,3.47h0a146.79,146.79,0,0,0,0,27.17h0a3.85,3.85,0,0,0,3.47,3.46h0a145.07,145.07,0,0,0,27.17,0h0a3.85,3.85,0,0,0,3.47-3.46h0a146.79,146.79,0,0,0,0-27.17h0A3.85,3.85,0,0,0,642.93,533.48Z"/><path class="cls-27" d="M824.06,34.74h0a145.07,145.07,0,0,1-27.17,0h0a3.85,3.85,0,0,1-3.47-3.47h0a146.79,146.79,0,0,1,0-27.17h0A3.84,3.84,0,0,1,796.89.64h0a145.07,145.07,0,0,1,27.17,0h0a3.84,3.84,0,0,1,3.47,3.46h0a146.79,146.79,0,0,1,0,27.17h0A3.85,3.85,0,0,1,824.06,34.74Z"/><path class="cls-28" d="M824.06,132.94h0a145.07,145.07,0,0,1-27.17,0h0a3.85,3.85,0,0,1-3.47-3.47h0a146.79,146.79,0,0,1,0-27.17h0a3.85,3.85,0,0,1,3.47-3.46h0a145.07,145.07,0,0,1,27.17,0h0a3.85,3.85,0,0,1,3.47,3.46h0a146.79,146.79,0,0,1,0,27.17h0A3.85,3.85,0,0,1,824.06,132.94Z"/><path class="cls-29" d="M734,132.94h0a145.07,145.07,0,0,1-27.17,0h0a3.84,3.84,0,0,1-3.47-3.47h0a145.07,145.07,0,0,1,0-27.17h0a3.84,3.84,0,0,1,3.47-3.46h0a145.07,145.07,0,0,1,27.17,0h0a3.84,3.84,0,0,1,3.46,3.46h0a145.07,145.07,0,0,1,0,27.17h0A3.84,3.84,0,0,1,734,132.94Z"/><path class="cls-30" d="M734,231.14h0a145.07,145.07,0,0,1-27.17,0h0a3.84,3.84,0,0,1-3.47-3.47h0a145.07,145.07,0,0,1,0-27.17h0a3.84,3.84,0,0,1,3.47-3.46h0A145.07,145.07,0,0,1,734,197h0a3.84,3.84,0,0,1,3.46,3.46h0a145.07,145.07,0,0,1,0,27.17h0A3.84,3.84,0,0,1,734,231.14Z"/><path class="cls-31" d="M645.23,132.94h0a145.07,145.07,0,0,1-27.17,0h0a3.85,3.85,0,0,1-3.47-3.47h0a146.79,146.79,0,0,1,0-27.17h0a3.85,3.85,0,0,1,3.47-3.46h0a145.07,145.07,0,0,1,27.17,0h0a3.85,3.85,0,0,1,3.47,3.46h0a146.79,146.79,0,0,1,0,27.17h0A3.85,3.85,0,0,1,645.23,132.94Z"/><path class="cls-32" d="M645.23,231.14h0a145.07,145.07,0,0,1-27.17,0h0a3.85,3.85,0,0,1-3.47-3.47h0a146.79,146.79,0,0,1,0-27.17h0a3.85,3.85,0,0,1,3.47-3.46h0a145.07,145.07,0,0,1,27.17,0h0a3.85,3.85,0,0,1,3.47,3.46h0a146.79,146.79,0,0,1,0,27.17h0A3.85,3.85,0,0,1,645.23,231.14Z"/><path class="cls-33" d="M572.13,544.41a79.94,79.94,0,0,1-73.76-49.95H371.76a79.43,79.43,0,0,1-147.52,0H169.42V226.89A41.58,41.58,0,0,1,211,185.36H497.38a41.57,41.57,0,0,1,41.52,41.53v23.24h43.33a27.49,27.49,0,0,1,16.52,5.56l84.46,64A27.51,27.51,0,0,1,694,341.53l-.38,131.72a22.21,22.21,0,0,1-22.19,22.19l-25.66-.77A80,80,0,0,1,572.13,544.41ZM357.24,474.56H512.89l2.1,7.15a59.54,59.54,0,0,0,114.28,0l2.17-7.38,40.33,1.21a2.25,2.25,0,0,0,2-2.29l0-21.15.36-110.61a7.47,7.47,0,0,0-2.95-5.9l-84.46-64a7.49,7.49,0,0,0-4.5-1.52H535.66a7.38,7.38,0,0,0-2.86.58L519,276.38V226.89a21.65,21.65,0,0,0-21.62-21.63H211a21.66,21.66,0,0,0-21.63,21.63V474.56h49.44l2.1,7.15a59.55,59.55,0,0,0,114.29,0Z"/><path class="cls-4" d="M631.83,375.59H539a10.09,10.09,0,0,1-10.09-10.09V318.4A10.09,10.09,0,0,1,539,308.31h49.39a10.12,10.12,0,0,1,7.41,3.24l43.49,47.1A10.09,10.09,0,0,1,631.83,375.59Z"/><rect class="cls-2" x="675.47" y="588.69" width="81.37" height="5"/><rect class="cls-2" x="675.47" y="626.05" width="81.37" height="5"/><rect class="cls-2" x="675.47" y="663.4" width="81.37" height="5"/></g></g></svg>