<svg id="Layer_1" data-name="Layer 1" xmlns="http://www.w3.org/2000/svg" viewBox="0 0 71.83 58.29"><defs><style>.cls-1{fill:#00576f;}</style></defs><polygon class="cls-1" points="26.91 49.06 8.52 49.06 8.52 27.38 13.52 27.38 13.52 44.06 26.91 44.06 26.91 49.06"/><polygon class="cls-1" points="60.27 37.57 55.27 37.57 55.27 19.85 41.87 19.85 41.87 14.85 60.27 14.85 60.27 37.57"/><path class="cls-1" d="M71.83,58.29H26.49V36.7H71.83Zm-40.34-5H66.83V41.7H31.49Z"/><circle class="cls-1" cx="60.4" cy="47.56" r="2.9"/><rect class="cls-1" x="34.8" y="45.4" width="5" height="4.33"/><rect class="cls-1" x="43.19" y="45.4" width="5" height="4.33"/><path class="cls-1" d="M31,29.66H9.71A9.72,9.72,0,0,1,8,10.38,12.73,12.73,0,0,1,30.57,4.93,12.37,12.37,0,1,1,31,29.66ZM9.71,15.23a4.72,4.72,0,0,0,0,9.43H31A7.37,7.37,0,1,0,29.77,10l-1.71.29-.87-1.49a7.73,7.73,0,0,0-14.41,3.84v2.79l-2.69-.21Z"/></svg>