<svg xmlns="http://www.w3.org/2000/svg" viewBox="0 0 70 69.79"><defs><style>.cls-1{fill:#fff;}</style></defs><g id="Layer_2" data-name="Layer 2"><g id="Layer_1-2" data-name="Layer 1"><path class="cls-1" d="M35,69.79A18.5,18.5,0,1,1,53.5,51.3,18.51,18.51,0,0,1,35,69.79Zm0-32A13.5,13.5,0,1,0,48.5,51.3,13.51,13.51,0,0,0,35,37.8Z"/><rect class="cls-1" x="32.57" y="43.94" width="5" height="18.18"/><polygon class="cls-1" points="42.39 54.48 35.07 47.41 27.75 54.48 24.28 50.88 35.07 40.46 45.87 50.88 42.39 54.48"/><path class="cls-1" d="M70,58H57.5V53H65V21H5V53h7.5v5H0V0H70ZM5,16H65V5H5Z"/><path class="cls-1" d="M61,10.5a3.09,3.09,0,1,1-3.09-3.09A3.09,3.09,0,0,1,61,10.5"/><path class="cls-1" d="M51.18,10.5a3.09,3.09,0,1,1-3.09-3.09,3.09,3.09,0,0,1,3.09,3.09"/></g></g></svg>