<svg xmlns="http://www.w3.org/2000/svg" viewBox="0 0 70 61.35"><defs><style>.cls-1{fill:#fff;}</style></defs><g id="Layer_2" data-name="Layer 2"><g id="Layer_1-2" data-name="Layer 1"><path class="cls-1" d="M70,58H57.5V53H65V21H5V53h7.5v5H0V0H70ZM5,16H65V5H5Z"/><path class="cls-1" d="M61,10.5a3.09,3.09,0,1,1-3.09-3.09A3.09,3.09,0,0,1,61,10.5"/><path class="cls-1" d="M51.18,10.5a3.09,3.09,0,1,1-3.09-3.09,3.09,3.09,0,0,1,3.09,3.09"/><path class="cls-1" d="M33.75,61.35a14.9,14.9,0,1,1,14.9-14.89h-5a9.9,9.9,0,1,0-9.9,9.89,9.79,9.79,0,0,0,7.18-3.08l3.63,3.44A14.74,14.74,0,0,1,33.75,61.35Z"/><polygon class="cls-1" points="47.97 50.18 36.66 46.85 38.08 42.06 45.9 44.36 50.58 37.55 54.7 40.38 47.97 50.18"/></g></g></svg>