<svg xmlns="http://www.w3.org/2000/svg" viewBox="0 0 54.28 70.13"><defs><style>.cls-1{fill:#fff;}</style></defs><g id="Layer_2" data-name="Layer 2"><g id="Layer_1-2" data-name="Layer 1"><circle class="cls-1" cx="27.14" cy="17.18" r="3.43"/><path class="cls-1" d="M27.14,70.13A27.15,27.15,0,0,1,12,20.48l2.8,4.15a22.14,22.14,0,1,0,24.62-.09l2.77-4.17a27.15,27.15,0,0,1-15,49.76Z"/><path class="cls-1" d="M27.14,41.38,14.92,29.16a16.94,16.94,0,0,1,0-23.95L15.17,5A16.92,16.92,0,0,1,39.11,5l.25.25a16.94,16.94,0,0,1,0,24ZM27.14,5A11.88,11.88,0,0,0,18.7,8.49l-.25.25a12,12,0,0,0,0,16.88l8.69,8.69,8.69-8.69a11.94,11.94,0,0,0,0-16.87l-.25-.26A11.88,11.88,0,0,0,27.14,5Z"/><rect class="cls-1" x="31.53" y="31.89" width="16.95" height="5"/><rect class="cls-1" x="5.8" y="31.89" width="16.95" height="5"/><rect class="cls-1" x="5.8" y="49.09" width="42.68" height="5"/><path class="cls-1" d="M27.14,70.13c-8.33,0-12.82-14-12.82-27.14a54.24,54.24,0,0,1,1.84-14.4L21,30a49,49,0,0,0-1.65,13c0,13.51,4.63,22.14,7.82,22.14S35,56.5,35,43a49,49,0,0,0-1.67-13.1l4.81-1.36A53.76,53.76,0,0,1,40,43C40,56.14,35.47,70.13,27.14,70.13Z"/></g></g></svg>