<svg xmlns="http://www.w3.org/2000/svg" viewBox="0 0 60.28 65.43"><defs><style>.cls-1{fill:#fff;}</style></defs><g id="Layer_2" data-name="Layer 2"><g id="Layer_1-2" data-name="Layer 1"><path class="cls-1" d="M60.28,65.43H0V0H60.28ZM5,60.43H55.28V5H5Z"/><rect class="cls-1" x="2.94" y="20.15" width="54.4" height="5"/><rect class="cls-1" x="2.94" y="40.29" width="54.4" height="5"/><path class="cls-1" d="M45.55,9.59a3,3,0,1,0,3,3A3,3,0,0,0,45.55,9.59Z"/><circle class="cls-1" cx="45.55" cy="32.72" r="2.98"/><circle class="cls-1" cx="45.55" cy="52.88" r="2.98"/><rect class="cls-1" x="10.02" y="9.62" width="5" height="5.94"/><rect class="cls-1" x="20.15" y="9.62" width="5" height="5.94"/><rect class="cls-1" x="10.02" y="29.75" width="5" height="5.94"/><rect class="cls-1" x="20.15" y="29.75" width="5" height="5.94"/><rect class="cls-1" x="10.02" y="49.91" width="5" height="5.94"/><rect class="cls-1" x="20.15" y="49.91" width="5" height="5.94"/></g></g></svg>