<svg xmlns="http://www.w3.org/2000/svg" viewBox="0 0 903.31 594.88"><defs><style>.cls-1{fill:#fff;}</style></defs><g id="Layer_2" data-name="Layer 2"><g id="Layer_1-2" data-name="Layer 1"><path class="cls-1" d="M97.59,172.09v6.08c0,4-.14,8,0,12a9.09,9.09,0,0,1-2.57,6.75c-3.61,4.15-7.15,8.37-10.5,12.73A248.69,248.69,0,0,0,43.3,290.4,235.44,235.44,0,0,0,36.67,320a192,192,0,0,0-2,40.77,159.32,159.32,0,0,0,7.35,40.09,146.2,146.2,0,0,0,25.41,47.77,166.17,166.17,0,0,0,33,31.05c17.28,12.44,36.19,21.79,56.06,29.24a360.8,360.8,0,0,0,61.43,16.75c8.35,1.55,16.72,3,25.13,4.23,7.41,1.06,14.88,1.76,22.34,2.52,7.08.73,14.18,1.35,21.27,2l1.12.07c4,.24,8,.54,12,.7,19.51.8,39,1.14,58.54.7,6.5-.15,13-.36,19.49-.68s12.73-.83,19.09-1.23c4.74-.3,9.48-.53,14.22-.88s9.46-.8,14.19-1.23c3.11-.29,6.22-.57,9.32-.92,9.31-1.05,18.65-1.92,27.92-3.23q21.53-3,42.88-7.12,27.83-5.28,55.26-12.26,38.55-9.75,76.18-22.69,27.48-9.5,54.22-21c15.51-6.69,30.75-13.95,45.6-22,3.19-1.73,6.32-3.57,9.5-5.32,1.05-.58,2-1.49,3.66-1.32.1,1,.28,1.91.29,2.86,0,5,0,10,0,15v42.8c0,.87-.06,1.75,0,2.62.15,1.9-.79,3-2.39,3.83-10.56,5.73-21.34,11-32.28,15.95q-24.8,11.24-50.41,20.42-20.47,7.38-41.29,13.7c-19,5.75-38.19,11-57.54,15.58-17.52,4.14-35.1,8-52.83,11.07-9.84,1.73-19.67,3.5-29.55,5-8.27,1.27-16.58,2.26-24.89,3.26-7.07.85-14.16,1.57-21.24,2.27-5.85.57-11.71,1-17.55,1.52-8,.75-16,1.09-23.94,1.61-6.38.41-12.76.32-19.12.73-14.63.93-29.27.44-43.9.45-5.88,0-11.75-.38-17.62-.69-6.61-.35-13.22-.8-19.83-1.25q-6-.41-12-.94-6.52-.6-13-1.32c-4.47-.5-8.94-1-13.39-1.64-8.65-1.26-17.32-2.45-25.92-4q-22.9-4.08-45.3-10.38a382.93,382.93,0,0,1-53.57-19.35,293.52,293.52,0,0,1-43.28-24A220.3,220.3,0,0,1,48.45,496,183.78,183.78,0,0,1,23,459.92,181.14,181.14,0,0,1,5,409.59c-1.69-8.33-2.9-16.73-3.81-25.18-.47-4.37-.54-8.73-.77-13.1-.1-2-.26-4-.35-6-.07-1.5-.12-3-.06-4.5.11-3,.4-6,.47-9,.12-5.63.79-11.21,1.44-16.8a190.66,190.66,0,0,1,4-21.75,220.83,220.83,0,0,1,13.83-40.39,268.91,268.91,0,0,1,37.94-60.12,348.55,348.55,0,0,1,26.2-28.41c3.5-3.4,7.12-6.67,10.71-10C95.29,173.73,96.12,173.2,97.59,172.09Z"/><path class="cls-1" d="M769.2,396.3a20.68,20.68,0,0,1-.36-2.66c0-13.9,0-27.79-.05-41.68a4.78,4.78,0,0,1,2.55-4.57,213,213,0,0,0,22-15.61A190.47,190.47,0,0,0,829,293.89a165.28,165.28,0,0,0,22.71-45.06,139.69,139.69,0,0,0,5.83-26.69,131.74,131.74,0,0,0,1.21-16.82,149.49,149.49,0,0,0-5.07-36.67,141.63,141.63,0,0,0-22.08-46.52,161.28,161.28,0,0,0-33.84-34.38,226.34,226.34,0,0,0-47-27.12,329,329,0,0,0-51.52-17.22c-11.27-2.82-22.66-5.19-34.14-7-8.39-1.31-16.83-2.3-25.26-3.31-6.45-.78-12.92-1.4-19.38-2-3.74-.35-7.48-.59-11.23-.76-17.37-.82-34.76-1.17-52.15-.72-6,.16-12,.38-18,.71-5.37.3-10.72.81-16.08,1.2-4.24.32-8.48.56-12.72.9-3.61.29-7.22.62-10.82,1-5.59.62-11.17,1.25-16.75,2-6.56.85-13.12,1.74-19.67,2.72s-13.34,2-20,3.23c-9.83,1.76-19.67,3.53-29.46,5.53q-26.83,5.46-53.23,12.75a828.3,828.3,0,0,0-79.85,26c-12,4.65-24,9.4-35.85,14.4-14.41,6.07-28.53,12.78-42.47,19.87-1.33.67-2.67,1.3-3.86,1.88-1-.35-.94-1-.94-1.63,0-3.63.06-7.26,0-10.89a4.26,4.26,0,0,1,2.42-4.24c5.43-3.09,10.8-6.31,16.23-9.4,14.14-8.06,28.65-15.43,43.35-22.38q27-12.74,54.94-23.19c12.65-4.76,25.4-9.22,38.3-13.22,11.93-3.7,23.93-7.23,36-10.46s24-6.1,36.06-8.77c12.44-2.75,24.95-5.24,37.55-7.19C469.6,9.29,477,8,484.4,7c6.93-1,13.89-1.71,20.84-2.5,6.33-.72,12.66-1.44,19-2,4.48-.42,9-.65,13.46-.93Q549.49.79,561.29.11c.75,0,1.5-.07,2.25-.07,14.51,0,29-.12,43.55.06,6.74.08,13.47.74,20.21,1.16,5,.32,10,.63,15,1,3.36.26,6.71.6,10.06,1,5.47.63,10.93,1.27,16.37,2,5.2.71,10.4,1.46,15.56,2.35,14.66,2.55,29.2,5.67,43.57,9.55A345.49,345.49,0,0,1,793.4,41.77a240.47,240.47,0,0,1,44.77,28.71c14.2,11.67,26.78,24.85,37,40.18a161.74,161.74,0,0,1,24.54,60,203.77,203.77,0,0,1,3.14,24.51c.34,5.13.51,10.24.48,15.37,0,6.13-.7,12.22-1.31,18.32a171.09,171.09,0,0,1-4.67,25.41,193,193,0,0,1-11.28,31.77A209.19,209.19,0,0,1,854.93,335a219.13,219.13,0,0,1-56.14,47.6,188.18,188.18,0,0,1-25.53,12.65c-.93.38-1.87.72-2.81,1.05A6.33,6.33,0,0,1,769.2,396.3Z"/><path class="cls-1" d="M628.15,345.92a5.27,5.27,0,0,1,1.13.58Q642,358.73,654.67,371a4,4,0,0,1,.54,1,3.23,3.23,0,0,1-.5,1,103.85,103.85,0,0,1-21.41,16.34,84.4,84.4,0,0,1-23.84,8.76,114.73,114.73,0,0,1-30.59,2.16c-13.86-.81-27.19-3.86-39.48-10.69A71.58,71.58,0,0,1,516,368.85c-7.5-10.31-11.86-21.94-14.47-34.3-2.48-11.7-2.73-23.56-2.38-35.46a106.29,106.29,0,0,1,6.23-33c5.34-14.81,13.91-27.37,26.45-37a80.38,80.38,0,0,1,30.33-14.26c8.71-2.15,17.53-2.57,26.44-2.31a71,71,0,0,1,27.9,6.62c12.87,5.94,22.77,15.24,30.23,27.23a96.39,96.39,0,0,1,12.6,33.5,131,131,0,0,1,2.24,24.6c0,4.38,0,8.76,0,13.14,0,1.93-.53,2.36-2.5,2.46-1.13.05-2.25,0-3.38,0H549.77c-1.37,0-2.75,0-4.12.13a1.9,1.9,0,0,0-1.9,1.94,12.11,12.11,0,0,0,0,2.25,45.36,45.36,0,0,0,5.36,19,36.4,36.4,0,0,0,23.16,17.77c7.72,2.08,15.57,2,23.45,1.11a49,49,0,0,0,18.17-5.54,65.59,65.59,0,0,0,11.8-8.59C626.47,347.34,627.33,346.63,628.15,345.92Zm-12.08-56.74a11.19,11.19,0,0,0,.3-2.31c-.19-2.35-.38-4.72-.78-7.05a44.24,44.24,0,0,0-5-14.45C606,257.18,599.3,251.72,590,250c-11.41-2.06-22.13-.24-31.69,6.68a30.51,30.51,0,0,0-8.91,10,48.21,48.21,0,0,0-5.62,18.88,12.09,12.09,0,0,0,0,2.25,1.9,1.9,0,0,0,1.94,1.89c1.24.11,2.49.11,3.74.11h61.09c1.13,0,2.26,0,3.37-.07A12.44,12.44,0,0,0,616.07,289.18Z"/><path class="cls-1" d="M220.37,306.2q0-42.42,0-84.84c0-1.38,0-2.76.16-4.12a1.77,1.77,0,0,1,1.72-1.68,25.58,25.58,0,0,1,2.63-.11c31.15,0,62.31,0,93.47.08a55.7,55.7,0,0,1,21.21,4.19c12.1,5,20.44,13.71,25.35,25.73a60.24,60.24,0,0,1,4,16,89.74,89.74,0,0,1,.55,10.48V392c0,1.25,0,2.5-.11,3.75a1.55,1.55,0,0,1-1.43,1.49,23,23,0,0,1-2.62.12H328.1c-3.63-.06-3.78-.18-3.79-3.85q0-24.4,0-48.8,0-37.17,0-74.33a24.06,24.06,0,0,0-.72-7.06,15.27,15.27,0,0,0-10.93-10.85,39.66,39.66,0,0,0-10.78-1.22c-10.63-.15-21.27-.06-31.9-.05a16.45,16.45,0,0,0-3,.29,1.94,1.94,0,0,0-1.8,2.07c-.11,1.37-.1,2.75-.1,4.13v134c0,1.25,0,2.5-.07,3.75s-.64,1.74-1.93,1.85c-.87.07-1.75.05-2.63.05H225.17c-4.73,0-4.8-.07-4.8-4.84Q220.36,349.37,220.37,306.2Z"/><path class="cls-1" d="M451.05,252.19a9.46,9.46,0,0,0-.43,1.67c-.08,1.12-.07,2.25-.07,3.38v83.69a34,34,0,0,0,.66,7.45c1.7,7.75,7.55,11.07,13.55,11.32,5.12.21,10.24.34,15.36.43s5.23.12,5.24,5.3q0,13.5,0,27c0,.5,0,1,0,1.5-.11,2.9-.47,3.27-3.25,3.36-.5,0-1,0-1.5,0-7.25,0-14.51.08-21.76,0a67.24,67.24,0,0,1-17.06-2.17q-25.51-7-33.57-32.28a46,46,0,0,1-2.29-13.62c0-2.25-.09-4.5-.09-6.76q0-85.56,0-171.13c0-1.38,0-2.76.11-4.13a1.89,1.89,0,0,1,1.93-1.91c.86-.08,1.74-.07,2.62-.07h35.65c4.38,0,4.4,0,4.41,4.36q0,20.26,0,40.53c0,5.19.12,5.31,5.2,5.32,8.25,0,16.51,0,24.77,0,4.76,0,4.83.07,4.84,4.81q0,13.14,0,26.28c0,4.37-.3,4.65-4.7,4.67-8.13,0-16.26,0-24.39,0C454.53,251.22,452.74,251,451.05,252.19Z"/><path class="cls-1" d="M735.34,267.4q0,60.81,0,121.63c0,1.37,0,2.75-.08,4.12s-.78,1.91-2.26,1.91a4.67,4.67,0,0,1-.75,0c-7.69-1.3-15.16-3.23-21.9-7.37-10.29-6.32-16.38-15.56-18.83-27.28a73.18,73.18,0,0,1-1.48-14.9q0-100.8,0-201.59c0-1.12,0-2.25.13-3.37a1.57,1.57,0,0,1,1.48-1.45,23,23,0,0,1,2.62-.11H731c4.12,0,4.28.15,4.3,4.17,0,7.26,0,14.52,0,21.78Z"/><path class="cls-1" d="M177.27,307.56v84.8c0,1,0,2,0,3-.07,3.34-.55,3.92-3.68,3.43-8.73-1.35-17.06-3.85-24.34-9.12-8.39-6.09-13.36-14.38-15.69-24.35A61.43,61.43,0,0,1,132,351.2q.06-65.47,0-131c0-4.78,0-4.8,4.74-4.8H172c5.44,0,5.25-.11,5.24,5.45Z"/><path class="cls-1" d="M154.5,188.55H137.27c-.88,0-1.75,0-2.63,0-2.12-.11-2.49-.52-2.61-2.76,0-.37,0-.75,0-1.12q0-17.61,0-35.22c0-3.63.2-3.84,3.81-3.84q18.74,0,37.46,0c3.77,0,3.92.18,3.93,4.11q0,17.42,0,34.84c0,3.85-.16,4-4,4C167,188.57,160.74,188.55,154.5,188.55Z"/><path class="cls-1" d="M804.42,157.1c.44,9.26-7.41,18-17.85,17.83-11.36-.21-17.79-9-17.68-18.09a17.6,17.6,0,0,1,17.76-17.54C796.57,139.2,805,147.66,804.42,157.1Zm-33.92-.17c0,8.73,7.39,16.4,16.18,16.3s16.22-6.56,16.26-16.16c0-9.41-7.3-16.13-16.13-16.33S770.55,148.18,770.5,156.93Z"/><path class="cls-1" d="M790.33,158.69c.89,2.93,2.87,5.13,4.06,7.95-.41.3-.74.7-1.14.79a1.8,1.8,0,0,1-2-.69c-.78-1.13-1.5-2.3-2.23-3.46-.6-1-1.15-1.94-1.77-2.88a5.22,5.22,0,0,0-1-1.11,2.14,2.14,0,0,0-3.66,1.32c-.17,1.48-.09,3-.15,4.49s-.45,2.17-1.39,2.29-1.72-.61-1.73-2.31q-.06-8.07,0-16.13c0-2,.44-2.43,2.26-2.85a16,16,0,0,1,8.87.49,4.63,4.63,0,0,1,3.42,4.43c.18,2.62,0,5-2.56,6.58A6.43,6.43,0,0,0,790.33,158.69Zm-7.57-3.05a7.55,7.55,0,0,0,5.77.37,3.31,3.31,0,0,0,2.48-3,3.25,3.25,0,0,0-1.47-3.6c-2.12-1.1-4.41-1.78-6.9-.12A17.2,17.2,0,0,0,782.76,155.64Z"/></g></g></svg>