<svg xmlns="http://www.w3.org/2000/svg" viewBox="0 0 582.04 480.03"><defs><style>.cls-1{fill:#fff;}</style></defs><g id="Layer_2" data-name="Layer 2"><g id="Layer_1-2" data-name="Layer 1"><path class="cls-1" d="M409,136.18a39.76,39.76,0,0,1-5.43-10.91l-35.93,31.14H300.54v37.22h81L430.75,151A39.39,39.39,0,0,1,409,136.18Z"/><path class="cls-1" d="M441.26,91.46a22.54,22.54,0,0,1,3.35.26,21.28,21.28,0,1,1-3.35-.26m0-37.22a58.49,58.49,0,0,0-9.11,116.27,59.85,59.85,0,0,0,9.16.72A58.49,58.49,0,0,0,450.43,55a58.83,58.83,0,0,0-9.17-.72Z"/><path class="cls-1" d="M409,398.09a39.41,39.41,0,0,1,21.72-14.83l-49.19-42.63h-81v37.22h67.13L403.6,409A39.56,39.56,0,0,1,409,398.09Z"/><path class="cls-1" d="M441.31,400.26a21.26,21.26,0,1,1-3.35.26,22.54,22.54,0,0,1,3.35-.26m0-37.22h0a58.5,58.5,0,0,0-.05,117,59.85,59.85,0,0,0,9.16-.72A58.49,58.49,0,0,0,441.31,363Z"/><path class="cls-1" d="M484.16,261.14a39.9,39.9,0,0,1,4.28-12.62H300.54v37.22H488.29A39.44,39.44,0,0,1,484.16,261.14Z"/><path class="cls-1" d="M523.51,246.11a22.34,22.34,0,0,1,3.35.26,21.27,21.27,0,0,1-3.3,42.28,21.06,21.06,0,0,1-3.34-.26,21.27,21.27,0,0,1,3.29-42.28m0-37.22a58.51,58.51,0,1,0,9.17.72,58.2,58.2,0,0,0-9.17-.72Z"/><path class="cls-1" d="M218.08,476.17a101.24,101.24,0,0,1-100.51-90.23C51.17,377,0,320.15,0,251.56A136.26,136.26,0,0,1,56.67,141.32c-.25-3.31-.38-6.62-.38-9.89C56.29,59,115.25,0,187.72,0S319.15,59,319.15,131.43V375.1A101.18,101.18,0,0,1,218.08,476.17ZM187.72,37.22A94.11,94.11,0,0,0,94.9,147.44l2.16,12.68L86,166.63A98.38,98.38,0,0,0,135.61,350h20.17l-1.33,20.1c-.14,1.67-.23,3.34-.23,5.05a63.86,63.86,0,0,0,127.71,0V131.43A94.31,94.31,0,0,0,187.72,37.22Z"/><path class="cls-1" d="M254.19,352.82A103.27,103.27,0,0,1,185,311.18a106.18,106.18,0,0,1-6.61-10.27l25.92-14.64a76.66,76.66,0,0,0,4.74,7.35,73.76,73.76,0,0,0,49.4,29.73Z"/><path class="cls-1" d="M199.9,397.54l-18.55-23.31a65.57,65.57,0,0,0,5.66-5.07,64,64,0,0,0,18.72-46.46l29.78-.46a93.61,93.61,0,0,1-27.37,67.9A97.07,97.07,0,0,1,199.9,397.54Z"/><path class="cls-1" d="M173.6,259.69a130.23,130.23,0,0,1-115-129.4C58.58,58.45,117,0,188.87,0S319.15,58.45,319.15,130.29H281.93a93.06,93.06,0,1,0-104,92.43Z"/></g></g></svg>