<svg xmlns="http://www.w3.org/2000/svg" viewBox="0 0 75 64.93"><defs><style>.cls-1{fill:#fff;}</style></defs><g id="Layer_2" data-name="Layer 2"><g id="Layer_1-2" data-name="Layer 1"><path class="cls-1" d="M28.13,27.16H9A9,9,0,0,1,7.23,9.37,11.69,11.69,0,0,1,27.85,4.43a11.37,11.37,0,1,1,.28,22.73ZM9,14.2a4,4,0,0,0,0,8H28.13A6.37,6.37,0,1,0,27.05,9.52l-1.71.29-.87-1.49A6.69,6.69,0,0,0,12,11.7v2.7l-2.71-.19Z"/><path class="cls-1" d="M63.63,46H44.48a9,9,0,0,1-1.76-17.79,11.7,11.7,0,0,1,20.63-4.94h.28a11.37,11.37,0,1,1,0,22.73Zm-19.15-13a4,4,0,0,0,0,8H63.63A6.37,6.37,0,1,0,62.55,28.4l-1.71.3L60,27.2a6.7,6.7,0,0,0-12.48,3.31V33.3l-2.69-.21Z"/><path class="cls-1" d="M28.13,64.93H9A9,9,0,0,1,7.23,47.14,11.69,11.69,0,0,1,27.85,42.2a11.37,11.37,0,1,1,.28,22.73ZM9,52a4,4,0,0,0,0,8H28.13a6.37,6.37,0,1,0-1.08-12.64l-1.71.29-.87-1.49A6.69,6.69,0,0,0,12,49.46v2.71L9.3,52Z"/><rect class="cls-1" x="19.09" y="26.66" width="5" height="13.61"/><polygon class="cls-1" points="56.5 21.74 51.5 21.74 51.5 14.08 36.72 14.08 36.72 9.08 56.5 9.08 56.5 21.74"/><polygon class="cls-1" points="56.5 57.09 36.72 57.09 36.72 52.09 51.5 52.09 51.5 44.44 56.5 44.44 56.5 57.09"/></g></g></svg>