<svg xmlns="http://www.w3.org/2000/svg" xmlns:xlink="http://www.w3.org/1999/xlink" viewBox="0 0 847.14 724.41"><defs><style>.cls-1,.cls-10,.cls-11,.cls-12,.cls-13,.cls-14,.cls-15,.cls-2,.cls-3,.cls-4,.cls-5,.cls-6,.cls-7,.cls-8,.cls-9{opacity:0.15;}.cls-1{fill:url(#linear-gradient);}.cls-2{fill:url(#linear-gradient-2);}.cls-3{fill:url(#linear-gradient-3);}.cls-4{fill:url(#linear-gradient-4);}.cls-5{fill:url(#linear-gradient-5);}.cls-6{fill:url(#linear-gradient-6);}.cls-7{fill:url(#linear-gradient-7);}.cls-8{fill:url(#linear-gradient-8);}.cls-9{fill:url(#linear-gradient-9);}.cls-10{fill:url(#linear-gradient-10);}.cls-11{fill:url(#linear-gradient-11);}.cls-12{fill:url(#linear-gradient-12);}.cls-13{fill:url(#linear-gradient-13);}.cls-14{fill:url(#linear-gradient-14);}.cls-15{fill:url(#linear-gradient-15);}.cls-16,.cls-17{fill:none;stroke-miterlimit:10;stroke-width:5px;}.cls-16{stroke:#c9c9c9;}.cls-17{stroke:#a6da78;}.cls-18{fill:#005770;}.cls-19{fill:#00576f;}.cls-20{fill:url(#linear-gradient-16);}</style><linearGradient id="linear-gradient" x1="688.27" y1="367.81" x2="222.59" y2="496.11" gradientUnits="userSpaceOnUse"><stop offset="0" stop-color="gray"/><stop offset="1" stop-color="#eee"/></linearGradient><linearGradient id="linear-gradient-2" x1="3145.59" y1="441.26" x2="3472.35" y2="-114.93" gradientTransform="translate(-3068.91 318.44)" xlink:href="#linear-gradient"/><linearGradient id="linear-gradient-3" x1="3752.48" y1="-188.94" x2="4079.23" y2="-745.12" gradientTransform="translate(-3068.91 318.44)" xlink:href="#linear-gradient"/><linearGradient id="linear-gradient-4" x1="3709.59" y1="-214.14" x2="4036.35" y2="-770.32" gradientTransform="translate(-3068.91 318.44)" xlink:href="#linear-gradient"/><linearGradient id="linear-gradient-5" x1="3838.66" y1="-188.94" x2="4165.42" y2="-745.12" gradientTransform="translate(-3068.91 318.44)" xlink:href="#linear-gradient"/><linearGradient id="linear-gradient-6" x1="3795.77" y1="-214.14" x2="4122.53" y2="-770.32" gradientTransform="translate(-3068.91 318.44)" xlink:href="#linear-gradient"/><linearGradient id="linear-gradient-7" x1="3059.81" y1="390.86" x2="3386.57" y2="-165.32" gradientTransform="translate(-3068.91 318.44)" xlink:href="#linear-gradient"/><linearGradient id="linear-gradient-8" x1="11458.4" y1="9714.55" x2="11785.16" y2="9158.36" gradientTransform="translate(11507.2 9984.05) rotate(180)" xlink:href="#linear-gradient"/><linearGradient id="linear-gradient-9" x1="11391.41" y1="9675.19" x2="11718.17" y2="9119.01" gradientTransform="translate(11507.2 9984.05) rotate(180)" xlink:href="#linear-gradient"/><linearGradient id="linear-gradient-10" x1="11415.51" y1="9689.35" x2="11742.27" y2="9133.17" gradientTransform="translate(11507.2 9984.05) rotate(180)" xlink:href="#linear-gradient"/><linearGradient id="linear-gradient-11" x1="11348.52" y1="9649.99" x2="11675.28" y2="9093.81" gradientTransform="translate(11507.2 9984.05) rotate(180)" xlink:href="#linear-gradient"/><linearGradient id="linear-gradient-12" x1="11372.62" y1="9664.15" x2="11699.38" y2="9107.97" gradientTransform="translate(11507.2 9984.05) rotate(180)" xlink:href="#linear-gradient"/><linearGradient id="linear-gradient-13" x1="3520.68" y1="-526.16" x2="3847.43" y2="-1082.34" gradientTransform="translate(785.13 4070.2) rotate(-90)" xlink:href="#linear-gradient"/><linearGradient id="linear-gradient-14" x1="3453.68" y1="-565.52" x2="3780.44" y2="-1121.7" gradientTransform="translate(785.13 4070.2) rotate(-90)" xlink:href="#linear-gradient"/><linearGradient id="linear-gradient-15" x1="3410.79" y1="-590.72" x2="3737.55" y2="-1146.9" gradientTransform="translate(785.13 4070.2) rotate(-90)" xlink:href="#linear-gradient"/><linearGradient id="linear-gradient-16" x1="224" y1="346.06" x2="621.34" y2="346.06" gradientUnits="userSpaceOnUse"><stop offset="0" stop-color="#00576f"/><stop offset="1" stop-color="#88cb77"/></linearGradient></defs><g id="Layer_2" data-name="Layer 2"><g id="Layer_1-2" data-name="Layer 1"><rect class="cls-1" x="280.52" y="154.87" width="566.62" height="494.45" rx="118.13"/><path class="cls-2" d="M121.39,689.68h0a145.07,145.07,0,0,0-27.17,0h0a3.83,3.83,0,0,0-3.47,3.46h0a145.07,145.07,0,0,0,0,27.17h0a3.84,3.84,0,0,0,3.47,3.47h0a145.07,145.07,0,0,0,27.17,0h0a3.84,3.84,0,0,0,3.46-3.47h0a145.07,145.07,0,0,0,0-27.17h0A3.83,3.83,0,0,0,121.39,689.68Z"/><path class="cls-3" d="M705.15,98.84h0a145.07,145.07,0,0,0-27.17,0h0a3.85,3.85,0,0,0-3.47,3.46h0a146.79,146.79,0,0,0,0,27.17h0a3.85,3.85,0,0,0,3.47,3.47h0a145.07,145.07,0,0,0,27.17,0h0a3.85,3.85,0,0,0,3.47-3.47h0a146.79,146.79,0,0,0,0-27.17h0A3.85,3.85,0,0,0,705.15,98.84Z"/><path class="cls-4" d="M705.15.64h0A145.07,145.07,0,0,0,678,.64h0a3.84,3.84,0,0,0-3.47,3.46h0a146.79,146.79,0,0,0,0,27.17h0A3.85,3.85,0,0,0,678,34.74h0a145.07,145.07,0,0,0,27.17,0h0a3.85,3.85,0,0,0,3.47-3.47h0a146.79,146.79,0,0,0,0-27.17h0A3.84,3.84,0,0,0,705.15.64Z"/><path class="cls-5" d="M791.33,98.84h0a145.07,145.07,0,0,0-27.17,0h0a3.84,3.84,0,0,0-3.46,3.46h0a145.07,145.07,0,0,0,0,27.17h0a3.84,3.84,0,0,0,3.46,3.47h0a145.07,145.07,0,0,0,27.17,0h0a3.84,3.84,0,0,0,3.47-3.47h0a145.07,145.07,0,0,0,0-27.17h0A3.84,3.84,0,0,0,791.33,98.84Z"/><path class="cls-6" d="M791.33.64h0a145.07,145.07,0,0,0-27.17,0h0A3.83,3.83,0,0,0,760.7,4.1h0a145.07,145.07,0,0,0,0,27.17h0a3.84,3.84,0,0,0,3.46,3.47h0a145.07,145.07,0,0,0,27.17,0h0a3.84,3.84,0,0,0,3.47-3.47h0a145.07,145.07,0,0,0,0-27.17h0A3.83,3.83,0,0,0,791.33.64Z"/><path class="cls-7" d="M121.39,493.27h0a146.79,146.79,0,0,0-27.17,0h0a3.85,3.85,0,0,0-3.47,3.47h0a145.07,145.07,0,0,0,0,27.17h0a3.85,3.85,0,0,0,3.47,3.47h0a146.79,146.79,0,0,0,27.17,0h0a3.85,3.85,0,0,0,3.46-3.47h0a145.07,145.07,0,0,0,0-27.17h0A3.85,3.85,0,0,0,121.39,493.27Z"/><path class="cls-8" d="M4.1,339.52h0a145.07,145.07,0,0,0,27.17,0h0a3.84,3.84,0,0,0,3.47-3.47h0a145.07,145.07,0,0,0,0-27.17h0a3.84,3.84,0,0,0-3.47-3.46h0a145.07,145.07,0,0,0-27.17,0h0a3.83,3.83,0,0,0-3.46,3.46h0a145.07,145.07,0,0,0,0,27.17h0A3.83,3.83,0,0,0,4.1,339.52Z"/><path class="cls-9" d="M94.22,339.52h0a145.07,145.07,0,0,0,27.17,0h0a3.84,3.84,0,0,0,3.46-3.47h0a145.07,145.07,0,0,0,0-27.17h0a3.84,3.84,0,0,0-3.46-3.46h0a145.07,145.07,0,0,0-27.17,0h0a3.84,3.84,0,0,0-3.47,3.46h0a145.07,145.07,0,0,0,0,27.17h0A3.84,3.84,0,0,0,94.22,339.52Z"/><path class="cls-10" d="M4.1,437.72h0a145.07,145.07,0,0,0,27.17,0h0a3.84,3.84,0,0,0,3.47-3.47h0a145,145,0,0,0,0-27.16h0a3.84,3.84,0,0,0-3.47-3.47h0a145.07,145.07,0,0,0-27.17,0h0a3.83,3.83,0,0,0-3.46,3.47h0a145,145,0,0,0,0,27.16h0A3.83,3.83,0,0,0,4.1,437.72Z"/><path class="cls-11" d="M94.22,437.72h0a145.07,145.07,0,0,0,27.17,0h0a3.84,3.84,0,0,0,3.46-3.47h0a145,145,0,0,0,0-27.16h0a3.84,3.84,0,0,0-3.46-3.47h0a145.07,145.07,0,0,0-27.17,0h0a3.84,3.84,0,0,0-3.47,3.47h0a145,145,0,0,0,0,27.16h0A3.84,3.84,0,0,0,94.22,437.72Z"/><path class="cls-12" d="M4.1,535.92h0a145.07,145.07,0,0,0,27.17,0h0a3.84,3.84,0,0,0,3.47-3.46h0a145.07,145.07,0,0,0,0-27.17h0a3.84,3.84,0,0,0-3.47-3.47h0a145.07,145.07,0,0,0-27.17,0h0a3.83,3.83,0,0,0-3.46,3.47h0a145.07,145.07,0,0,0,0,27.17h0A3.83,3.83,0,0,0,4.1,535.92Z"/><path class="cls-13" d="M189,504.83h0A145.07,145.07,0,0,0,189,532h0a3.84,3.84,0,0,0,3.47,3.46h0a145.07,145.07,0,0,0,27.17,0h0a3.83,3.83,0,0,0,3.46-3.46h0a145.07,145.07,0,0,0,0-27.17h0a3.83,3.83,0,0,0-3.46-3.47h0a145.07,145.07,0,0,0-27.17,0h0A3.84,3.84,0,0,0,189,504.83Z"/><path class="cls-14" d="M189,594.94h0a145.07,145.07,0,0,0,0,27.17h0a3.85,3.85,0,0,0,3.47,3.47h0a145.07,145.07,0,0,0,27.17,0h0a3.84,3.84,0,0,0,3.46-3.47h0a145.07,145.07,0,0,0,0-27.17h0a3.82,3.82,0,0,0-3.46-3.46h0a145.07,145.07,0,0,0-27.17,0h0A3.83,3.83,0,0,0,189,594.94Z"/><path class="cls-15" d="M90.75,594.94h0a145.07,145.07,0,0,0,0,27.17h0a3.85,3.85,0,0,0,3.47,3.47h0a145.07,145.07,0,0,0,27.17,0h0a3.85,3.85,0,0,0,3.46-3.47h0a145.07,145.07,0,0,0,0-27.17h0a3.83,3.83,0,0,0-3.46-3.46h0a145.07,145.07,0,0,0-27.17,0h0A3.83,3.83,0,0,0,90.75,594.94Z"/><polyline class="cls-16" points="133.13 130.58 133.13 17.69 278.87 17.69"/><line class="cls-17" x1="187.1" y1="72.36" x2="249.84" y2="72.36"/><polyline class="cls-16" points="508.35 654.38 700.75 654.38 700.75 590.84"/><line class="cls-17" x1="566.56" y1="608.13" x2="647.93" y2="608.13"/><path class="cls-18" d="M500.44,235.58l27.3-3.77-3.64-26.36a63.44,63.44,0,0,0,30-23.34l24.66,10,10.39-25.53-24.69-10.05a63.53,63.53,0,0,0-5.17-37.65l21-16.34L563.43,80.81l-21,16.34a63.39,63.39,0,0,0-35.21-14.31l-3.65-26.41-27.3,3.77,3.64,26.37a63.27,63.27,0,0,0-30,23.34l-24.66-10L414.8,125.41l24.69,10a63.48,63.48,0,0,0,5.18,37.66l-21,16.34,16.91,21.76,21-16.34a63.46,63.46,0,0,0,35.21,14.31ZM473.68,168A35.85,35.85,0,1,1,524,174.32,35.91,35.91,0,0,1,473.68,168Z"/><path class="cls-18" d="M638.24,279.16a48.9,48.9,0,0,0,3-14.6l20.32-3.46-3.59-21-20.34,3.47a49.17,49.17,0,0,0-18.78-22.66L626,201.53l-20-7.41-7.17,19.34a49.1,49.1,0,0,0-29,5l-13.18-15.88-16.42,13.62L553.37,232a49,49,0,0,0-10.23,27.62l-20.32,3.46,3.59,21,20.35-3.47a49,49,0,0,0,18.78,22.66l-7.16,19.34,20,7.41,7.16-19.33a49.09,49.09,0,0,0,29-5l13.18,15.89,16.42-13.63L631,292.19A49,49,0,0,0,638.24,279.16Zm-55.7,9a27.76,27.76,0,1,1,35.68-16.39A27.79,27.79,0,0,1,582.54,288.14Z"/><circle class="cls-19" cx="538.88" cy="351.31" r="22.68"/><circle class="cls-19" cx="538.88" cy="480.23" r="22.68"/><rect class="cls-19" x="305.72" y="203.58" width="43.82" height="37.98"/><rect class="cls-19" x="370.48" y="203.58" width="43.82" height="37.98"/><rect class="cls-19" x="305.72" y="332.32" width="43.82" height="37.98"/><rect class="cls-19" x="370.48" y="332.32" width="43.82" height="37.98"/><rect class="cls-19" x="305.72" y="461.24" width="43.82" height="37.98"/><rect class="cls-19" x="370.48" y="461.24" width="43.82" height="37.98"/><path class="cls-20" d="M577.52,349.43v44.38H267.82v-85H486.2V265H267.82V174.73h136.4V130.91H224v430.3H621.34V349.43Zm-309.7,168V437.64h309.7v79.75Z"/></g></g></svg>