<svg id="Layer_1" data-name="Layer 1" xmlns="http://www.w3.org/2000/svg" xmlns:xlink="http://www.w3.org/1999/xlink" viewBox="0 0 855.44 900.5"><defs><style>.cls-1{opacity:0.15;fill:url(#linear-gradient);}.cls-2{fill:url(#linear-gradient-2);}.cls-3{fill:#075870;}.cls-4{fill:none;stroke:#e3e3e3;stroke-miterlimit:10;stroke-width:5px;}</style><linearGradient id="linear-gradient" x1="60.1" y1="535.45" x2="718.53" y2="535.45" gradientUnits="userSpaceOnUse"><stop offset="0" stop-color="#818181"/><stop offset="1" stop-color="#f0efef"/></linearGradient><linearGradient id="linear-gradient-2" x1="339.18" y1="362.85" x2="718.53" y2="362.85" gradientUnits="userSpaceOnUse"><stop offset="0" stop-color="#075870"/><stop offset="1" stop-color="#a8d279"/></linearGradient></defs><path class="cls-1" d="M639.5,604.75V415.34H457.25c-5.89-58.5-56.46-104.17-116.88-101.85a116.69,116.69,0,0,0-206.93,50,89,89,0,0,0,15.69,176.67h16v189H302.94v73.44H718.53V604.75Z"/><path class="cls-2" d="M657.48,402.77V287.35H567A65.31,65.31,0,0,0,500.65,235a67.23,67.23,0,0,0-119.22,28.79,51.27,51.27,0,0,0,2.72,101.36V468.05h94.93v48.73H718.53v-114Zm-291.9-88.51a24.91,24.91,0,0,1,24.89-24.89c.68,0,1.34,0,2,.09l14.22,1.1V275.81a40.84,40.84,0,0,1,76.09-20.25l4.61,7.88,9-1.54A38.9,38.9,0,1,1,503,339.14H390.47A24.91,24.91,0,0,1,365.58,314.26Zm45,127.39v-76.1H503a65.42,65.42,0,0,0,63.89-51.8h64.17v89h-152v38.88Zm281.57,48.72H505.49V429.18H692.12Z"/><circle class="cls-3" cx="658.2" cy="460.13" r="15.34"/><rect class="cls-3" x="522.97" y="448.69" width="26.41" height="22.89"/><rect class="cls-3" x="567.29" y="448.69" width="26.41" height="22.89"/><path class="cls-4" d="M837.58,381.39c0,170.51-138.22,308.73-308.73,308.73"/><path class="cls-4" d="M220.12,381.39c0-170.51,138.22-308.73,308.73-308.73"/></svg>