<svg xmlns="http://www.w3.org/2000/svg" xmlns:xlink="http://www.w3.org/1999/xlink" width="477.5" height="402.5" viewBox="0 0 477.5 402.5">
  <defs>
    <linearGradient id="linear-gradient" x1="-0.029" y1="0.493" x2="1.064" y2="0.529" gradientUnits="objectBoundingBox">
      <stop offset="0" stop-color="gray"/>
      <stop offset="1" stop-color="#efefef"/>
    </linearGradient>
    <linearGradient id="linear-gradient-2" y1="0.5" x2="1" y2="0.5" gradientUnits="objectBoundingBox">
      <stop offset="0" stop-color="#00576f"/>
      <stop offset="1" stop-color="#88cb77"/>
    </linearGradient>
  </defs>
  <g id="Group_1233" data-name="Group 1233" transform="translate(-51.058 -5921.227)">
    <path id="Path_1192" data-name="Path 1192" d="M191.633,6051.3h0a64.832,64.832,0,0,0-54.516-29.744H118.4a64.834,64.834,0,0,0-55.254,30.917l-5.5,8.958a44.608,44.608,0,0,0-6.591,23.335v146.123A44.608,44.608,0,0,0,95.667,6275.5h263.45a44.608,44.608,0,0,0,44.608-44.608V6116.378a44.608,44.608,0,0,0-44.608-44.609H229.143A44.608,44.608,0,0,1,191.633,6051.3Z" transform="translate(0 -44.025)" opacity="0.2" fill="url(#linear-gradient)"/>
    <rect id="Rectangle_538" data-name="Rectangle 538" width="28.458" height="28.458" transform="translate(175.662 6172.994)" fill="#a6da78"/>
    <rect id="Rectangle_539" data-name="Rectangle 539" width="28.458" height="28.458" transform="translate(411.572 5928.66)" fill="#00576f"/>
    <path id="Path_1195" data-name="Path 1195" d="M518.594,6184.02l-27.744-27.744,12.08-12.08,15.664,15.664,24.914-24.914,12.08,12.08Z" transform="translate(-161.086 -93.201)" fill="#00576f"/>
    <path id="Path_1196" data-name="Path 1196" d="M578.489,6167.124H329.751V6022.608l17.779-28.965a21.966,21.966,0,0,1,18.6-10.409h44.677a21.739,21.739,0,0,1,18.354,10.013l14.782,22.967H578.489ZM346.835,6150.04H561.4V6033.3H434.624l-19.828-30.8a4.721,4.721,0,0,0-3.987-2.175H366.131a4.772,4.772,0,0,0-4.04,2.26l-15.256,24.854Z" transform="translate(-96.429 -27.524)" fill="url(#linear-gradient-2)"/>
    <g id="Group_1232" data-name="Group 1232" transform="translate(118.892 6200.298)" opacity="0.145">
      <path id="Path_1199" data-name="Path 1199" d="M273.025,6505.2h0a84.409,84.409,0,0,1,0,15.777h0a2.232,2.232,0,0,1-2.013,2.014h0a84.482,84.482,0,0,1-15.778,0h0a2.231,2.231,0,0,1-2.013-2.014h0a84.4,84.4,0,0,1,0-15.777h0a2.232,2.232,0,0,1,2.013-2.014h0a84.482,84.482,0,0,1,15.778,0h0A2.232,2.232,0,0,1,273.025,6505.2Z" transform="translate(-195.769 -6450.486)" fill="#707070"/>
      <path id="Path_1200" data-name="Path 1200" d="M373.165,6413.305h0a84.409,84.409,0,0,1,0,15.778h0a2.231,2.231,0,0,1-2.013,2.013h0a84.4,84.4,0,0,1-15.778,0h0a2.231,2.231,0,0,1-2.013-2.013h0a84.409,84.409,0,0,1,0-15.778h0a2.231,2.231,0,0,1,2.013-2.013h0a84.4,84.4,0,0,1,15.778,0h0A2.231,2.231,0,0,1,373.165,6413.305Z" transform="translate(-238.882 -6410.923)" fill="#707070"/>
      <path id="Path_1201" data-name="Path 1201" d="M153.081,6429.083h0a84.414,84.414,0,0,1,0-15.778h0a2.231,2.231,0,0,1,2.013-2.013h0a84.4,84.4,0,0,1,15.778,0h0a2.231,2.231,0,0,1,2.013,2.013h0a84.409,84.409,0,0,1,0,15.778h0a2.231,2.231,0,0,1-2.013,2.013h0a84.4,84.4,0,0,1-15.778,0h0A2.231,2.231,0,0,1,153.081,6429.083Z" transform="translate(-152.656 -6410.923)" fill="#707070"/>
      <path id="Path_1202" data-name="Path 1202" d="M153.081,6520.977h0a84.409,84.409,0,0,1,0-15.777h0a2.232,2.232,0,0,1,2.013-2.014h0a84.488,84.488,0,0,1,15.778,0h0a2.232,2.232,0,0,1,2.013,2.014h0a84.4,84.4,0,0,1,0,15.777h0a2.232,2.232,0,0,1-2.013,2.014h0a84.488,84.488,0,0,1-15.778,0h0A2.232,2.232,0,0,1,153.081,6520.977Z" transform="translate(-152.656 -6450.486)" fill="#707070"/>
      <path id="Path_1203" data-name="Path 1203" d="M373.263,6593.974h0a84.414,84.414,0,0,1,0,15.778h0a2.232,2.232,0,0,1-2.013,2.013h0a84.482,84.482,0,0,1-15.778,0h0a2.232,2.232,0,0,1-2.013-2.013h0a84.419,84.419,0,0,1,0-15.778h0a2.231,2.231,0,0,1,2.013-2.013h0a84.4,84.4,0,0,1,15.778,0h0A2.231,2.231,0,0,1,373.263,6593.974Z" transform="translate(-238.924 -6488.706)" fill="#707070"/>
      <path id="Path_1204" data-name="Path 1204" d="M152.984,6609.752h0a84.414,84.414,0,0,1,0-15.778h0a2.23,2.23,0,0,1,2.013-2.013h0a84.4,84.4,0,0,1,15.778,0h0a2.231,2.231,0,0,1,2.013,2.013h0a84.417,84.417,0,0,1,0,15.778h0a2.232,2.232,0,0,1-2.013,2.013h0a84.482,84.482,0,0,1-15.778,0h0A2.231,2.231,0,0,1,152.984,6609.752Z" transform="translate(-152.614 -6488.706)" fill="#707070"/>
      <path id="Path_1205" data-name="Path 1205" d="M553.741,6517.857h0a84.414,84.414,0,0,1,0-15.777h0a2.231,2.231,0,0,1,2.013-2.013h0a84.4,84.4,0,0,1,15.778,0h0a2.231,2.231,0,0,1,2.013,2.013h0a84.414,84.414,0,0,1,0,15.777h0a2.232,2.232,0,0,1-2.013,2.014h0a84.565,84.565,0,0,1-15.778,0h0A2.232,2.232,0,0,1,553.741,6517.857Z" transform="translate(-325.151 -6449.143)" fill="#707070"/>
      <path id="Path_1206" data-name="Path 1206" d="M453.6,6609.752h0a84.424,84.424,0,0,1,0-15.778h0a2.231,2.231,0,0,1,2.013-2.013h0a84.4,84.4,0,0,1,15.778,0h0a2.231,2.231,0,0,1,2.013,2.013h0a84.414,84.414,0,0,1,0,15.778h0a2.232,2.232,0,0,1-2.013,2.013h0a84.482,84.482,0,0,1-15.778,0h0A2.232,2.232,0,0,1,453.6,6609.752Z" transform="translate(-282.037 -6488.706)" fill="#707070"/>
      <path id="Path_1207" data-name="Path 1207" d="M453.6,6517.857h0a84.414,84.414,0,0,1,0-15.777h0a2.231,2.231,0,0,1,2.013-2.013h0a84.4,84.4,0,0,1,15.778,0h0a2.231,2.231,0,0,1,2.013,2.013h0a84.4,84.4,0,0,1,0,15.777h0a2.232,2.232,0,0,1-2.013,2.014h0a84.565,84.565,0,0,1-15.778,0h0A2.232,2.232,0,0,1,453.6,6517.857Z" transform="translate(-282.037 -6449.143)" fill="#707070"/>
      <path id="Path_1208" data-name="Path 1208" d="M353.459,6517.857h0a84.409,84.409,0,0,1,0-15.777h0a2.231,2.231,0,0,1,2.013-2.013h0a84.4,84.4,0,0,1,15.778,0h0a2.231,2.231,0,0,1,2.013,2.013h0a84.4,84.4,0,0,1,0,15.777h0a2.232,2.232,0,0,1-2.013,2.014h0a84.565,84.565,0,0,1-15.778,0h0A2.233,2.233,0,0,1,353.459,6517.857Z" transform="translate(-238.924 -6449.143)" fill="#707070"/>
      <path id="Path_1209" data-name="Path 1209" d="M253.319,6609.752h0a84.417,84.417,0,0,1,0-15.778h0a2.231,2.231,0,0,1,2.013-2.013h0a84.4,84.4,0,0,1,15.778,0h0a2.231,2.231,0,0,1,2.013,2.013h0a84.414,84.414,0,0,1,0,15.778h0a2.232,2.232,0,0,1-2.013,2.013h0a84.488,84.488,0,0,1-15.778,0h0A2.232,2.232,0,0,1,253.319,6609.752Z" transform="translate(-195.811 -6488.706)" fill="#707070"/>
    </g>
    <rect id="Rectangle_547" data-name="Rectangle 547" width="46.458" height="46.458" transform="translate(242.662 6164.016)" fill="none" stroke="#00576f" stroke-width="5"/>
    <rect id="Rectangle_548" data-name="Rectangle 548" width="16.458" height="16.458" transform="translate(470.662 5935.37)" fill="none" stroke="#58b871" stroke-width="5"/>
    <path id="Path_1220" data-name="Path 1220" d="M471.126,6178.523h51v-51.795" transform="translate(3.932 1.423)" fill="none" stroke="#55ba71" stroke-width="5"/>
    <path id="Path_1221" data-name="Path 1221" d="M0,51.795H51.574V0" transform="translate(252.7 5975.521) rotate(180)" fill="none" stroke="#c9c9c9" stroke-width="5"/>
  </g>
</svg>
