<svg xmlns="http://www.w3.org/2000/svg" xmlns:xlink="http://www.w3.org/1999/xlink" width="475" height="400" viewBox="0 0 475 400">
  <defs>
    <linearGradient id="linear-gradient" x1="1" y1="0.565" x2="0.025" y2="0.569" gradientUnits="objectBoundingBox">
      <stop offset="0" stop-color="#fcfcfc"/>
      <stop offset="1" stop-color="#f2f2f2"/>
    </linearGradient>
    <linearGradient id="linear-gradient-2" y1="0.5" x2="1" y2="0.5" gradientUnits="objectBoundingBox">
      <stop offset="0" stop-color="#00576f"/>
      <stop offset="1" stop-color="#89cc77"/>
    </linearGradient>
  </defs>
  <g id="Group_1224" data-name="Group 1224" transform="translate(-87.576 -3655.681)">
    <rect id="Rectangle_534" data-name="Rectangle 534" width="318.068" height="237.277" rx="65" transform="translate(562.576 3938.7) rotate(180)" fill="url(#linear-gradient)"/>
    <g id="Group_1222" data-name="Group 1222" transform="translate(427.707 3994.547)" opacity="0.15">
      <path id="Path_1161" data-name="Path 1161" d="M738.244,4284.881a1.543,1.543,0,0,0,1.454-2.058,29.8,29.8,0,0,0-3.07-6.191,44.677,44.677,0,0,0-6.546-7.9,1.539,1.539,0,0,0-2.126,0,47.348,47.348,0,0,0-6.379,7.9,29.774,29.774,0,0,0-3.07,6.191,1.543,1.543,0,0,0,1.454,2.058Z" transform="translate(-653.427 -4268.305)" fill="#707070"/>
      <path id="Path_1162" data-name="Path 1162" d="M697.291,4367.509a1.544,1.544,0,0,0,1.454-2.058,29.776,29.776,0,0,0-3.07-6.191,44.654,44.654,0,0,0-6.546-7.9,1.54,1.54,0,0,0-2.126,0,47.379,47.379,0,0,0-6.379,7.9,29.8,29.8,0,0,0-3.07,6.191,1.544,1.544,0,0,0,1.454,2.058Z" transform="translate(-634.558 -4306.375)" fill="#707070"/>
      <path id="Path_1163" data-name="Path 1163" d="M617.725,4367.509a1.544,1.544,0,0,0,1.454-2.058,29.775,29.775,0,0,0-3.07-6.191,44.654,44.654,0,0,0-6.546-7.9,1.54,1.54,0,0,0-2.126,0,47.373,47.373,0,0,0-6.379,7.9,29.8,29.8,0,0,0-3.07,6.191,1.544,1.544,0,0,0,1.454,2.058Z" transform="translate(-597.899 -4306.375)" fill="#707070"/>
      <path id="Path_1164" data-name="Path 1164" d="M760.914,4367.509a1.543,1.543,0,0,1-1.454-2.058,29.772,29.772,0,0,1,3.07-6.191,44.657,44.657,0,0,1,6.546-7.9,1.54,1.54,0,0,1,2.126,0,47.4,47.4,0,0,1,6.379,7.9,29.8,29.8,0,0,1,3.07,6.191,1.544,1.544,0,0,1-1.454,2.058Z" transform="translate(-672.295 -4306.375)" fill="#707070"/>
    </g>
    <g id="Group_1223" data-name="Group 1223" transform="translate(87.576 3655.681)" opacity="0.15">
      <path id="Path_1165" data-name="Path 1165" d="M130.071,3738.309a1.544,1.544,0,0,0-1.454,2.058,29.808,29.808,0,0,0,3.07,6.191,44.623,44.623,0,0,0,6.546,7.9,1.539,1.539,0,0,0,2.126,0,47.349,47.349,0,0,0,6.379-7.9,29.753,29.753,0,0,0,3.07-6.191,1.543,1.543,0,0,0-1.454-2.058Z" transform="translate(-106.444 -3693.75)" fill="#707070"/>
      <path id="Path_1166" data-name="Path 1166" d="M171.024,3655.681a1.544,1.544,0,0,0-1.454,2.058,29.81,29.81,0,0,0,3.07,6.191,44.629,44.629,0,0,0,6.546,7.9,1.539,1.539,0,0,0,2.126,0,47.379,47.379,0,0,0,6.379-7.9,29.782,29.782,0,0,0,3.07-6.191,1.543,1.543,0,0,0-1.454-2.058Z" transform="translate(-125.312 -3655.681)" fill="#707070"/>
      <path id="Path_1167" data-name="Path 1167" d="M250.59,3655.681a1.544,1.544,0,0,0-1.454,2.058,29.811,29.811,0,0,0,3.07,6.191,44.632,44.632,0,0,0,6.546,7.9,1.539,1.539,0,0,0,2.126,0,47.381,47.381,0,0,0,6.379-7.9,29.783,29.783,0,0,0,3.07-6.191,1.543,1.543,0,0,0-1.454-2.058Z" transform="translate(-161.971 -3655.681)" fill="#707070"/>
      <path id="Path_1168" data-name="Path 1168" d="M107.4,3655.681a1.543,1.543,0,0,1,1.454,2.058,29.754,29.754,0,0,1-3.07,6.191,44.629,44.629,0,0,1-6.546,7.9,1.539,1.539,0,0,1-2.126,0,47.434,47.434,0,0,1-6.379-7.9,29.774,29.774,0,0,1-3.069-6.191,1.543,1.543,0,0,1,1.454-2.058Z" transform="translate(-87.576 -3655.681)" fill="#707070"/>
    </g>
    <g id="Polygon_1" data-name="Polygon 1" transform="translate(409.575 3780.181) rotate(180)" fill="none">
      <path d="M29,0,58,29H0Z" stroke="none"/>
      <path d="M 29 7.071075439453125 L 12.07107543945312 24 L 45.92892456054688 24 L 29 7.071075439453125 M 29 0 L 58 29 L 0 29 L 29 0 Z" stroke="none" fill="#00576f"/>
    </g>
    <path id="Path_1215" data-name="Path 1215" d="M294.9,3808.236h85.757v96.01" fill="none" stroke="#e3e3e3" stroke-width="5"/>
    <g id="Polygon_2" data-name="Polygon 2" transform="translate(167.897 3971.245)" fill="none">
      <path d="M29,0,58,29H0Z" stroke="none"/>
      <path d="M 29 7.071075439453125 L 12.07107543945312 24 L 45.92892456054688 24 L 29 7.071075439453125 M 29 0 L 58 29 L 0 29 L 29 0 Z" stroke="none" fill="#00576f"/>
    </g>
    <path id="Path_1217" data-name="Path 1217" d="M294.9,3808.236h85.757v96.01" transform="translate(577.473 7751.426) rotate(180)" fill="none" stroke="#e3e3e3" stroke-width="5"/>
    <g id="Group_1221" data-name="Group 1221" transform="translate(276.477 3897.367)">
      <path id="Path_1155" data-name="Path 1155" d="M523.563,4178.787H334.893v-87.1h188.67Zm-172.492-16.178H507.385v-54.747H351.071Z" transform="translate(-334.893 -4091.685)" fill="url(#linear-gradient-2)"/>
      <circle id="Ellipse_287" data-name="Ellipse 287" cx="10.088" cy="10.088" r="10.088" transform="translate(132.338 33.75)" fill="#00576f"/>
      <rect id="Rectangle_532" data-name="Rectangle 532" width="16.178" height="18.531" transform="translate(35.538 34.573)" fill="#00576f"/>
      <rect id="Rectangle_533" data-name="Rectangle 533" width="16.178" height="18.531" transform="translate(71.417 34.573)" fill="#00576f"/>
    </g>
    <path id="Path_1156" data-name="Path 1156" d="M254.88,3922.236H163.758a38.931,38.931,0,0,1-5.065-77.531,51.836,51.836,0,0,1,93.033-22.929c1.056-.067,2.109-.1,3.154-.1a50.281,50.281,0,0,1,0,100.562Zm-91.122-61.681a22.752,22.752,0,0,0,0,45.5H254.88a34.1,34.1,0,1,0-5.793-67.706l-5.514.943-2.828-4.826a35.662,35.662,0,0,0-66.452,17.894c0,.069,0,.138,0,.207v8.746l-8.72-.682C164.881,3860.581,164.286,3860.555,163.758,3860.555Z" transform="translate(-2.164 -64.318)" fill="url(#linear-gradient-2)"/>
    <path id="Polygon_3" data-name="Polygon 3" d="M29,0,58,29H0Z" transform="translate(409.575 3823.181) rotate(180)" fill="#a5da78"/>
    <path id="Polygon_4" data-name="Polygon 4" d="M29,0,58,29H0Z" transform="translate(167.575 3926.182)" fill="#a5da78"/>
  </g>
</svg>
