<svg xmlns="http://www.w3.org/2000/svg" xmlns:xlink="http://www.w3.org/1999/xlink" width="475" height="400" viewBox="0 0 475 400">
  <defs>
    <linearGradient id="linear-gradient" x1="1" y1="0.565" x2="0.025" y2="0.569" gradientUnits="objectBoundingBox">
      <stop offset="0" stop-color="#fcfcfc"/>
      <stop offset="1" stop-color="#f2f2f2"/>
    </linearGradient>
    <linearGradient id="linear-gradient-2" x1="1" x2="0" y2="0.934" gradientUnits="objectBoundingBox">
      <stop offset="0" stop-color="#a7db78"/>
      <stop offset="1" stop-color="#00576f"/>
    </linearGradient>
  </defs>
  <g id="Group_1218" data-name="Group 1218" transform="translate(-4307.58 -671.674)">
    <rect id="Rectangle_535" data-name="Rectangle 535" width="252.068" height="268.277" rx="65" transform="translate(4365.033 693.916)" fill="url(#linear-gradient)"/>
    <g id="Group_1213" data-name="Group 1213" transform="translate(4307.58 1003.955)">
      <g id="Group_1210" data-name="Group 1210" transform="translate(0 48.63)">
        <path id="Path_1117" data-name="Path 1117" d="M4343.087,1387.554h0a78.315,78.315,0,0,1,0-14.662h0a2.072,2.072,0,0,1,1.87-1.87h0a78.448,78.448,0,0,1,14.663,0h0a2.073,2.073,0,0,1,1.87,1.87h0a78.482,78.482,0,0,1,0,14.662h0a2.073,2.073,0,0,1-1.87,1.871h0a78.448,78.448,0,0,1-14.663,0h0A2.072,2.072,0,0,1,4343.087,1387.554Z" transform="translate(-4342.743 -1370.678)" fill="#666" opacity="0.15"/>
      </g>
      <g id="Group_1211" data-name="Group 1211" transform="translate(52.388 0)">
        <path id="Path_1118" data-name="Path 1118" d="M4542.222,1295.66h0a78.4,78.4,0,0,1,0-14.662h0a2.073,2.073,0,0,1,1.871-1.87h0a78.463,78.463,0,0,1,14.662,0h0a2.072,2.072,0,0,1,1.87,1.87h0a78.4,78.4,0,0,1,0,14.662h0a2.071,2.071,0,0,1-1.87,1.87h0a78.443,78.443,0,0,1-14.662,0h0A2.073,2.073,0,0,1,4542.222,1295.66Z" transform="translate(-4488.884 -1278.784)" fill="#666" opacity="0.15"/>
        <path id="Path_1119" data-name="Path 1119" d="M4442.082,1387.554h0a78.482,78.482,0,0,1,0-14.662h0a2.073,2.073,0,0,1,1.87-1.87h0a78.443,78.443,0,0,1,14.662,0h0a2.073,2.073,0,0,1,1.871,1.87h0a78.482,78.482,0,0,1,0,14.662h0a2.073,2.073,0,0,1-1.871,1.871h0a78.443,78.443,0,0,1-14.662,0h0A2.073,2.073,0,0,1,4442.082,1387.554Z" transform="translate(-4441.738 -1322.048)" fill="#666" opacity="0.15"/>
      </g>
      <g id="Group_1212" data-name="Group 1212" transform="translate(105.382 0)">
        <path id="Path_1120" data-name="Path 1120" d="M4660.766,1372.892h0a78.4,78.4,0,0,1,0,14.662h0a2.073,2.073,0,0,1-1.87,1.871h0a78.448,78.448,0,0,1-14.663,0h0a2.073,2.073,0,0,1-1.87-1.871h0a78.482,78.482,0,0,1,0-14.662h0a2.073,2.073,0,0,1,1.87-1.87h0a78.448,78.448,0,0,1,14.663,0h0A2.073,2.073,0,0,1,4660.766,1372.892Z" transform="translate(-4589.025 -1322.048)" fill="#666" opacity="0.15"/>
        <path id="Path_1121" data-name="Path 1121" d="M4560.624,1372.892h0a78.4,78.4,0,0,1,0,14.662h0a2.071,2.071,0,0,1-1.87,1.871h0a78.443,78.443,0,0,1-14.662,0h0a2.073,2.073,0,0,1-1.871-1.871h0a78.4,78.4,0,0,1,0-14.662h0a2.073,2.073,0,0,1,1.871-1.87h0a78.443,78.443,0,0,1,14.662,0h0A2.072,2.072,0,0,1,4560.624,1372.892Z" transform="translate(-4541.878 -1322.048)" fill="#666" opacity="0.15"/>
        <path id="Path_1122" data-name="Path 1122" d="M4660.766,1281h0a78.4,78.4,0,0,1,0,14.662h0a2.073,2.073,0,0,1-1.87,1.87h0a78.448,78.448,0,0,1-14.663,0h0a2.073,2.073,0,0,1-1.87-1.87h0a78.488,78.488,0,0,1,0-14.662h0a2.073,2.073,0,0,1,1.87-1.87h0a78.469,78.469,0,0,1,14.663,0h0A2.073,2.073,0,0,1,4660.766,1281Z" transform="translate(-4589.025 -1278.784)" fill="#666" opacity="0.15"/>
      </g>
    </g>
    <g id="Group_1217" data-name="Group 1217" transform="translate(4520.092 671.674)">
      <g id="Group_1214" data-name="Group 1214" transform="translate(105.988)">
        <path id="Path_1123" data-name="Path 1123" d="M4878.717,688.55h0a78.4,78.4,0,0,1,0-14.662h0a2.073,2.073,0,0,1,1.87-1.87h0a78.448,78.448,0,0,1,14.663,0h0a2.072,2.072,0,0,1,1.87,1.87h0a78.315,78.315,0,0,1,0,14.662h0a2.072,2.072,0,0,1-1.87,1.871h0a78.448,78.448,0,0,1-14.663,0h0A2.073,2.073,0,0,1,4878.717,688.55Z" transform="translate(-4878.373 -671.674)" fill="#666" opacity="0.15"/>
      </g>
      <g id="Group_1215" data-name="Group 1215" transform="translate(212.079)">
        <path id="Path_1124" data-name="Path 1124" d="M5097.6,673.888h0a78.565,78.565,0,0,1,0,14.662h0a2.074,2.074,0,0,1-1.87,1.871h0a78.453,78.453,0,0,1-14.663,0h0a2.073,2.073,0,0,1-1.87-1.871h0a78.4,78.4,0,0,1,0-14.662h0a2.073,2.073,0,0,1,1.87-1.87h0a78.453,78.453,0,0,1,14.663,0h0A2.074,2.074,0,0,1,5097.6,673.888Z" transform="translate(-5078.849 -671.674)" fill="#666" opacity="0.15"/>
      </g>
      <g id="Group_1216" data-name="Group 1216" transform="translate(0)">
        <path id="Path_1125" data-name="Path 1125" d="M4696.838,765.781h0a78.4,78.4,0,0,1,0,14.662h0a2.074,2.074,0,0,1-1.871,1.871h0a78.437,78.437,0,0,1-14.662,0h0a2.073,2.073,0,0,1-1.87-1.871h0a78.4,78.4,0,0,1,0-14.662h0a2.073,2.073,0,0,1,1.87-1.871h0a78.448,78.448,0,0,1,14.662,0h0A2.074,2.074,0,0,1,4696.838,765.781Z" transform="translate(-4678.093 -714.938)" fill="#666" opacity="0.15"/>
        <path id="Path_1126" data-name="Path 1126" d="M4796.979,673.888h0a78.4,78.4,0,0,1,0,14.662h0a2.072,2.072,0,0,1-1.87,1.871h0a78.443,78.443,0,0,1-14.662,0h0a2.073,2.073,0,0,1-1.871-1.871h0a78.482,78.482,0,0,1,0-14.662h0a2.073,2.073,0,0,1,1.871-1.87h0a78.443,78.443,0,0,1,14.662,0h0A2.072,2.072,0,0,1,4796.979,673.888Z" transform="translate(-4725.239 -671.674)" fill="#666" opacity="0.15"/>
        <path id="Path_1127" data-name="Path 1127" d="M4796.979,765.781h0a78.4,78.4,0,0,1,0,14.662h0a2.073,2.073,0,0,1-1.87,1.871h0a78.443,78.443,0,0,1-14.662,0h0a2.074,2.074,0,0,1-1.871-1.871h0a78.482,78.482,0,0,1,0-14.662h0a2.074,2.074,0,0,1,1.871-1.871h0a78.453,78.453,0,0,1,14.662,0h0A2.073,2.073,0,0,1,4796.979,765.781Z" transform="translate(-4725.239 -714.938)" fill="#666" opacity="0.15"/>
        <path id="Path_1128" data-name="Path 1128" d="M4897.119,765.781h0a78.316,78.316,0,0,1,0,14.662h0a2.073,2.073,0,0,1-1.87,1.871h0a78.448,78.448,0,0,1-14.663,0h0a2.074,2.074,0,0,1-1.87-1.871h0a78.4,78.4,0,0,1,0-14.662h0a2.074,2.074,0,0,1,1.87-1.871h0a78.458,78.458,0,0,1,14.663,0h0A2.073,2.073,0,0,1,4897.119,765.781Z" transform="translate(-4772.385 -714.938)" fill="#666" opacity="0.15"/>
        <path id="Path_1129" data-name="Path 1129" d="M4997.261,673.888h0a78.482,78.482,0,0,1,0,14.662h0a2.073,2.073,0,0,1-1.871,1.871h0a78.443,78.443,0,0,1-14.662,0h0a2.072,2.072,0,0,1-1.87-1.871h0a78.4,78.4,0,0,1,0-14.662h0a2.072,2.072,0,0,1,1.87-1.87h0a78.443,78.443,0,0,1,14.662,0h0A2.073,2.073,0,0,1,4997.261,673.888Z" transform="translate(-4819.532 -671.674)" fill="#666" opacity="0.15"/>
      </g>
    </g>
    <path id="Path_1130" data-name="Path 1130" d="M4768.263,980.614V900.688H4569.8v208.025h134.677v-15.876h-118.8v-48.106h63.258v-15.876h-63.258V980.614Zm-182.591-64.05h166.715v48.174H4585.672Z" transform="translate(-61.296 -105.868)" fill="url(#linear-gradient-2)"/>
    <path id="Path_1131" data-name="Path 1131" d="M4842.176,961.306a8.825,8.825,0,1,0,8.825,8.826A8.825,8.825,0,0,0,4842.176,961.306Z" transform="translate(-185.056 -135.139)" fill="#58b871"/>
    <circle id="Ellipse_286" data-name="Ellipse 286" cx="8.825" cy="8.825" r="8.825" transform="translate(4648.295 890.99)" fill="#58b871"/>
    <rect id="Rectangle_525" data-name="Rectangle 525" width="15.876" height="18.03" transform="translate(4578.215 825.977)" fill="#00576f"/>
    <rect id="Rectangle_526" data-name="Rectangle 526" width="15.876" height="18.03" transform="translate(4541.389 890.8)" fill="#00576f"/>
    <rect id="Rectangle_527" data-name="Rectangle 527" width="15.876" height="18.03" transform="translate(4578.215 890.8)" fill="#00576f"/>
    <path id="Path_1132" data-name="Path 1132" d="M4807.646,1143.1h-46.892v46.891l88.142,88.142,46.892-46.891Zm-31.016,33.3,17.429-17.429h7.011l50.831,50.83-24.439,24.44-50.831-50.83Zm62.056,69.067,24.44-24.44,10.21,10.21-24.44,24.439Z" transform="translate(-151.917 -218.95)" fill="#00576f"/>
    <rect id="Rectangle_528" data-name="Rectangle 528" width="32" height="32" transform="translate(4452.908 949.181)" fill="#a6da78"/>
    <rect id="Rectangle_529" data-name="Rectangle 529" width="53.661" height="53.661" transform="translate(4422.615 766.868)" fill="none" stroke="#00576f" stroke-miterlimit="10" stroke-width="5"/>
    <line id="Line_220" data-name="Line 220" x2="39" transform="translate(4743.58 843.471)" fill="none" stroke="#a7db78" stroke-width="5"/>
    <line id="Line_221" data-name="Line 221" x2="39" transform="translate(4743.58 864.631)" fill="none" stroke="#a7db78" stroke-width="5"/>
    <line id="Line_222" data-name="Line 222" x2="39" transform="translate(4743.58 885.791)" fill="none" stroke="#a7db78" stroke-width="5"/>
  </g>
</svg>
