<svg xmlns="http://www.w3.org/2000/svg" xmlns:xlink="http://www.w3.org/1999/xlink" width="475" height="400" viewBox="0 0 475 400">
  <defs>
    <linearGradient id="linear-gradient" x1="0.868" y1="0.663" x2="0.15" y2="0.345" gradientUnits="objectBoundingBox">
      <stop offset="0" stop-color="gray"/>
      <stop offset="1" stop-color="#efefef"/>
    </linearGradient>
    <linearGradient id="linear-gradient-2" x1="0.198" y1="0.935" x2="0.721" y2="0.181" gradientUnits="objectBoundingBox">
      <stop offset="0" stop-color="#00576f"/>
      <stop offset="1" stop-color="#89cc77"/>
    </linearGradient>
    <linearGradient id="linear-gradient-3" x1="0.285" y1="0.811" x2="0.807" y2="0.057" xlink:href="#linear-gradient-2"/>
    <linearGradient id="linear-gradient-4" x1="0.242" y1="0.872" x2="0.765" y2="0.118" xlink:href="#linear-gradient-2"/>
  </defs>
  <g id="Group_1220" data-name="Group 1220" transform="translate(-2529.506 -1820.548)">
    <path id="Path_1133" data-name="Path 1133" d="M2982.078,2025.26h0a56.031,56.031,0,0,1-56.032-56.031h0a48.288,48.288,0,0,0-48.288-48.288h-106.5a48.288,48.288,0,0,0-48.288,48.288v106.5a48.288,48.288,0,0,0,48.288,48.288h0a56.032,56.032,0,0,1,56.032,56.031h0a48.288,48.288,0,0,0,48.288,48.288h106.5a48.288,48.288,0,0,0,48.288-48.288v-106.5A48.288,48.288,0,0,0,2982.078,2025.26Z" transform="translate(-25.86 -7.785)" opacity="0.15" fill="url(#linear-gradient)"/>
    <path id="Path_1134" data-name="Path 1134" d="M3199.486,2010.767l-24.969-24.969,10.872-10.872,14.1,14.1,22.421-22.422,10.872,10.872Z" transform="translate(-269.44 -94.201)" fill="#00576f"/>
    <path id="Path_1136" data-name="Path 1136" d="M2554.474,2283.043l-24.968-24.968,10.872-10.872,14.1,14.1,22.421-22.422,10.872,10.872Z" transform="translate(0 -206.226)" fill="#58ba71"/>
    <g id="Group_1219" data-name="Group 1219" transform="translate(2582.332 1820.548)" opacity="0.146">
      <path id="Path_1142" data-name="Path 1142" d="M3114.994,1880.343a1.467,1.467,0,0,0,1.956,1.382,28.319,28.319,0,0,0,5.884-2.918,42.44,42.44,0,0,0,7.51-6.221,1.464,1.464,0,0,0,0-2.021,44.991,44.991,0,0,0-7.507-6.062,28.291,28.291,0,0,0-5.884-2.918,1.467,1.467,0,0,0-1.956,1.382Z" transform="translate(-2846.754 -1840.512)" fill="#707070"/>
      <path id="Path_1143" data-name="Path 1143" d="M2948.378,1880.343a1.467,1.467,0,0,0,1.957,1.382,28.348,28.348,0,0,0,5.884-2.918,42.443,42.443,0,0,0,7.51-6.221,1.463,1.463,0,0,0,0-2.021,44.991,44.991,0,0,0-7.507-6.062,28.321,28.321,0,0,0-5.884-2.918,1.467,1.467,0,0,0-1.957,1.382Z" transform="translate(-2765.53 -1840.512)" fill="#707070"/>
      <path id="Path_1144" data-name="Path 1144" d="M3032.366,1839.39a1.467,1.467,0,0,0,1.956,1.382,28.322,28.322,0,0,0,5.884-2.918,42.378,42.378,0,0,0,7.51-6.221,1.463,1.463,0,0,0,0-2.021,45.037,45.037,0,0,0-7.507-6.062,28.314,28.314,0,0,0-5.884-2.918,1.467,1.467,0,0,0-1.956,1.382Z" transform="translate(-2806.474 -1820.548)" fill="#707070"/>
      <path id="Path_1145" data-name="Path 1145" d="M3032.366,1903.92a1.466,1.466,0,0,1,1.956-1.382,28.283,28.283,0,0,1,5.884,2.918,42.378,42.378,0,0,1,7.51,6.221,1.463,1.463,0,0,1,0,2.021,45.062,45.062,0,0,1-7.507,6.062,28.308,28.308,0,0,1-5.884,2.918,1.467,1.467,0,0,1-1.956-1.382Z" transform="translate(-2806.474 -1860.477)" fill="#707070"/>
      <path id="Path_1146" data-name="Path 1146" d="M2864.831,1839.39a1.467,1.467,0,0,0,1.956,1.382,28.345,28.345,0,0,0,5.884-2.918,42.428,42.428,0,0,0,7.51-6.221,1.463,1.463,0,0,0,0-2.021,45.014,45.014,0,0,0-7.507-6.062,28.337,28.337,0,0,0-5.884-2.918,1.467,1.467,0,0,0-1.956,1.382Z" transform="translate(-2724.801 -1820.548)" fill="#707070"/>
      <path id="Path_1147" data-name="Path 1147" d="M2864.831,1903.92a1.467,1.467,0,0,1,1.956-1.382,28.306,28.306,0,0,1,5.884,2.918,42.428,42.428,0,0,1,7.51,6.221,1.463,1.463,0,0,1,0,2.021,45.039,45.039,0,0,1-7.507,6.062,28.331,28.331,0,0,1-5.884,2.918,1.467,1.467,0,0,1-1.956-1.382Z" transform="translate(-2724.801 -1860.477)" fill="#707070"/>
      <path id="Path_1148" data-name="Path 1148" d="M2806.2,2452.691a1.467,1.467,0,0,0,1.956,1.382,28.322,28.322,0,0,0,5.884-2.917,42.438,42.438,0,0,0,7.51-6.221,1.463,1.463,0,0,0,0-2.021,45.057,45.057,0,0,0-7.507-6.063,28.322,28.322,0,0,0-5.884-2.917,1.467,1.467,0,0,0-1.956,1.382Z" transform="translate(-2717.217 -2123.374)" fill="#707070"/>
      <path id="Path_1149" data-name="Path 1149" d="M2632.579,2452.691a1.467,1.467,0,0,0,1.956,1.382,28.318,28.318,0,0,0,5.885-2.917,42.42,42.42,0,0,0,7.51-6.221,1.463,1.463,0,0,0,0-2.021,45.07,45.07,0,0,0-7.507-6.063,28.318,28.318,0,0,0-5.885-2.917,1.467,1.467,0,0,0-1.956,1.382Z" transform="translate(-2632.579 -2123.374)" fill="#707070"/>
      <path id="Path_1150" data-name="Path 1150" d="M2723.567,2411.739a1.467,1.467,0,0,0,1.957,1.382,28.3,28.3,0,0,0,5.884-2.917,42.441,42.441,0,0,0,7.51-6.221,1.464,1.464,0,0,0,0-2.021,45.1,45.1,0,0,0-7.507-6.062,28.352,28.352,0,0,0-5.884-2.917,1.467,1.467,0,0,0-1.957,1.382Z" transform="translate(-2676.935 -2103.41)" fill="#707070"/>
      <path id="Path_1151" data-name="Path 1151" d="M2723.567,2476.269a1.467,1.467,0,0,1,1.957-1.382,28.349,28.349,0,0,1,5.884,2.917,42.452,42.452,0,0,1,7.51,6.221,1.463,1.463,0,0,1,0,2.021,45.038,45.038,0,0,1-7.507,6.063,28.327,28.327,0,0,1-5.884,2.917,1.467,1.467,0,0,1-1.957-1.382Z" transform="translate(-2676.935 -2143.339)" fill="#707070"/>
    </g>
    <path id="Path_1152" data-name="Path 1152" d="M4192.423,2340.921l8.876,8.876,14.4-14.4" transform="translate(-1349.661 -241.661)" fill="none" stroke="#a6da78" stroke-miterlimit="10" stroke-width="5"/>
    <g id="Rectangle_540" data-name="Rectangle 540" transform="translate(2926.506 2166.399)" fill="none" stroke="#d1d1d1" stroke-width="5">
      <rect width="22" height="22" stroke="none"/>
      <rect x="2.5" y="2.5" width="17" height="17" fill="none"/>
    </g>
    <g id="Rectangle_541" data-name="Rectangle 541" transform="translate(2595.506 1833.244)" fill="none" stroke="#58ba71" stroke-width="5">
      <rect width="38" height="39" stroke="none"/>
      <rect x="2.5" y="2.5" width="33" height="34" fill="none"/>
    </g>
    <line id="Line_223" data-name="Line 223" x2="43" transform="translate(2884.847 2177.899)" fill="none" stroke="#d1d1d1" stroke-width="5"/>
    <line id="Line_224" data-name="Line 224" x2="52.482" transform="translate(2545.006 1853.443)" fill="none" stroke="#58ba71" stroke-width="5"/>
    <path id="Path_1213" data-name="Path 1213" d="M2680.928,1950.255h177.128v75h-76.029" fill="none" stroke="#00576f" stroke-width="5"/>
    <path id="Path_1214" data-name="Path 1214" d="M2680.928,1950.255h177.128v75h-76.029" transform="translate(5498.983 4050.514) rotate(180)" fill="none" stroke="#00576f" stroke-width="5"/>
    <path id="Path_1139" data-name="Path 1139" d="M2707.026,2052.331h-80.45v-80.449h80.45Zm-63.791-16.658h47.133v-47.132h-47.133Z" transform="translate(-21.084 -61.851)" fill="url(#linear-gradient-2)"/>
    <path id="Path_1140" data-name="Path 1140" d="M3091.5,2347.946h-80.45V2267.5h80.45Zm-63.792-16.658h47.133v-47.133H3027.71Z" transform="translate(-196.878 -207.763)" fill="url(#linear-gradient-3)"/>
    <path id="Path_1141" data-name="Path 1141" d="M2898.958,2200.139h-80.449v-80.45h80.449Zm-63.791-16.659H2882.3v-47.132h-47.133Z" transform="translate(-108.842 -134.807)" fill="url(#linear-gradient-4)"/>
  </g>
</svg>
