<svg id="ekmyt7hkszxo1" xmlns="http://www.w3.org/2000/svg" xmlns:xlink="http://www.w3.org/1999/xlink" viewBox="0 0 800 900" shape-rendering="geometricPrecision" text-rendering="geometricPrecision"><style><![CDATA[#ekmyt7hkszxo3_tr {animation: ekmyt7hkszxo3_tr__tr 7000ms linear infinite normal forwards}@keyframes ekmyt7hkszxo3_tr__tr { 0% {transform: translate(431.691781px,450px) rotate(0deg);animation-timing-function: cubic-bezier(0.420000,0,0.580000,1)} 100% {transform: translate(431.691781px,450px) rotate(360deg)} }#ekmyt7hkszxo4 {
           animation-name: ekmyt7hkszxo4_s_do, ekmyt7hkszxo4_s_da;
           animation-duration: 7000ms;
           animation-fill-mode: forwards;
           animation-timing-function: linear;
           animation-direction: normal;
           animation-iteration-count: infinite;  
        }@keyframes ekmyt7hkszxo4_s_do { 0% {stroke-dashoffset: 483.860000} 50% {stroke-dashoffset: 0} 100% {stroke-dashoffset: 483.860000} }@keyframes ekmyt7hkszxo4_s_da { 0% {stroke-dasharray: 483.860000} 50% {stroke-dasharray: 483.860000} 100% {stroke-dasharray: 483.860000} }#ekmyt7hkszxo5 {
           animation-name: ekmyt7hkszxo5_s_do, ekmyt7hkszxo5_s_da;
           animation-duration: 7000ms;
           animation-fill-mode: forwards;
           animation-timing-function: linear;
           animation-direction: normal;
           animation-iteration-count: infinite;  
        }@keyframes ekmyt7hkszxo5_s_do { 0% {stroke-dashoffset: 483.860000;animation-timing-function: cubic-bezier(0.420000,0,0.580000,1)} 50% {stroke-dashoffset: 0;animation-timing-function: cubic-bezier(0.420000,0,0.580000,1)} 100% {stroke-dashoffset: 483.860000} }@keyframes ekmyt7hkszxo5_s_da { 0% {stroke-dasharray: 483.860000} 50% {stroke-dasharray: 483.860000} 100% {stroke-dasharray: 483.860000} }#ekmyt7hkszxo11 {animation: ekmyt7hkszxo11_c_o 7000ms linear infinite normal forwards}@keyframes ekmyt7hkszxo11_c_o { 0% {opacity: 0;animation-timing-function: cubic-bezier(0.420000,0,0.580000,1)} 50.142857% {opacity: 1;animation-timing-function: cubic-bezier(0.420000,0,0.580000,1)} 100% {opacity: 0} }#ekmyt7hkszxo12 {animation: ekmyt7hkszxo12_c_o 7000ms linear infinite normal forwards}@keyframes ekmyt7hkszxo12_c_o { 0% {opacity: 0} 7.142857% {opacity: 0;animation-timing-function: cubic-bezier(0.420000,0,0.580000,1)} 50.142857% {opacity: 1;animation-timing-function: cubic-bezier(0.420000,0,0.580000,1)} 91.428571% {opacity: 0} 100% {opacity: 0} }#ekmyt7hkszxo13 {animation: ekmyt7hkszxo13_c_o 7000ms linear infinite normal forwards}@keyframes ekmyt7hkszxo13_c_o { 0% {opacity: 0} 14.285714% {opacity: 0;animation-timing-function: cubic-bezier(0.420000,0,0.580000,1)} 50.142857% {opacity: 1;animation-timing-function: cubic-bezier(0.420000,0,0.580000,1)} 85.714286% {opacity: 0} 100% {opacity: 0} }#ekmyt7hkszxo14 {animation: ekmyt7hkszxo14_c_o 7000ms linear infinite normal forwards}@keyframes ekmyt7hkszxo14_c_o { 0% {opacity: 0} 28.571429% {opacity: 0;animation-timing-function: cubic-bezier(0.420000,0,0.580000,1)} 50.142857% {opacity: 1;animation-timing-function: cubic-bezier(0.420000,0,0.580000,1)} 71.428571% {opacity: 0} 100% {opacity: 0} }#ekmyt7hkszxo15 {animation: ekmyt7hkszxo15_c_o 7000ms linear infinite normal forwards}@keyframes ekmyt7hkszxo15_c_o { 0% {opacity: 0} 21.428571% {opacity: 0;animation-timing-function: cubic-bezier(0.420000,0,0.580000,1)} 50.142857% {opacity: 1;animation-timing-function: cubic-bezier(0.420000,0,0.580000,1)} 78.571429% {opacity: 0} 100% {opacity: 0} }]]></style><defs><filter id="ekmyt7hkszxo7-filter" x="-400%" width="600%" y="-400%" height="600%"><feGaussianBlur id="ekmyt7hkszxo7-filter-blur-0" stdDeviation="10,10" result="result"/></filter><linearGradient id="ekmyt7hkszxo7-fill" x1="226.538900" y1="511.770700" x2="687.571200" y2="511.770700" spreadMethod="pad" gradientUnits="userSpaceOnUse"><stop id="ekmyt7hkszxo7-fill-0" offset="0%" stop-color="rgb(128,128,128)"/><stop id="ekmyt7hkszxo7-fill-1" offset="100%" stop-color="rgb(239,239,239)"/></linearGradient><linearGradient id="ekmyt7hkszxo9-fill" x1="485.439500" y1="364.287800" x2="700.301700" y2="364.287800" spreadMethod="pad" gradientUnits="userSpaceOnUse"><stop id="ekmyt7hkszxo9-fill-0" offset="0%" stop-color="rgb(0,87,111)"/><stop id="ekmyt7hkszxo9-fill-1" offset="100%" stop-color="rgb(137,204,119)"/></linearGradient></defs><g id="ekmyt7hkszxo2" transform="matrix(1 0 0 1 -103.97821864000139 80.89875251000001)"/><g id="ekmyt7hkszxo3_tr" transform="translate(431.691781,450) rotate(0)"><g id="ekmyt7hkszxo3" display="none" transform="translate(-535.665009,-386.519989)"><path id="ekmyt7hkszxo4" d="M843.650000,386.520000C843.650000,556.620000,705.760000,694.510000,535.660000,694.510000" fill="none" stroke="rgb(227,227,227)" stroke-width="5" stroke-miterlimit="10" stroke-dashoffset="483.860000" stroke-dasharray="483.860000"/><path id="ekmyt7hkszxo5" d="M227.680000,386.520000C227.680000,216.420000,365.570000,78.530000,535.670000,78.530000" fill="none" stroke="rgb(227,227,227)" stroke-width="5" stroke-miterlimit="10" stroke-dashoffset="483.860000" stroke-dasharray="483.860000"/></g></g><g id="ekmyt7hkszxo6" transform="matrix(1 0 0 1 -168.48753197000082 74.86061550000005)"><path id="ekmyt7hkszxo7" d="M457.100000,249.400000C330,249.400000,227.100000,351.900000,226.600000,479C226.300000,548.400000,256.800000,610.800000,305.100000,653.200000C321,667.200000,333.700000,684.100000,342.800000,702.800000C364,746.500000,408.500000,774,457.100000,774L457.100000,774C505.700000,774,550.300000,746.500000,571.400000,702.800000C580.400000,684.100000,593.100000,667.200000,609.100000,653.200000C657.400000,610.800000,687.900000,548.500000,687.600000,479C687.100000,351.900000,584.200000,249.400000,457.100000,249.400000L457.100000,249.400000Z" transform="matrix(1 0 0 1 102.39230486499983 -71.33214868999971)" opacity="0.15" filter="url(#ekmyt7hkszxo7-filter)" fill="url(#ekmyt7hkszxo7-fill)" stroke="none" stroke-width="1"/><rect id="ekmyt7hkszxo8" width="66.800000" height="25.500000" rx="0" ry="0" transform="matrix(1 0 0 1 559.10000000000002 508.50000000000000)" fill="rgb(0,87,111)" stroke="none" stroke-width="1"/><path id="ekmyt7hkszxo9" d="M668.700000,275.100000C648.400000,254.900000,621.500000,243.800000,592.900000,243.800000C592.900000,243.800000,592.900000,243.800000,592.900000,243.800000C592.900000,243.800000,592.900000,243.800000,592.900000,243.800000L592.900000,243.800000C564.300000,243.800000,537.300000,254.900000,517.100000,275.100000C496.800000,295.300000,485.600000,322.200000,485.500000,350.800000C485.400000,381.900000,498.700000,411.500000,522.100000,432C533.400000,441.900000,539.900000,456.500000,539.900000,472.100000L539.900000,484.800000L645.900000,484.800000L645.900000,472.100000C645.900000,456.600000,652.400000,442,663.700000,432C687.100000,411.500000,700.400000,381.900000,700.300000,350.800000C700.200000,322.200000,689,295.300000,668.700000,275.100000ZM646.900000,412.800000C633.200000,424.800000,624.300000,441.300000,621.400000,459.300000L605.600000,459.300000L605.600000,384.600000L580.100000,384.600000L580.100000,459.300000L564.300000,459.300000C561.400000,441.300000,552.500000,424.800000,538.800000,412.800000C521,397.100000,510.800000,374.600000,510.900000,350.900000C511,329,519.500000,308.500000,535,293.100000C550.500000,277.700000,571,269.200000,592.900000,269.200000C614.800000,269.200000,635.300000,277.700000,650.800000,293.100000C666.300000,308.500000,674.800000,329,674.900000,350.900000C674.900000,374.600000,664.800000,397.200000,646.900000,412.800000Z" fill="url(#ekmyt7hkszxo9-fill)" stroke="none" stroke-width="1"/><g id="ekmyt7hkszxo10"><rect id="ekmyt7hkszxo11" width="30" height="30" rx="0" ry="0" transform="matrix(1 0 0 1 386.39999999999998 333.39999999999998)" opacity="0" fill="rgb(0,87,111)" stroke="none" stroke-width="1"/><rect id="ekmyt7hkszxo12" width="30" height="30" rx="0" ry="0" transform="matrix(0.70710000000000 -0.70710000000000 0.70710000000000 0.70710000000000 436.08436000000000 213.32659999999998)" opacity="0" fill="rgb(0,87,111)" stroke="none" stroke-width="1"/><rect id="ekmyt7hkszxo13" width="30" height="30" rx="0" ry="0" transform="matrix(1 0 0 1 577.39999999999998 142.40000000000001)" opacity="0" fill="rgb(0,87,111)" stroke="none" stroke-width="1"/><rect id="ekmyt7hkszxo14" width="30" height="30" rx="0" ry="0" transform="matrix(1 0 0 1 768.50000000000000 333.39999999999998)" opacity="0" fill="rgb(0,87,111)" stroke="none" stroke-width="1"/><rect id="ekmyt7hkszxo15" width="30" height="30" rx="0" ry="0" transform="matrix(0.70710000000000 -0.70710000000000 0.70710000000000 0.70710000000000 706.27737999999988 213.31618000000003)" opacity="0" fill="rgb(0,87,111)" stroke="none" stroke-width="1"/></g></g></svg>