<svg id="Layer_1" data-name="Layer 1" xmlns="http://www.w3.org/2000/svg" viewBox="0 0 72.76 57.65"><defs><style>.cls-1{fill:#58b871;}</style></defs><path class="cls-1" d="M51.14,8.77a20.55,20.55,0,0,0-37.25,9.35,15.23,15.23,0,0,0,1.34,30.4h10.2a16,16,0,0,1-2.43-5H15.23a10.23,10.23,0,0,1,0-20.46c.27,0,.55,0,.81,0l2.7.17V20.56a15.56,15.56,0,0,1,29-7.85l.88,1.49,1.7-.29a14.58,14.58,0,0,1,2.53-.22,14.91,14.91,0,0,1,.93,29.79,15.82,15.82,0,0,1-2.44,5h1.51a19.91,19.91,0,1,0-1.7-39.75Z"/><path class="cls-1" d="M38.38,57.65a18.5,18.5,0,1,1,18.5-18.5A18.52,18.52,0,0,1,38.38,57.65Zm0-32a13.5,13.5,0,1,0,13.5,13.5A13.52,13.52,0,0,0,38.38,25.65Z"/><polygon class="cls-1" points="36.63 47.13 29.15 39.62 32.69 36.09 36.63 40.05 44.45 32.23 47.98 35.76 36.63 47.13"/></svg>