<svg xmlns="http://www.w3.org/2000/svg" viewBox="0 0 66.78 63.95"><defs><style>.cls-1{fill:#00576f;}</style></defs><g id="Layer_2" data-name="Layer 2"><g id="Layer_1-2" data-name="Layer 1"><path class="cls-1" d="M66.78,42.32,55.2,38.76,48.47,28.68l-4.88,6.94a26,26,0,0,0-9.83-5.7,16,16,0,1,0-15.59,0A26,26,0,0,0,0,54.69v2.5H36.89l-.25,6.49L48.1,59.76,59.47,64l-.19-12.11ZM26,5A11,11,0,1,1,15,16,11,11,0,0,1,26,5ZM5.15,52.19A21,21,0,0,1,39.92,39L29.84,41.88l7.27,9.69,0,.62Zm49.2,4.55-6.19-2.29-6.24,2.14L42.18,50l-4-5.28,6.35-1.79,3.8-5.4L52,43,58.34,45l-4.09,5.18Z"/></g></g></svg>