<svg xmlns="http://www.w3.org/2000/svg" viewBox="0 0 59.42 65.72"><defs><style>.cls-1{fill:#fff;}</style></defs><g id="Layer_2" data-name="Layer 2"><g id="Layer_1-2" data-name="Layer 1"><path class="cls-1" d="M29.71,58.29A25.43,25.43,0,1,1,55.14,32.86,25.46,25.46,0,0,1,29.71,58.29Zm0-45.86A20.43,20.43,0,1,0,50.14,32.86,20.45,20.45,0,0,0,29.71,12.43Z"/><rect class="cls-1" x="27.21" width="5" height="10.95"/><rect class="cls-1" x="3.49" y="13.69" width="5" height="10.95" transform="translate(-13.6 14.77) rotate(-60)"/><rect class="cls-1" x="0.52" y="44.05" width="10.95" height="5" transform="translate(-22.47 9.23) rotate(-30)"/><rect class="cls-1" x="27.21" y="54.77" width="5" height="10.95"/><rect class="cls-1" x="50.93" y="41.08" width="5" height="10.95" transform="translate(-13.6 69.54) rotate(-60)"/><rect class="cls-1" x="47.95" y="16.67" width="10.95" height="5" transform="translate(-2.43 29.28) rotate(-30)"/><path class="cls-1" d="M16.36,50.05l-2.52-4.32L23.67,40l1.23.64A11.11,11.11,0,0,0,35,40.23a9.4,9.4,0,0,0,4.48-6.68l-7.72,4.52-6.1-10.42,7.76-4.54a9.31,9.31,0,0,0-8.06.66,11.11,11.11,0,0,0-5.28,8.62l0,1.39-9.83,5.76L7.68,35.22l7.53-4.41a16.08,16.08,0,0,1,7.62-11.35c4.85-2.84,12.44-3,17,2.29l2,2.27L32.5,29.44l1,1.79,9.26-5.43,1,2.83c2.08,5.74-.63,12.58-6.31,15.91a16.08,16.08,0,0,1-13.62,1.1Z"/></g></g></svg>