<svg id="Layer_1" data-name="Layer 1" xmlns="http://www.w3.org/2000/svg" viewBox="0 0 60.8 67.31"><defs><style>.cls-1{fill:#58b871;}</style></defs><path class="cls-1" d="M33.21,32h0c-.8-.27-1.6-.49-2.36-.71C27.63,30.41,25.63,29.76,25,28a1.9,1.9,0,0,1,.34-1.75c.32-.44,1.64-1.9,4.93-1.9s5.15,1,5.67,1.47l0-.06,3.32-3a7.43,7.43,0,0,0-2.35-1.61A13.85,13.85,0,0,0,32.46,20V15.83H28v4.22a9.46,9.46,0,0,0-6.23,3.55,6.37,6.37,0,0,0-1,5.73c1.35,4.15,5.32,5.28,8.83,6.27h0c2.94.83,5.48,1.56,6.46,3.72a2,2,0,0,1-.2,2c-.4.59-1.75,1.95-5.58,1.78a8.93,8.93,0,0,1-5.67-2.52c-.15-.13-.27-.25-.38-.36l-3.14,3.14.37.37A13.8,13.8,0,0,0,28,47.21v4.28h4.44v-4c4.27-.38,6.3-2.4,7.17-3.69a6.41,6.41,0,0,0,.57-6.27C38.74,34.37,36,33,33.21,32Z"/><path class="cls-1" d="M57.24,33.66a26.56,26.56,0,0,0-2.46-11.2l6-3.47-2.5-4.33-6,3.48A26.83,26.83,0,0,0,32.9,6.94V0h-5V6.94A26.81,26.81,0,0,0,8.52,18.14l-6-3.48L0,19l6,3.47A26.8,26.8,0,0,0,6,44.85L0,48.32l2.5,4.33,6-3.47A26.84,26.84,0,0,0,27.9,60.38v6.93h5V60.38a26.86,26.86,0,0,0,19.38-11.2l6,3.47,2.5-4.33-6-3.47A26.54,26.54,0,0,0,57.24,33.66ZM30.4,55.5A21.84,21.84,0,1,1,52.24,33.66,21.86,21.86,0,0,1,30.4,55.5Z"/></svg>