<svg xmlns="http://www.w3.org/2000/svg" viewBox="0 0 66.41 66.1"><defs><style>.cls-1{fill:#00576f;}</style></defs><g id="Layer_2" data-name="Layer 2"><g id="Layer_1-2" data-name="Layer 1"><path class="cls-1" d="M27.86,66.1H14.65v-16H27.86Zm-8.21-5h3.21v-6H19.65Z"/><rect class="cls-1" x="12.72" y="38.52" width="17.07" height="5"/><rect class="cls-1" x="12.72" y="27.74" width="17.07" height="5"/><rect class="cls-1" x="12.72" y="16.95" width="17.07" height="5"/><path class="cls-1" d="M37.52,30.65V61.1H5V10.71H33.94a16.05,16.05,0,0,1,4.38-5H0V66.1H42.52V33.55A16.1,16.1,0,0,1,37.52,30.65Z"/><path class="cls-1" d="M47.91,37a18.5,18.5,0,1,1,18.5-18.5A18.52,18.52,0,0,1,47.91,37Zm0-32a13.5,13.5,0,1,0,13.5,13.5A13.52,13.52,0,0,0,47.91,5Z"/><polygon class="cls-1" points="46.15 26.47 38.68 18.97 42.22 15.44 46.16 19.39 53.98 11.57 57.51 15.11 46.15 26.47"/></g></g></svg>