<svg id="Layer_1" data-name="Layer 1" xmlns="http://www.w3.org/2000/svg" viewBox="0 0 80 80"><defs><style>.cls-1{fill:#fff;opacity:0;}.cls-2{fill:none;stroke:#00576f;stroke-miterlimit:10;stroke-width:5px;}.cls-3{fill:#00576f;}</style></defs><rect class="cls-1" width="80" height="80"/><polyline class="cls-2" points="11.92 29.5 60.5 29.5 60.5 13.5 11.5 13.47 11.55 61.53 50.4 61.53"/><line class="cls-2" x1="12.21" y1="45.5" x2="43.58" y2="45.5"/><path class="cls-3" d="M50,19.08a2.42,2.42,0,1,0,2.42,2.42A2.42,2.42,0,0,0,50,19.08Z"/><circle class="cls-3" cx="50" cy="37.5" r="2.42"/><line class="cls-2" x1="19.5" y1="19.09" x2="19.5" y2="23.91"/><line class="cls-2" x1="28.5" y1="19.09" x2="28.5" y2="23.91"/><line class="cls-2" x1="19.5" y1="35.14" x2="19.5" y2="39.96"/><line class="cls-2" x1="28.5" y1="35.14" x2="28.5" y2="39.96"/><polygon class="cls-3" points="51.39 45.81 44.51 52.68 44 45.5 51.39 45.81"/><line class="cls-2" x1="65.59" y1="59.09" x2="57.8" y2="66.88"/><path class="cls-2" d="M69.64,63.11,52,45.46H43.54v8.45L61.19,71.56a3.34,3.34,0,0,0,4.72,0l3.73-3.73A3.34,3.34,0,0,0,69.64,63.11Z"/></svg>