<svg id="Layer_1" data-name="Layer 1" xmlns="http://www.w3.org/2000/svg" viewBox="0 0 80 80"><defs><style>.cls-1{fill:none;stroke:#005770;stroke-miterlimit:10;stroke-width:5px;}.cls-2{fill:#005770;}</style></defs><g id="Layer_1-2" data-name="Layer 1"><line class="cls-1" x1="15.54" y1="28.26" x2="63.39" y2="28.26"/><polyline class="cls-1" points="15.54 44.9 15.54 14.52 63.39 14.52 63.39 44.9"/><path class="cls-2" d="M57.93,21.77a2.51,2.51,0,1,1-2.51-2.51h0a2.5,2.5,0,0,1,2.5,2.5h0"/><path class="cls-2" d="M50,21.77a2.51,2.51,0,1,1-2.51-2.51h0a2.5,2.5,0,0,1,2.5,2.5h0"/><polyline class="cls-1" points="9.07 47.48 24.61 43.04 33.24 46.16 46.84 44.41 49.64 51.17"/><polyline class="cls-1" points="33.2 57.66 67.53 44.86 71 52.45 38.13 69.24 9.07 63.98"/></g></svg>