<svg xmlns="http://www.w3.org/2000/svg" viewBox="0 0 80 80"><defs><style>.cls-1{fill:none;stroke:#00576f;stroke-miterlimit:10;stroke-width:5px;}</style></defs><title>redapt_icons</title><g id="Layer_1" data-name="Layer 1"><path class="cls-1" d="M69.78,28.3h-12L46.29,16.83a7.13,7.13,0,0,0-10.09,0l-9,9a5.35,5.35,0,0,0,0,7.57h0a5.35,5.35,0,0,0,7.57,0l5.51-5.51L54,41.51a8.87,8.87,0,0,1,0,12.54l-8.62,8.62a8.87,8.87,0,0,1-12.54,0L22.4,52.27H10.22"/><line class="cls-1" x1="69.78" y1="52.16" x2="56.55" y2="52.16"/><line class="cls-1" x1="24.78" y1="28.32" x2="10.22" y2="28.32"/></g></svg>