<svg id="Layer_1" data-name="Layer 1" xmlns="http://www.w3.org/2000/svg" viewBox="0 0 80 80"><defs><style>.cls-1{fill:#fff;opacity:0;}.cls-2{fill:none;stroke:#00576f;stroke-miterlimit:10;stroke-width:5px;}.cls-3{fill:#00576f;}</style></defs><rect class="cls-1" width="80" height="80"/><polyline class="cls-2" points="15.51 35.77 15.51 59.5 23.93 59.5"/><polyline class="cls-2" points="62.5 49.5 62.5 25.5 49.31 25.5"/><rect class="cls-2" x="26.5" y="51.5" width="48.9" height="16"/><path class="cls-2" d="M36.72,13.91a10.16,10.16,0,0,0-1.84.16A11.2,11.2,0,0,0,14,19.72v0c-.21,0-.42,0-.63,0a7.91,7.91,0,0,0,0,15.81H36.72a10.81,10.81,0,0,0,0-21.62Z"/><circle class="cls-3" cx="66.5" cy="59.5" r="2.42"/><line class="cls-2" x1="34.5" y1="57.09" x2="34.5" y2="61.91"/><line class="cls-2" x1="43.5" y1="57.09" x2="43.5" y2="61.91"/></svg>