<svg id="Layer_1" data-name="Layer 1" xmlns="http://www.w3.org/2000/svg" viewBox="0 0 80 80"><defs><style>.cls-1,.cls-2{fill:none;stroke-miterlimit:10;stroke-width:5px;}.cls-1{stroke:#005770;}.cls-2{stroke:#00576f;}</style></defs><path class="cls-1" d="M52.88,36.12a15.64,15.64,0,0,0-2.57.22A15.74,15.74,0,0,0,21,44.29v0c-.29,0-.59,0-.88,0a11.1,11.1,0,1,0,0,22.19H52.88a15.18,15.18,0,1,0,0-30.36Z"/><path class="cls-2" d="M51,36.07h9.77a10.24,10.24,0,0,0,0-20.47,11.14,11.14,0,0,0-1.74.15,10.61,10.61,0,0,0-19.76,5.36v0l-.6,0a7.47,7.47,0,0,0-7.47,7.48"/></svg>