<svg id="Layer_1" data-name="Layer 1" xmlns="http://www.w3.org/2000/svg" viewBox="0 0 80 80"><defs><style>.cls-1{fill:none;stroke:#fff;stroke-miterlimit:10;stroke-width:5px;}</style></defs><title>redapt_icon-white</title><path class="cls-1" d="M14.84,55.42A14.22,14.22,0,0,1,15.05,53a15,15,0,0,1,7.56-27.9h0a7.87,7.87,0,0,1,0-.84,10.56,10.56,0,1,1,21.11,0V55.42a14.44,14.44,0,1,1-28.88,0Z"/><line class="cls-1" x1="43.72" y1="40.78" x2="66.14" y2="40.78"/><circle class="cls-1" cx="63.08" cy="62.2" r="3.72"/><circle class="cls-1" cx="68.44" cy="40.78" r="3.72"/><path class="cls-1" d="M33.58,58.92A11.15,11.15,0,0,0,22.43,47.77h0"/><path class="cls-1" d="M22.64,23.59a9.54,9.54,0,0,0,9.54,9.54h0"/><path class="cls-1" d="M43,40.77A11.73,11.73,0,0,0,31.27,52.5h0"/><polyline class="cls-1" points="43.72 52.68 54.46 52.68 60.6 59.82"/><circle class="cls-1" cx="63.08" cy="19.36" r="3.72"/><polyline class="cls-1" points="43.72 28.88 54.46 28.88 60.6 21.74"/></svg>