<svg xmlns="http://www.w3.org/2000/svg" viewBox="0 0 72.06 67.46"><defs><style>.cls-1{fill:#015770;}</style></defs><g id="Layer_2" data-name="Layer 2"><g id="Layer_1-2" data-name="Layer 1"><path class="cls-1" d="M20.52,67.46a7.38,7.38,0,0,1-.82,0A8.56,8.56,0,0,1,14.24,65a8.64,8.64,0,0,1-2.41-5.45,10.81,10.81,0,0,1,3.27-8.48l11.5-11.5L23,35.73l-2.45,2.45h0L16.66,42.1a5.14,5.14,0,0,1-7.24,0L1.5,34.18a5.12,5.12,0,0,1,0-7.24L28.43,0,36,7.52l-5,8.79,5.76,5.76-2.45,2.45,3.85,3.58,2.31-2.31a17.55,17.55,0,0,1,4.89-14.21c4.81-4.8,11.6-5.72,18.18-2.45l3.11,1.55-8.7,8.7,2,2,8.7-8.69,1.54,3.11c3.27,6.58,2.35,13.37-2.45,18.17a17.54,17.54,0,0,1-14.21,4.9L51.64,40.7l12,11.21a3.67,3.67,0,0,1,.1,5.28l-8.05,8A3.81,3.81,0,0,1,53,66.31a3.71,3.71,0,0,1-2.62-1.17l-11.21-12-11,11A10.89,10.89,0,0,1,20.52,67.46ZM55.7,12.21a9.54,9.54,0,0,0-6.88,2.91,12.54,12.54,0,0,0-3.31,11l.31,1.35L18.63,54.62a5.79,5.79,0,0,0-1.81,4.52,3.28,3.28,0,0,0,3.3,3.3,5.81,5.81,0,0,0,4.52-1.82L51.82,33.44l1.35.31a12.62,12.62,0,0,0,11-3.31,9.63,9.63,0,0,0,2.7-9l-7,7L50.8,19.38l7-7A11.33,11.33,0,0,0,55.7,12.21ZM54.06,61.72h0ZM42.74,49.59,53.13,60.72l6.1-6.09L48.1,44.23Zm17.49,6h0ZM7.7,27.81,5,30.47a.14.14,0,0,0,0,.17L13,38.56a.14.14,0,0,0,.17,0l2.67-2.66-2.2-2.2,4.79-4.79,2.2,2.2,9-9-4.92-4.92,5-8.8L28.43,7.07,12.49,23,15,25.53l-4.79,4.79Zm18.86,4.38L30.14,36l4.41-4.41L30.7,28.06Z"/></g></g></svg>