<svg xmlns="http://www.w3.org/2000/svg" viewBox="0 0 70.45 57.3"><defs><style>.cls-1{fill:#fff;}</style></defs><g id="Layer_2" data-name="Layer 2"><g id="Layer_1-2" data-name="Layer 1"><path class="cls-1" d="M51.12,8.39c-.53,0-1.07,0-1.6.07a19.94,19.94,0,0,0-36.1,9.05A14.8,14.8,0,0,0,14.8,47h7.63V42H14.8a9.8,9.8,0,0,1,0-19.6c.26,0,.52,0,.78,0l2.69.21v-2.8A14.94,14.94,0,0,1,46.11,12.4L47,13.89l1.7-.29a14.51,14.51,0,0,1,2.43-.21,14.31,14.31,0,0,1,1.93,28.5v5A19.32,19.32,0,0,0,51.12,8.39Z"/><rect class="cls-1" x="22.43" y="35.73" width="30.62" height="5"/><path class="cls-1" d="M55.55,57.3H19.93v-31H55.55Zm-30.62-5H50.55v-21H24.93Z"/><rect class="cls-1" x="27.94" y="43.95" width="14.08" height="5"/></g></g></svg>