<svg xmlns="http://www.w3.org/2000/svg" viewBox="0 0 46.28 53"><defs><style>.cls-1{fill:#fff;}</style></defs><g id="Layer_2" data-name="Layer 2"><g id="Layer_1-2" data-name="Layer 1"><rect class="cls-1" x="2.38" y="12.39" width="33.47" height="4.22"/><rect class="cls-1" x="2.38" y="24.79" width="18.71" height="4.22"/><path class="cls-1" d="M28.59,6.12A2.19,2.19,0,1,0,30.78,8.3,2.19,2.19,0,0,0,28.59,6.12Z"/><circle class="cls-1" cx="28.59" cy="20.7" r="2.18"/><rect class="cls-1" x="6.16" y="6.49" width="4.22" height="3.65"/><rect class="cls-1" x="12.39" y="6.49" width="4.22" height="3.65"/><rect class="cls-1" x="6.16" y="18.87" width="4.22" height="3.65"/><rect class="cls-1" x="12.39" y="18.87" width="4.22" height="3.65"/><rect class="cls-1" x="6.16" y="31.27" width="4.22" height="3.65"/><rect class="cls-1" x="12.39" y="31.27" width="4.22" height="3.65"/><polygon class="cls-1" points="15.46 37.18 4.22 37.18 4.22 4.22 34.01 4.22 34.01 22.5 38.23 22.5 38.23 0 0 0 0 41.4 15.46 41.4 15.46 37.18"/><path class="cls-1" d="M45.2,45l-5-5,4.6-4.61a4.92,4.92,0,1,0-6.95-7l-4.6,4.61-5-5a3.69,3.69,0,0,0-5.23,0l-1.72,1.72a3.69,3.69,0,0,0,0,5.22l5,5-2.12,2.11A9.66,9.66,0,0,0,21.36,49v1.83a1.08,1.08,0,0,0,1.08,1.08h1.83a9.71,9.71,0,0,0,6.9-2.85L33.28,47l5,5a3.71,3.71,0,0,0,5.23,0L45.2,50.2a3.69,3.69,0,0,0,0-5.22ZM39.43,30a2.75,2.75,0,0,1,4.68,1.94,2.67,2.67,0,0,1-.81,1.94l-4.6,4.6-3.89-3.87Zm-9.8,17.56a7.58,7.58,0,0,1-5.36,2.22h-.74V49a7.5,7.5,0,0,1,2.22-5.36l2.11-2.11,3.89,3.88Zm14,1.13L42,50.4a1.53,1.53,0,0,1-2.17,0L22.89,33.5a1.52,1.52,0,0,1,0-2.16l1.72-1.73a1.53,1.53,0,0,1,2.17,0L28,30.8,26,32.74h0a1.08,1.08,0,1,0,1.53,1.53l1.95-1.94,1.71,1.72-.86.86h0a1.07,1.07,0,0,0,0,1.53,1.09,1.09,0,0,0,1.53,0l.86-.86,1.71,1.72-1.94,1.94h0a1.09,1.09,0,0,0,0,1.53,1.07,1.07,0,0,0,1.53,0l2-1.94,1.71,1.72-.85.86h0a1.07,1.07,0,0,0,0,1.53,1.09,1.09,0,0,0,1.53,0l.86-.86L41,43.8l-2,1.94h0a1.09,1.09,0,0,0,1.54,1.53l1.94-1.94,1.18,1.18a1.52,1.52,0,0,1,0,2.16Z"/></g></g></svg>