<svg xmlns="http://www.w3.org/2000/svg" viewBox="0 0 73.25 72.51"><defs><style>.cls-1{fill:#fff;}</style></defs><g id="Layer_2" data-name="Layer 2"><g id="Layer_1-2" data-name="Layer 1"><path class="cls-1" d="M56.72,18.68a2.51,2.51,0,0,0-3.54.1L40.28,32.45a6,6,0,1,0,3.41,3.66L56.82,22.22A2.51,2.51,0,0,0,56.72,18.68Z"/><path class="cls-1" d="M23,58l-3.48-3.48L13,60.92A33.84,33.84,0,0,1,5.24,43H14.5V38H5a33.78,33.78,0,0,1,7.73-20.6l5.85,6.74,3.78-3.28-6.16-7.09A33.92,33.92,0,0,1,37,5.06V14.5h5V5.14a34,34,0,0,1,23,12l3.59-3.49A39,39,0,1,0,12.78,67.84Z"/><rect class="cls-1" x="47.21" y="47.04" width="27.33" height="5" transform="translate(-17.2 57.55) rotate(-45)"/><rect class="cls-1" x="24.43" y="57.97" width="29.03" height="5" transform="translate(-31.35 45.25) rotate(-45)"/><rect class="cls-1" x="47.69" y="48.35" width="5" height="12.81" transform="translate(-24.03 51.84) rotate(-45.24)"/><polygon class="cls-1" points="68.28 52.44 68.1 42.31 57.98 42.14 58.06 37.16 72.99 37.42 73.25 52.35 68.28 52.44"/></g></g></svg>