<svg xmlns="http://www.w3.org/2000/svg" viewBox="0 0 62.41 72"><defs><style>.cls-1{fill:#fff;}</style></defs><g id="Layer_2" data-name="Layer 2"><g id="Layer_1-2" data-name="Layer 1"><rect class="cls-1" x="47.43" y="14.64" width="3.93" height="4.21" transform="translate(15.27 56.19) rotate(-67.86)"/><rect class="cls-1" x="45.86" y="4.35" width="4.21" height="3.93" transform="translate(6.21 30.76) rotate(-37.86)"/><rect class="cls-1" x="39.12" y="21.1" width="3.93" height="4.21" transform="translate(-2.79 5.83) rotate(-7.86)"/><rect class="cls-1" x="29.24" y="17.27" width="4.21" height="3.93" transform="translate(-5.21 23.28) rotate(-37.86)"/><rect class="cls-1" x="27.94" y="6.71" width="3.93" height="4.21" transform="translate(10.47 33.19) rotate(-67.86)"/><rect class="cls-1" x="36.25" y="0.25" width="3.93" height="4.21" transform="translate(0.04 5.24) rotate(-7.86)"/><path class="cls-1" d="M34.1,5.63a9,9,0,1,1-1.59,12.7A9.05,9.05,0,0,1,34.1,5.63Zm2.41,3.11a5.11,5.11,0,1,0,7.18.9A5.13,5.13,0,0,0,36.51,8.74Z"/><rect class="cls-1" x="58.92" y="26.44" width="3.26" height="3.04" transform="translate(-3.84 10.58) rotate(-9.68)"/><rect class="cls-1" x="53.72" y="20.17" width="3.26" height="3.04" transform="translate(15.78 66.06) rotate(-69.68)"/><rect class="cls-1" x="56.2" y="33.98" width="3.04" height="3.26" transform="translate(-9.44 45.06) rotate(-39.68)"/><rect class="cls-1" x="48.06" y="35.46" width="3.26" height="3.04" transform="translate(-2.24 70.73) rotate(-69.68)"/><rect class="cls-1" x="42.86" y="29.18" width="3.26" height="3.04" transform="translate(-4.53 7.92) rotate(-9.68)"/><rect class="cls-1" x="45.79" y="21.44" width="3.04" height="3.26" transform="translate(-3.83 35.52) rotate(-39.68)"/><path class="cls-1" d="M46,26.9a7,7,0,1,1,4.13,9A7,7,0,0,1,46,26.9ZM48.8,28a4,4,0,1,0,5.09-2.34A4,4,0,0,0,48.8,28Z"/><rect class="cls-1" x="6.04" y="29.75" width="31.35" height="6.25"/><rect class="cls-1" x="6.04" y="48.12" width="49.62" height="6.25"/><circle class="cls-1" cx="44.91" cy="42.06" r="3.23"/><circle class="cls-1" cx="44.91" cy="60.45" r="3.23"/><rect class="cls-1" x="11.66" y="20.99" width="6.25" height="5.42"/><rect class="cls-1" x="20.89" y="20.99" width="6.25" height="5.42"/><rect class="cls-1" x="11.66" y="39.35" width="6.25" height="5.42"/><rect class="cls-1" x="20.89" y="39.35" width="6.25" height="5.42"/><rect class="cls-1" x="11.66" y="57.74" width="6.25" height="5.42"/><rect class="cls-1" x="20.89" y="57.74" width="6.25" height="5.42"/><polygon class="cls-1" points="50.42 41.79 50.42 65.75 6.25 65.75 6.25 16.87 25.71 16.87 25.71 10.62 0 10.62 0 72 56.68 72 56.68 41.79 50.42 41.79"/></g></g></svg>