<svg xmlns="http://www.w3.org/2000/svg" width="39.546" height="42.861" viewBox="0 0 39.546 42.861">
  <g id="Group_1285" data-name="Group 1285" transform="translate(-780.289 269.454)">
    <rect id="Rectangle_594" data-name="Rectangle 594" width="35.546" height="38.861" transform="translate(782.289 -267.454)" fill="none" stroke="#00576f" stroke-miterlimit="10" stroke-width="4"/>
    <line id="Line_226" data-name="Line 226" x2="34.979" transform="translate(782.573 -254.5)" fill="none" stroke="#00576f" stroke-miterlimit="10" stroke-width="4"/>
    <line id="Line_227" data-name="Line 227" x2="34.979" transform="translate(782.573 -241.546)" fill="none" stroke="#00576f" stroke-miterlimit="10" stroke-width="4"/>
    <path id="Path_1073" data-name="Path 1073" d="M824.276-260.364a1.918,1.918,0,0,0-1.918,1.918,1.918,1.918,0,0,0,1.918,1.918,1.919,1.919,0,0,0,1.918-1.918A1.918,1.918,0,0,0,824.276-260.364Z" transform="translate(-14.303 -2.531)" fill="#00576f"/>
    <circle id="Ellipse_341" data-name="Ellipse 341" cx="1.918" cy="1.918" r="1.918" transform="translate(808.055 -249.941)" fill="#00576f"/>
    <circle id="Ellipse_342" data-name="Ellipse 342" cx="1.918" cy="1.918" r="1.918" transform="translate(808.055 -236.978)" fill="#00576f"/>
    <line id="Line_228" data-name="Line 228" y2="3.819" transform="translate(788.732 -262.877)" fill="none" stroke="#00576f" stroke-miterlimit="10" stroke-width="4"/>
    <line id="Line_229" data-name="Line 229" y2="3.819" transform="translate(795.244 -262.877)" fill="none" stroke="#00576f" stroke-miterlimit="10" stroke-width="4"/>
    <line id="Line_230" data-name="Line 230" y2="3.819" transform="translate(788.732 -249.932)" fill="none" stroke="#00576f" stroke-miterlimit="10" stroke-width="4"/>
    <line id="Line_231" data-name="Line 231" y2="3.819" transform="translate(795.244 -249.932)" fill="none" stroke="#00576f" stroke-miterlimit="10" stroke-width="4"/>
    <line id="Line_232" data-name="Line 232" y2="3.819" transform="translate(788.732 -236.97)" fill="none" stroke="#00576f" stroke-miterlimit="10" stroke-width="4"/>
    <line id="Line_233" data-name="Line 233" y2="3.819" transform="translate(795.244 -236.97)" fill="none" stroke="#00576f" stroke-miterlimit="10" stroke-width="4"/>
  </g>
</svg>
