<svg xmlns="http://www.w3.org/2000/svg" viewBox="0 0 1358.14 363.49"><defs><style>.cls-1{fill:#1a1a1a;}.cls-2,.cls-3{fill:#fc0d30;}.cls-3{opacity:0.36;}</style></defs><g id="Layer_2" data-name="Layer 2"><g id="Layer_1-2" data-name="Layer 1"><path class="cls-1" d="M474.87,297.87h45V157.48c11.66-17.45,28.3-27.83,48.7-27.83,27.47,0,50.78,19.52,50.78,51.5V297.87h45V175.34c0-56.91-41.62-88.89-89.07-88.89-29.55,0-54.11,12.88-70.34,32-17.07-21.18-43.71-32-73.67-32-25.81,0-42.88,8.72-55.78,20.77V88.94H330.44V297.87h44.95V156.23c12.49-16.61,30-26.58,49.53-26.58,29.14,0,49.95,17.86,49.95,49.43Z"/><path class="cls-1" d="M813.69,298.42c66.18,0,111.54-50.68,111.54-109.24,0-59-47-108.41-111.54-108.41-64.1,0-111.13,49.43-111.13,108.41S747.51,298.42,813.69,298.42Zm0-43.2c-37.88,0-66.18-29.9-66.18-66,0-37,28.72-65.21,66.18-65.21,37.87,0,66.18,28.24,66.18,65.21C879.87,225.32,852.4,255.22,813.69,255.22Z"/><path class="cls-1" d="M925.81,363.49c48.28-1.25,77.42-21.74,77.42-77V88.94h-45V289.42c0,26.16-11.24,40.7-32.88,41.53Z"/><rect class="cls-1" x="1055.68" y="88.94" width="45.37" height="208.92"/><polygon class="cls-1" points="1304.44 297.87 1358.14 297.87 1280.72 192.78 1356.47 88.94 1304.03 88.94 1251.59 159.55 1199.97 88.94 1147.11 88.94 1222.03 192.37 1144.62 297.87 1197.89 297.87 1251.17 225.59 1304.44 297.87"/><circle class="cls-2" cx="33.04" cy="66.09" r="33.04" transform="translate(-35.98 92.46) rotate(-84.35)"/><circle class="cls-3" cx="33.04" cy="165.22" r="33.04" transform="translate(-135.34 171.37) rotate(-80.78)"/><circle class="cls-3" cx="132.18" cy="66.09" r="33.04"/><circle class="cls-2" cx="132.18" cy="165.22" r="33.04"/><circle class="cls-2" cx="231.31" cy="66.09" r="33.04"/><circle class="cls-3" cx="231.31" cy="165.22" r="33.04"/><circle class="cls-2" cx="33.04" cy="264.35" r="33.04" transform="translate(-233.19 254.63) rotate(-80.78)"/><circle class="cls-3" cx="132.18" cy="264.35" r="33.04"/><circle class="cls-2" cx="231.31" cy="264.35" r="33.04"/><circle class="cls-2" cx="980.31" cy="33.04" r="33.04"/><circle class="cls-2" cx="1077.61" cy="33.04" r="33.04"/></g></g></svg>