<svg id="ea95t17v6p4o1" xmlns="http://www.w3.org/2000/svg" xmlns:xlink="http://www.w3.org/1999/xlink" viewBox="0 0 800 900" shape-rendering="geometricPrecision" text-rendering="geometricPrecision"><style><![CDATA[#ea95t17v6p4o4_tr {animation: ea95t17v6p4o4_tr__tr 7000ms linear infinite normal forwards}@keyframes ea95t17v6p4o4_tr__tr { 0% {transform: translate(231.900000px,199.500000px) rotate(-360deg);animation-timing-function: cubic-bezier(0.420000,0,0.580000,1)} 100% {transform: translate(231.900000px,199.500000px) rotate(-720deg)} }#ea95t17v6p4o6_ts {animation: ea95t17v6p4o6_ts__ts 7000ms linear infinite normal forwards}@keyframes ea95t17v6p4o6_ts__ts { 0% {transform: translate(38.100000px,342.100000px) scale(0,0)} 67.142857% {transform: translate(38.100000px,342.100000px) scale(1,1)} 100% {transform: translate(38.100000px,342.100000px) scale(0,0)} }#ea95t17v6p4o7_ts {animation: ea95t17v6p4o7_ts__ts 7000ms linear infinite normal forwards}@keyframes ea95t17v6p4o7_ts__ts { 0% {transform: translate(38.100000px,288.900000px) scale(0,0)} 70% {transform: translate(38.100000px,288.900000px) scale(1,1)} 100% {transform: translate(38.100000px,288.900000px) scale(0,0)} }#ea95t17v6p4o8_ts {animation: ea95t17v6p4o8_ts__ts 7000ms linear infinite normal forwards}@keyframes ea95t17v6p4o8_ts__ts { 0% {transform: translate(96.100000px,342.100000px) scale(0,0)} 27.142857% {transform: translate(96.100000px,342.100000px) scale(1,1)} 100% {transform: translate(96.100000px,342.100000px) scale(0,0)} }#ea95t17v6p4o9_ts {animation: ea95t17v6p4o9_ts__ts 7000ms linear infinite normal forwards}@keyframes ea95t17v6p4o9_ts__ts { 0% {transform: translate(96.100000px,288.900000px) scale(0,0)} 27.142857% {transform: translate(96.100000px,288.900000px) scale(1,1)} 100% {transform: translate(96.100000px,288.900000px) scale(0,0)} }#ea95t17v6p4o10_ts {animation: ea95t17v6p4o10_ts__ts 7000ms linear infinite normal forwards}@keyframes ea95t17v6p4o10_ts__ts { 0% {transform: translate(154.100000px,342.100000px) scale(0,0)} 55.714286% {transform: translate(154.100000px,342.100000px) scale(1,1)} 100% {transform: translate(154.100000px,342.100000px) scale(0,0)} }#ea95t17v6p4o12_ts {animation: ea95t17v6p4o12_ts__ts 7000ms linear infinite normal forwards}@keyframes ea95t17v6p4o12_ts__ts { 0% {transform: translate(212.700000px,389.600000px) scale(0,0)} 64.285714% {transform: translate(212.700000px,389.600000px) scale(1,1)} 100% {transform: translate(212.700000px,389.600000px) scale(0,0)} }#ea95t17v6p4o13_ts {animation: ea95t17v6p4o13_ts__ts 7000ms linear infinite normal forwards}@keyframes ea95t17v6p4o13_ts__ts { 0% {transform: translate(212.700000px,342.100000px) scale(0,0)} 50% {transform: translate(212.700000px,342.100000px) scale(1,1)} 100% {transform: translate(212.700000px,342.100000px) scale(0,0)} }#ea95t17v6p4o14_ts {animation: ea95t17v6p4o14_ts__ts 7000ms linear infinite normal forwards}@keyframes ea95t17v6p4o14_ts__ts { 0% {transform: translate(270.700000px,389.600000px) scale(0,0)} 58.571429% {transform: translate(270.700000px,389.600000px) scale(1,1)} 100% {transform: translate(270.700000px,389.600000px) scale(0,0)} }#ea95t17v6p4o15_ts {animation: ea95t17v6p4o15_ts__ts 7000ms linear infinite normal forwards}@keyframes ea95t17v6p4o15_ts__ts { 0% {transform: translate(270.700000px,342.100000px) scale(0,0)} 41.428571% {transform: translate(270.700000px,342.100000px) scale(1,1)} 100% {transform: translate(270.700000px,342.100000px) scale(0,0)} }#ea95t17v6p4o16_ts {animation: ea95t17v6p4o16_ts__ts 7000ms linear infinite normal forwards}@keyframes ea95t17v6p4o16_ts__ts { 0% {transform: translate(328.700000px,389.600000px) scale(0,0)} 27.142857% {transform: translate(328.700000px,389.600000px) scale(1,1)} 100% {transform: translate(328.700000px,389.600000px) scale(0,0)} }#ea95t17v6p4o18_ts {animation: ea95t17v6p4o18_ts__ts 7000ms linear infinite normal forwards}@keyframes ea95t17v6p4o18_ts__ts { 0% {transform: translate(38.100000px,393px) scale(0,0)} 44.285714% {transform: translate(38.100000px,393px) scale(1,1)} 100% {transform: translate(38.100000px,393px) scale(0,0)} }#ea95t17v6p4o19_ts {animation: ea95t17v6p4o19_ts__ts 7000ms linear infinite normal forwards}@keyframes ea95t17v6p4o19_ts__ts { 0% {transform: translate(96.100000px,393px) scale(0,0)} 52.857143% {transform: translate(96.100000px,393px) scale(1,1)} 100% {transform: translate(96.100000px,393px) scale(0,0)} }#ea95t17v6p4o20_tr {animation: ea95t17v6p4o20_tr__tr 7000ms linear infinite normal forwards}@keyframes ea95t17v6p4o20_tr__tr { 0% {transform: translate(231.900000px,199.500000px) rotate(0deg);animation-timing-function: cubic-bezier(0.420000,0,0.580000,1)} 100% {transform: translate(231.900000px,199.500000px) rotate(360deg)} }]]></style><defs><linearGradient id="ea95t17v6p4o3-fill" x1="258.657790" y1="59.835997" x2="258.657790" y2="340.164097" spreadMethod="pad" gradientUnits="userSpaceOnUse"><stop id="ea95t17v6p4o3-fill-0" offset="0%" stop-color="rgb(129,129,129)"/><stop id="ea95t17v6p4o3-fill-1" offset="100%" stop-color="rgb(240,239,239)"/></linearGradient><linearGradient id="ea95t17v6p4o6-fill" x1="6.770408" y1="323.724589" x2="335.286808" y2="516.727989" spreadMethod="pad" gradientUnits="userSpaceOnUse"><stop id="ea95t17v6p4o6-fill-0" offset="0%" stop-color="rgb(129,129,129)"/><stop id="ea95t17v6p4o6-fill-1" offset="100%" stop-color="rgb(240,239,239)"/></linearGradient><linearGradient id="ea95t17v6p4o7-fill" x1="30.017408" y1="284.155289" x2="358.533808" y2="477.158689" spreadMethod="pad" gradientUnits="userSpaceOnUse"><stop id="ea95t17v6p4o7-fill-0" offset="0%" stop-color="rgb(129,129,129)"/><stop id="ea95t17v6p4o7-fill-1" offset="100%" stop-color="rgb(240,239,239)"/></linearGradient><linearGradient id="ea95t17v6p4o8-fill" x1="21.653708" y1="298.391389" x2="350.170108" y2="491.394789" spreadMethod="pad" gradientUnits="userSpaceOnUse"><stop id="ea95t17v6p4o8-fill-0" offset="0%" stop-color="rgb(129,129,129)"/><stop id="ea95t17v6p4o8-fill-1" offset="100%" stop-color="rgb(240,239,239)"/></linearGradient><linearGradient id="ea95t17v6p4o9-fill" x1="44.900608" y1="258.821989" x2="373.417108" y2="451.825389" spreadMethod="pad" gradientUnits="userSpaceOnUse"><stop id="ea95t17v6p4o9-fill-0" offset="0%" stop-color="rgb(129,129,129)"/><stop id="ea95t17v6p4o9-fill-1" offset="100%" stop-color="rgb(240,239,239)"/></linearGradient><linearGradient id="ea95t17v6p4o10-fill" x1="36.536908" y1="273.058089" x2="365.053408" y2="466.061489" spreadMethod="pad" gradientUnits="userSpaceOnUse"><stop id="ea95t17v6p4o10-fill-0" offset="0%" stop-color="rgb(129,129,129)"/><stop id="ea95t17v6p4o10-fill-1" offset="100%" stop-color="rgb(240,239,239)"/></linearGradient><linearGradient id="ea95t17v6p4o12-fill" x1="181.365208" y1="371.240089" x2="509.881708" y2="564.243489" spreadMethod="pad" gradientUnits="userSpaceOnUse"><stop id="ea95t17v6p4o12-fill-0" offset="0%" stop-color="rgb(129,129,129)"/><stop id="ea95t17v6p4o12-fill-1" offset="100%" stop-color="rgb(240,239,239)"/></linearGradient><linearGradient id="ea95t17v6p4o13-fill" x1="204.612208" y1="337.382189" x2="533.128608" y2="530.385589" spreadMethod="pad" gradientUnits="userSpaceOnUse"><stop id="ea95t17v6p4o13-fill-0" offset="0%" stop-color="rgb(129,129,129)"/><stop id="ea95t17v6p4o13-fill-1" offset="100%" stop-color="rgb(240,239,239)"/></linearGradient><linearGradient id="ea95t17v6p4o14-fill" x1="196.248508" y1="345.906889" x2="524.764908" y2="538.910289" spreadMethod="pad" gradientUnits="userSpaceOnUse"><stop id="ea95t17v6p4o14-fill-0" offset="0%" stop-color="rgb(129,129,129)"/><stop id="ea95t17v6p4o14-fill-1" offset="100%" stop-color="rgb(240,239,239)"/></linearGradient><linearGradient id="ea95t17v6p4o15-fill" x1="219.495508" y1="312.048989" x2="548.011908" y2="505.052389" spreadMethod="pad" gradientUnits="userSpaceOnUse"><stop id="ea95t17v6p4o15-fill-0" offset="0%" stop-color="rgb(129,129,129)"/><stop id="ea95t17v6p4o15-fill-1" offset="100%" stop-color="rgb(240,239,239)"/></linearGradient><linearGradient id="ea95t17v6p4o16-fill" x1="211.131808" y1="320.573689" x2="539.648208" y2="513.577089" spreadMethod="pad" gradientUnits="userSpaceOnUse"><stop id="ea95t17v6p4o16-fill-0" offset="0%" stop-color="rgb(129,129,129)"/><stop id="ea95t17v6p4o16-fill-1" offset="100%" stop-color="rgb(240,239,239)"/></linearGradient><linearGradient id="ea95t17v6p4o18-fill" x1="30.017408" y1="388.251689" x2="358.533808" y2="581.255089" spreadMethod="pad" gradientUnits="userSpaceOnUse"><stop id="ea95t17v6p4o18-fill-0" offset="0%" stop-color="rgb(129,129,129)"/><stop id="ea95t17v6p4o18-fill-1" offset="100%" stop-color="rgb(240,239,239)"/></linearGradient><linearGradient id="ea95t17v6p4o19-fill" x1="44.900608" y1="362.918389" x2="373.417108" y2="555.921789" spreadMethod="pad" gradientUnits="userSpaceOnUse"><stop id="ea95t17v6p4o19-fill-0" offset="0%" stop-color="rgb(129,129,129)"/><stop id="ea95t17v6p4o19-fill-1" offset="100%" stop-color="rgb(240,239,239)"/></linearGradient><linearGradient id="ea95t17v6p4o21-fill" x1="193.570413" y1="206.610200" x2="193.570413" y2="206.610200" spreadMethod="pad" gradientUnits="userSpaceOnUse"><stop id="ea95t17v6p4o21-fill-0" offset="0%" stop-color="rgb(129,129,129)"/><stop id="ea95t17v6p4o21-fill-1" offset="100%" stop-color="rgb(240,239,239)"/></linearGradient><linearGradient id="ea95t17v6p4o22-fill" x1="165.113300" y1="199.522200" x2="343.675800" y2="199.522200" spreadMethod="pad" gradientUnits="userSpaceOnUse"><stop id="ea95t17v6p4o22-fill-0" offset="0%" stop-color="rgb(7,88,112)"/><stop id="ea95t17v6p4o22-fill-1" offset="100%" stop-color="rgb(168,210,121)"/></linearGradient><linearGradient id="ea95t17v6p4o23-fill" x1="143.010300" y1="132.453600" x2="249.771500" y2="132.453600" spreadMethod="pad" gradientUnits="userSpaceOnUse"><stop id="ea95t17v6p4o23-fill-0" offset="0%" stop-color="rgb(7,88,112)"/><stop id="ea95t17v6p4o23-fill-1" offset="100%" stop-color="rgb(168,210,121)"/></linearGradient><linearGradient id="ea95t17v6p4o24-fill" x1="125.117400" y1="278.429900" x2="231.880100" y2="278.429900" spreadMethod="pad" gradientUnits="userSpaceOnUse"><stop id="ea95t17v6p4o24-fill-0" offset="0%" stop-color="rgb(7,88,112)"/><stop id="ea95t17v6p4o24-fill-1" offset="100%" stop-color="rgb(168,210,121)"/></linearGradient></defs><g id="ea95t17v6p4o2" transform="matrix(1.90000000000000 0 0 1.90000000000000 -18.67689432750058 65.15836516449980)"><path id="ea95t17v6p4o3" d="M343.300000,179.300000L208.800000,66.200000C191.200000,51.400000,164.400000,63.900000,164.400000,86.900000L164.400000,313.100000C164.400000,336,191.200000,348.500000,208.800000,333.800000L343.300000,220.700000C356.100000,209.900000,356.100000,190.100000,343.300000,179.300000Z" opacity="0.15" fill="url(#ea95t17v6p4o3-fill)" stroke="none" stroke-width="1"/><g id="ea95t17v6p4o4_tr" transform="translate(231.900000,199.500000) rotate(-360)"><path id="ea95t17v6p4o4" d="M231.900000,346.900000L231.900000,343.900000C270.500000,343.900000,306.700000,328.900000,334,301.600000C361.300000,274.300000,376.300000,238.100000,376.300000,199.500000C376.300000,160.900000,361.300000,124.700000,334,97.400000C306.700000,70.100000,270.500000,55.100000,231.900000,55.100000C193.300000,55.100000,157.100000,70.100000,129.800000,97.400000C102.500000,124.700000,87.500000,160.900000,87.500000,199.500000L84.500000,199.500000C84.500000,160.100000,99.800000,123.100000,127.700000,95.300000C155.500000,67.500000,192.500000,52.100000,231.900000,52.100000C271.300000,52.100000,308.300000,67.400000,336.100000,95.300000C363.900000,123.100000,379.300000,160.100000,379.300000,199.500000C379.300000,238.900000,364,275.900000,336.100000,303.700000C308.200000,331.600000,271.200000,346.900000,231.900000,346.900000Z" transform="translate(-231.900000,-199.500000)" fill="rgb(168,210,121)" stroke="none" stroke-width="1"/></g><g id="ea95t17v6p4o5"><g id="ea95t17v6p4o6_ts" transform="translate(38.100000,342.100000) scale(0,0)"><path id="ea95t17v6p4o6" d="M48.100000,350.100000L48.100000,350.100000C48.600000,344.800000,48.600000,339.400000,48.100000,334.100000L48.100000,334.100000C48,333,47.100000,332.200000,46.100000,332.100000L46.100000,332.100000C40.800000,331.600000,35.400000,331.600000,30.100000,332.100000L30.100000,332.100000C29,332.200000,28.200000,333.100000,28.100000,334.100000L28.100000,334.100000C27.600000,339.400000,27.600000,344.800000,28.100000,350.100000L28.100000,350.100000C28.200000,351.200000,29.100000,352,30.100000,352.100000L30.100000,352.100000C35.400000,352.600000,40.800000,352.600000,46.100000,352.100000L46.100000,352.100000C47.200000,352.100000,48,351.200000,48.100000,350.100000Z" transform="translate(-38.100000,-342.100000)" opacity="0.15" fill="url(#ea95t17v6p4o6-fill)" stroke="none" stroke-width="1"/></g><g id="ea95t17v6p4o7_ts" transform="translate(38.100000,288.900000) scale(0,0)"><path id="ea95t17v6p4o7" d="M48.100000,296.900000L48.100000,296.900000C48.600000,291.600000,48.600000,286.200000,48.100000,280.900000L48.100000,280.900000C48,279.800000,47.100000,279,46.100000,278.900000L46.100000,278.900000C40.800000,278.400000,35.400000,278.400000,30.100000,278.900000L30.100000,278.900000C29,279,28.200000,279.900000,28.100000,280.900000L28.100000,280.900000C27.600000,286.200000,27.600000,291.600000,28.100000,296.900000L28.100000,296.900000C28.200000,298,29.100000,298.800000,30.100000,298.900000L30.100000,298.900000C35.400000,299.400000,40.800000,299.400000,46.100000,298.900000L46.100000,298.900000C47.200000,298.800000,48,298,48.100000,296.900000Z" transform="translate(-38.100000,-288.900000)" opacity="0.15" fill="url(#ea95t17v6p4o7-fill)" stroke="none" stroke-width="1"/></g><g id="ea95t17v6p4o8_ts" transform="translate(96.100000,342.100000) scale(0,0)"><path id="ea95t17v6p4o8" d="M106.100000,350.100000L106.100000,350.100000C106.600000,344.800000,106.600000,339.400000,106.100000,334.100000L106.100000,334.100000C106,333,105.100000,332.200000,104.100000,332.100000L104.100000,332.100000C98.800000,331.600000,93.400000,331.600000,88.100000,332.100000L88.100000,332.100000C87,332.200000,86.200000,333.100000,86.100000,334.100000L86.100000,334.100000C85.600000,339.400000,85.600000,344.800000,86.100000,350.100000L86.100000,350.100000C86.200000,351.200000,87.100000,352,88.100000,352.100000L88.100000,352.100000C93.400000,352.600000,98.800000,352.600000,104.100000,352.100000L104.100000,352.100000C105.200000,352.100000,106,351.200000,106.100000,350.100000Z" transform="translate(-96.100000,-342.100000)" opacity="0.15" fill="url(#ea95t17v6p4o8-fill)" stroke="none" stroke-width="1"/></g><g id="ea95t17v6p4o9_ts" transform="translate(96.100000,288.900000) scale(0,0)"><path id="ea95t17v6p4o9" d="M106.100000,296.900000L106.100000,296.900000C106.600000,291.600000,106.600000,286.200000,106.100000,280.900000L106.100000,280.900000C106,279.800000,105.100000,279,104.100000,278.900000L104.100000,278.900000C98.800000,278.400000,93.400000,278.400000,88.100000,278.900000L88.100000,278.900000C87,279,86.200000,279.900000,86.100000,280.900000L86.100000,280.900000C85.600000,286.200000,85.600000,291.600000,86.100000,296.900000L86.100000,296.900000C86.200000,298,87.100000,298.800000,88.100000,298.900000L88.100000,298.900000C93.400000,299.400000,98.800000,299.400000,104.100000,298.900000L104.100000,298.900000C105.200000,298.800000,106,298,106.100000,296.900000Z" transform="translate(-96.100000,-288.900000)" opacity="0.15" fill="url(#ea95t17v6p4o9-fill)" stroke="none" stroke-width="1"/></g><g id="ea95t17v6p4o10_ts" transform="translate(154.100000,342.100000) scale(0,0)"><path id="ea95t17v6p4o10" d="M164.100000,350.100000L164.100000,350.100000C164.600000,344.800000,164.600000,339.400000,164.100000,334.100000L164.100000,334.100000C164,333,163.100000,332.200000,162.100000,332.100000L162.100000,332.100000C156.800000,331.600000,151.400000,331.600000,146.100000,332.100000L146.100000,332.100000C145,332.200000,144.200000,333.100000,144.100000,334.100000L144.100000,334.100000C143.600000,339.400000,143.600000,344.800000,144.100000,350.100000L144.100000,350.100000C144.200000,351.200000,145.100000,352,146.100000,352.100000L146.100000,352.100000C151.400000,352.600000,156.800000,352.600000,162.100000,352.100000L162.100000,352.100000C163.200000,352.100000,164,351.200000,164.100000,350.100000Z" transform="translate(-154.100000,-342.100000)" opacity="0.15" fill="url(#ea95t17v6p4o10-fill)" stroke="none" stroke-width="1"/></g></g><g id="ea95t17v6p4o11"><g id="ea95t17v6p4o12_ts" transform="translate(212.700000,389.600000) scale(0,0)"><path id="ea95t17v6p4o12" d="M222.700000,397.600000L222.700000,397.600000C223.200000,392.300000,223.200000,386.900000,222.700000,381.600000L222.700000,381.600000C222.600000,380.500000,221.700000,379.700000,220.700000,379.600000L220.700000,379.600000C215.400000,379.100000,210,379.100000,204.700000,379.600000L204.700000,379.600000C203.600000,379.700000,202.800000,380.600000,202.700000,381.600000L202.700000,381.600000C202.200000,386.900000,202.200000,392.300000,202.700000,397.600000L202.700000,397.600000C202.800000,398.700000,203.700000,399.500000,204.700000,399.600000L204.700000,399.600000C210,400.100000,215.400000,400.100000,220.700000,399.600000L220.700000,399.600000C221.800000,399.600000,222.600000,398.700000,222.700000,397.600000Z" transform="translate(-212.700000,-389.600000)" opacity="0.15" fill="url(#ea95t17v6p4o12-fill)" stroke="none" stroke-width="1"/></g><g id="ea95t17v6p4o13_ts" transform="translate(212.700000,342.100000) scale(0,0)"><path id="ea95t17v6p4o13" d="M222.700000,350.100000L222.700000,350.100000C223.200000,344.800000,223.200000,339.400000,222.700000,334.100000L222.700000,334.100000C222.600000,333,221.700000,332.200000,220.700000,332.100000L220.700000,332.100000C215.400000,331.600000,210,331.600000,204.700000,332.100000L204.700000,332.100000C203.600000,332.200000,202.800000,333.100000,202.700000,334.100000L202.700000,334.100000C202.200000,339.400000,202.200000,344.800000,202.700000,350.100000L202.700000,350.100000C202.800000,351.200000,203.700000,352,204.700000,352.100000L204.700000,352.100000C210,352.600000,215.400000,352.600000,220.700000,352.100000L220.700000,352.100000C221.800000,352.100000,222.600000,351.200000,222.700000,350.100000Z" transform="translate(-212.700000,-342.100000)" opacity="0.15" fill="url(#ea95t17v6p4o13-fill)" stroke="none" stroke-width="1"/></g><g id="ea95t17v6p4o14_ts" transform="translate(270.700000,389.600000) scale(0,0)"><path id="ea95t17v6p4o14" d="M280.700000,397.600000L280.700000,397.600000C281.200000,392.300000,281.200000,386.900000,280.700000,381.600000L280.700000,381.600000C280.600000,380.500000,279.700000,379.700000,278.700000,379.600000L278.700000,379.600000C273.400000,379.100000,268,379.100000,262.700000,379.600000L262.700000,379.600000C261.600000,379.700000,260.800000,380.600000,260.700000,381.600000L260.700000,381.600000C260.200000,386.900000,260.200000,392.300000,260.700000,397.600000L260.700000,397.600000C260.800000,398.700000,261.700000,399.500000,262.700000,399.600000L262.700000,399.600000C268,400.100000,273.400000,400.100000,278.700000,399.600000L278.700000,399.600000C279.800000,399.600000,280.600000,398.700000,280.700000,397.600000Z" transform="translate(-270.700000,-389.600000)" opacity="0.15" fill="url(#ea95t17v6p4o14-fill)" stroke="none" stroke-width="1"/></g><g id="ea95t17v6p4o15_ts" transform="translate(270.700000,342.100000) scale(0,0)"><path id="ea95t17v6p4o15" d="M280.700000,350.100000L280.700000,350.100000C281.200000,344.800000,281.200000,339.400000,280.700000,334.100000L280.700000,334.100000C280.600000,333,279.700000,332.200000,278.700000,332.100000L278.700000,332.100000C273.400000,331.600000,268,331.600000,262.700000,332.100000L262.700000,332.100000C261.600000,332.200000,260.800000,333.100000,260.700000,334.100000L260.700000,334.100000C260.200000,339.400000,260.200000,344.800000,260.700000,350.100000L260.700000,350.100000C260.800000,351.200000,261.700000,352,262.700000,352.100000L262.700000,352.100000C268,352.600000,273.400000,352.600000,278.700000,352.100000L278.700000,352.100000C279.800000,352.100000,280.600000,351.200000,280.700000,350.100000Z" transform="translate(-270.700000,-342.100000)" opacity="0.15" fill="url(#ea95t17v6p4o15-fill)" stroke="none" stroke-width="1"/></g><g id="ea95t17v6p4o16_ts" transform="translate(328.700000,389.600000) scale(0,0)"><path id="ea95t17v6p4o16" d="M338.700000,397.600000L338.700000,397.600000C339.200000,392.300000,339.200000,386.900000,338.700000,381.600000L338.700000,381.600000C338.600000,380.500000,337.700000,379.700000,336.700000,379.600000L336.700000,379.600000C331.400000,379.100000,326,379.100000,320.700000,379.600000L320.700000,379.600000C319.600000,379.700000,318.800000,380.600000,318.700000,381.600000L318.700000,381.600000C318.200000,386.900000,318.200000,392.300000,318.700000,397.600000L318.700000,397.600000C318.800000,398.700000,319.700000,399.500000,320.700000,399.600000L320.700000,399.600000C326,400.100000,331.400000,400.100000,336.700000,399.600000L336.700000,399.600000C337.800000,399.600000,338.600000,398.700000,338.700000,397.600000Z" transform="translate(-328.700000,-389.600000)" opacity="0.15" fill="url(#ea95t17v6p4o16-fill)" stroke="none" stroke-width="1"/></g></g><g id="ea95t17v6p4o17"><g id="ea95t17v6p4o18_ts" transform="translate(38.100000,393) scale(0,0)"><path id="ea95t17v6p4o18" d="M48.100000,401L48.100000,401C48.600000,395.700000,48.600000,390.300000,48.100000,385L48.100000,385C48,383.900000,47.100000,383.100000,46.100000,383L46.100000,383C40.800000,382.500000,35.400000,382.500000,30.100000,383L30.100000,383C29,383.100000,28.200000,384,28.100000,385L28.100000,385C27.600000,390.300000,27.600000,395.700000,28.100000,401L28.100000,401C28.200000,402.100000,29.100000,402.900000,30.100000,403L30.100000,403C35.400000,403.500000,40.800000,403.500000,46.100000,403L46.100000,403C47.200000,402.900000,48,402.100000,48.100000,401Z" transform="translate(-38.100000,-393)" opacity="0.15" fill="url(#ea95t17v6p4o18-fill)" stroke="none" stroke-width="1"/></g><g id="ea95t17v6p4o19_ts" transform="translate(96.100000,393) scale(0,0)"><path id="ea95t17v6p4o19" d="M106.100000,401L106.100000,401C106.600000,395.700000,106.600000,390.300000,106.100000,385L106.100000,385C106,383.900000,105.100000,383.100000,104.100000,383L104.100000,383C98.800000,382.500000,93.400000,382.500000,88.100000,383L88.100000,383C87,383.100000,86.200000,384,86.100000,385L86.100000,385C85.600000,390.300000,85.600000,395.700000,86.100000,401L86.100000,401C86.200000,402.100000,87.100000,402.900000,88.100000,403L88.100000,403C93.400000,403.500000,98.800000,403.500000,104.100000,403L104.100000,403C105.200000,402.900000,106,402.100000,106.100000,401Z" transform="translate(-96.100000,-393)" opacity="0.15" fill="url(#ea95t17v6p4o19-fill)" stroke="none" stroke-width="1"/></g></g><g id="ea95t17v6p4o20_tr" transform="translate(231.900000,199.500000) rotate(0)"><path id="ea95t17v6p4o20" d="M37.500000,165C57.900000,56.700000,162.300000,-14.600000,270.700000,5.900000" transform="translate(-231.900000,-199.500000)" fill="none" stroke="rgb(227,227,227)" stroke-width="2.538900" stroke-miterlimit="10"/></g><path id="ea95t17v6p4o21" d="" fill="url(#ea95t17v6p4o21-fill)" stroke="none" stroke-width="1"/><polygon id="ea95t17v6p4o22" points="288.100000,148.100000 275.400000,161.800000 306,190.200000 165.100000,190.200000 165.100000,208.900000 306,208.900000 275.400000,237.200000 288.100000,250.900000 343.700000,199.500000" fill="url(#ea95t17v6p4o22-fill)" stroke="none" stroke-width="1"/><polygon id="ea95t17v6p4o23" points="202.900000,89.100000 190.200000,102.900000 212.100000,123.100000 143,123.100000 143,141.800000 212.100000,141.800000 190.200000,162 202.900000,175.800000 249.800000,132.500000" fill="url(#ea95t17v6p4o23-fill)" stroke="none" stroke-width="1"/><polygon id="ea95t17v6p4o24" points="185,235.100000 172.300000,248.800000 194.200000,269.100000 125.100000,269.100000 125.100000,287.800000 194.200000,287.800000 172.300000,308 185,321.800000 231.900000,278.400000" fill="url(#ea95t17v6p4o24-fill)" stroke="none" stroke-width="1"/></g></svg>