<svg id="e0t30ejpr2uaa1" xmlns="http://www.w3.org/2000/svg" xmlns:xlink="http://www.w3.org/1999/xlink" viewBox="0 0 800 900" shape-rendering="geometricPrecision" text-rendering="geometricPrecision"><style><![CDATA[#e0t30ejpr2uaa3_to {animation: e0t30ejpr2uaa3_to__to 7000ms linear infinite normal forwards}@keyframes e0t30ejpr2uaa3_to__to { 0% {transform: translate(0px,42.322376px)} 14.285714% {transform: translate(0px,0px)} 100% {transform: translate(0px,0px)} }#e0t30ejpr2uaa3 {animation: e0t30ejpr2uaa3_c_o 7000ms linear infinite normal forwards}@keyframes e0t30ejpr2uaa3_c_o { 0% {opacity: 0} 7.142857% {opacity: 1} 14.285714% {opacity: 0} 100% {opacity: 0} }#e0t30ejpr2uaa4_to {animation: e0t30ejpr2uaa4_to__to 7000ms linear infinite normal forwards}@keyframes e0t30ejpr2uaa4_to__to { 0% {transform: translate(0px,88.985508px)} 14.285714% {transform: translate(0px,0px)} 100% {transform: translate(0px,0px)} }#e0t30ejpr2uaa4 {animation: e0t30ejpr2uaa4_c_o 7000ms linear infinite normal forwards}@keyframes e0t30ejpr2uaa4_c_o { 0% {opacity: 0} 7.142857% {opacity: 1} 14.285714% {opacity: 0} 100% {opacity: 0} }#e0t30ejpr2uaa5_to {animation: e0t30ejpr2uaa5_to__to 7000ms linear infinite normal forwards}@keyframes e0t30ejpr2uaa5_to__to { 0% {transform: translate(1.398972px,28.031528px)} 1.428571% {transform: translate(1.398972px,28.031528px)} 12.857143% {transform: translate(0px,0px)} 100% {transform: translate(0px,0px)} }#e0t30ejpr2uaa5 {animation: e0t30ejpr2uaa5_c_o 7000ms linear infinite normal forwards}@keyframes e0t30ejpr2uaa5_c_o { 0% {opacity: 0} 1.428571% {opacity: 0} 7.142857% {opacity: 1} 12.857143% {opacity: 0} 100% {opacity: 0} }#e0t30ejpr2uaa6_to {animation: e0t30ejpr2uaa6_to__to 7000ms linear infinite normal forwards}@keyframes e0t30ejpr2uaa6_to__to { 0% {transform: translate(0px,122.791254px)} 2.857143% {transform: translate(0px,122.791254px)} 17.142857% {transform: translate(0px,0px)} 100% {transform: translate(0px,0px)} }#e0t30ejpr2uaa6 {animation: e0t30ejpr2uaa6_c_o 7000ms linear infinite normal forwards}@keyframes e0t30ejpr2uaa6_c_o { 0% {opacity: 0} 2.857143% {opacity: 0} 10% {opacity: 1} 17.142857% {opacity: 0} 100% {opacity: 0} }#e0t30ejpr2uaa7_to {animation: e0t30ejpr2uaa7_to__to 7000ms linear infinite normal forwards}@keyframes e0t30ejpr2uaa7_to__to { 0% {transform: translate(0px,32.531254px)} 14.285714% {transform: translate(0px,0px)} 100% {transform: translate(0px,0px)} }#e0t30ejpr2uaa7 {animation: e0t30ejpr2uaa7_c_o 7000ms linear infinite normal forwards}@keyframes e0t30ejpr2uaa7_c_o { 0% {opacity: 0} 7.142857% {opacity: 1} 14.285714% {opacity: 0} 100% {opacity: 0} }#e0t30ejpr2uaa8_to {animation: e0t30ejpr2uaa8_to__to 7000ms linear infinite normal forwards}@keyframes e0t30ejpr2uaa8_to__to { 0% {transform: translate(4.187945px,78.357063px)} 8.571429% {transform: translate(0px,0px)} 100% {transform: translate(0px,0px)} }#e0t30ejpr2uaa8 {animation: e0t30ejpr2uaa8_c_o 7000ms linear infinite normal forwards}@keyframes e0t30ejpr2uaa8_c_o { 0% {opacity: 0} 4.285714% {opacity: 1} 8.571429% {opacity: 0} 100% {opacity: 0} }#e0t30ejpr2uaa9_to {animation: e0t30ejpr2uaa9_to__to 7000ms linear infinite normal forwards}@keyframes e0t30ejpr2uaa9_to__to { 0% {transform: translate(-2.778972px,89.812508px)} 20% {transform: translate(0px,0px)} 100% {transform: translate(0px,0px)} }#e0t30ejpr2uaa9 {animation: e0t30ejpr2uaa9_c_o 7000ms linear infinite normal forwards}@keyframes e0t30ejpr2uaa9_c_o { 0% {opacity: 0} 10% {opacity: 1} 20% {opacity: 0} 100% {opacity: 0} }#e0t30ejpr2uaa10_to {animation: e0t30ejpr2uaa10_to__to 7000ms linear infinite normal forwards}@keyframes e0t30ejpr2uaa10_to__to { 0% {transform: translate(0.700982px,46.237158px)} 1.428571% {transform: translate(0.700982px,46.237158px)} 17.142857% {transform: translate(0px,0px)} 100% {transform: translate(0px,0px)} }#e0t30ejpr2uaa10 {animation: e0t30ejpr2uaa10_c_o 7000ms linear infinite normal forwards}@keyframes e0t30ejpr2uaa10_c_o { 0% {opacity: 0} 1.428571% {opacity: 0} 8.571429% {opacity: 1} 17.142857% {opacity: 0} 100% {opacity: 0} }#e0t30ejpr2uaa11_to {animation: e0t30ejpr2uaa11_to__to 7000ms linear infinite normal forwards}@keyframes e0t30ejpr2uaa11_to__to { 0% {transform: translate(0px,0px)} 50% {transform: translate(8.221769px,14.013512px)} 100% {transform: translate(0px,0px)} }#e0t30ejpr2uaa15_tr {animation: e0t30ejpr2uaa15_tr__tr 7000ms linear infinite normal forwards}@keyframes e0t30ejpr2uaa15_tr__tr { 0% {transform: translate(431.691781px,450px) rotate(0deg);animation-timing-function: cubic-bezier(0.420000,0,0.580000,1)} 100% {transform: translate(431.691781px,450px) rotate(360deg)} }#e0t30ejpr2uaa16 {
           animation-name: e0t30ejpr2uaa16_s_do, e0t30ejpr2uaa16_s_da;
           animation-duration: 7000ms;
           animation-fill-mode: forwards;
           animation-timing-function: linear;
           animation-direction: normal;
           animation-iteration-count: infinite;  
        }@keyframes e0t30ejpr2uaa16_s_do { 0% {stroke-dashoffset: 483.860000} 50% {stroke-dashoffset: 0} 100% {stroke-dashoffset: 483.860000} }@keyframes e0t30ejpr2uaa16_s_da { 0% {stroke-dasharray: 483.860000} 50% {stroke-dasharray: 483.860000} 100% {stroke-dasharray: 483.860000} }#e0t30ejpr2uaa17 {
           animation-name: e0t30ejpr2uaa17_s_do, e0t30ejpr2uaa17_s_da;
           animation-duration: 7000ms;
           animation-fill-mode: forwards;
           animation-timing-function: linear;
           animation-direction: normal;
           animation-iteration-count: infinite;  
        }@keyframes e0t30ejpr2uaa17_s_do { 0% {stroke-dashoffset: 483.860000;animation-timing-function: cubic-bezier(0.420000,0,0.580000,1)} 50% {stroke-dashoffset: 0;animation-timing-function: cubic-bezier(0.420000,0,0.580000,1)} 100% {stroke-dashoffset: 483.860000} }@keyframes e0t30ejpr2uaa17_s_da { 0% {stroke-dasharray: 483.860000} 50% {stroke-dasharray: 483.860000} 100% {stroke-dasharray: 483.860000} }]]></style><defs><linearGradient id="e0t30ejpr2uaa3-fill" x1="846.209570" y1="234.964498" x2="705.535695" y2="-126.767939" spreadMethod="pad" gradientUnits="userSpaceOnUse"><stop id="e0t30ejpr2uaa3-fill-0" offset="0%" stop-color="rgb(128,128,128)"/><stop id="e0t30ejpr2uaa3-fill-1" offset="100%" stop-color="rgb(239,239,239)"/></linearGradient><linearGradient id="e0t30ejpr2uaa4-fill" x1="769.697386" y1="264.718985" x2="629.023865" y2="-97.013099" spreadMethod="pad" gradientUnits="userSpaceOnUse"><stop id="e0t30ejpr2uaa4-fill-0" offset="0%" stop-color="rgb(128,128,128)"/><stop id="e0t30ejpr2uaa4-fill-1" offset="100%" stop-color="rgb(239,239,239)"/></linearGradient><linearGradient id="e0t30ejpr2uaa5-fill" x1="779.011944" y1="261.097148" x2="638.338706" y2="-100.635926" spreadMethod="pad" gradientUnits="userSpaceOnUse"><stop id="e0t30ejpr2uaa5-fill-0" offset="0%" stop-color="rgb(128,128,128)"/><stop id="e0t30ejpr2uaa5-fill-1" offset="100%" stop-color="rgb(239,239,239)"/></linearGradient><linearGradient id="e0t30ejpr2uaa6-fill" x1="782.344719" y1="259.800680" x2="641.670844" y2="-101.931757" spreadMethod="pad" gradientUnits="userSpaceOnUse"><stop id="e0t30ejpr2uaa6-fill-0" offset="0%" stop-color="rgb(128,128,128)"/><stop id="e0t30ejpr2uaa6-fill-1" offset="100%" stop-color="rgb(239,239,239)"/></linearGradient><linearGradient id="e0t30ejpr2uaa7-fill" x1="705.832889" y1="289.555520" x2="565.159014" y2="-72.176917" spreadMethod="pad" gradientUnits="userSpaceOnUse"><stop id="e0t30ejpr2uaa7-fill-0" offset="0%" stop-color="rgb(128,128,128)"/><stop id="e0t30ejpr2uaa7-fill-1" offset="100%" stop-color="rgb(239,239,239)"/></linearGradient><linearGradient id="e0t30ejpr2uaa8-fill" x1="629.320705" y1="319.310006" x2="488.647184" y2="-42.422077" spreadMethod="pad" gradientUnits="userSpaceOnUse"><stop id="e0t30ejpr2uaa8-fill-0" offset="0%" stop-color="rgb(128,128,128)"/><stop id="e0t30ejpr2uaa8-fill-1" offset="100%" stop-color="rgb(239,239,239)"/></linearGradient><linearGradient id="e0t30ejpr2uaa9-fill" x1="715.147093" y1="285.933329" x2="574.474209" y2="-75.799391" spreadMethod="pad" gradientUnits="userSpaceOnUse"><stop id="e0t30ejpr2uaa9-fill-0" offset="0%" stop-color="rgb(128,128,128)"/><stop id="e0t30ejpr2uaa9-fill-1" offset="100%" stop-color="rgb(239,239,239)"/></linearGradient><linearGradient id="e0t30ejpr2uaa10-fill" x1="638.635264" y1="315.688169" x2="497.962096" y2="-46.044975" spreadMethod="pad" gradientUnits="userSpaceOnUse"><stop id="e0t30ejpr2uaa10-fill-0" offset="0%" stop-color="rgb(128,128,128)"/><stop id="e0t30ejpr2uaa10-fill-1" offset="100%" stop-color="rgb(239,239,239)"/></linearGradient><filter id="e0t30ejpr2uaa11-filter" x="-400%" width="600%" y="-400%" height="600%"><feGaussianBlur id="e0t30ejpr2uaa11-filter-blur-0" stdDeviation="5,5" result="result"/></filter><linearGradient id="e0t30ejpr2uaa11-fill" x1="154.066000" y1="555.478800" x2="681.436600" y2="555.478800" spreadMethod="pad" gradientUnits="userSpaceOnUse"><stop id="e0t30ejpr2uaa11-fill-0" offset="0%" stop-color="rgb(128,128,128)"/><stop id="e0t30ejpr2uaa11-fill-1" offset="100%" stop-color="rgb(239,239,239)"/></linearGradient><linearGradient id="e0t30ejpr2uaa13-fill" x1="365.786700" y1="362.965800" x2="705.552200" y2="362.965800" spreadMethod="pad" gradientUnits="userSpaceOnUse"><stop id="e0t30ejpr2uaa13-fill-0" offset="0%" stop-color="rgb(0,87,111)"/><stop id="e0t30ejpr2uaa13-fill-1" offset="100%" stop-color="rgb(167,219,120)"/></linearGradient></defs><g id="e0t30ejpr2uaa2" transform="matrix(1 0 0 1 -104.37927060000015 39.22345500000000)" opacity="0.15"><g id="e0t30ejpr2uaa3_to" transform="translate(0,42.322376)"><path id="e0t30ejpr2uaa3" d="M795.690000,61.690000C797.780000,61.690000,799.240000,59.620000,798.540000,57.650000C797.500000,54.700000,795.650000,50.370000,792.510000,45.500000C788.360000,39.060000,783.490000,33.630000,779.660000,29.990000C778.490000,28.880000,776.650000,28.880000,775.490000,30C771.960000,33.380000,767,39.250000,762.970000,45.500000C759.830000,50.370000,757.980000,54.700000,756.940000,57.650000C756.250000,59.620000,757.700000,61.690000,759.790000,61.690000L795.690000,61.690000Z" transform="translate(0,0)" opacity="0" fill="url(#e0t30ejpr2uaa3-fill)" stroke="none" stroke-width="1"/></g><g id="e0t30ejpr2uaa4_to" transform="translate(0,88.985508)"><path id="e0t30ejpr2uaa4" d="M707.610000,61.690000C709.700000,61.690000,711.160000,59.620000,710.460000,57.650000C709.420000,54.700000,707.570000,50.370000,704.430000,45.500000C700.280000,39.060000,695.410000,33.630000,691.580000,29.990000C690.410000,28.880000,688.570000,28.880000,687.410000,30C683.880000,33.380000,678.920000,39.250000,674.890000,45.500000C671.750000,50.370000,669.900000,54.700000,668.860000,57.650000C668.170000,59.620000,669.620000,61.690000,671.710000,61.690000L707.610000,61.690000Z" transform="translate(0,0)" opacity="0" fill="url(#e0t30ejpr2uaa4-fill)" stroke="none" stroke-width="1"/></g><g id="e0t30ejpr2uaa5_to" transform="translate(1.398972,28.031528)"><path id="e0t30ejpr2uaa5" d="M752.340000,149.160000C754.430000,149.160000,755.890000,147.090000,755.190000,145.120000C754.150000,142.170000,752.300000,137.840000,749.160000,132.970000C745.010000,126.530000,740.140000,121.100000,736.310000,117.460000C735.140000,116.350000,733.300000,116.350000,732.140000,117.470000C728.610000,120.850000,723.650000,126.720000,719.620000,132.970000C716.480000,137.840000,714.630000,142.170000,713.590000,145.120000C712.900000,147.090000,714.350000,149.160000,716.440000,149.160000L752.340000,149.160000Z" transform="translate(0,0)" opacity="0" fill="url(#e0t30ejpr2uaa5-fill)" stroke="none" stroke-width="1"/></g><g id="e0t30ejpr2uaa6_to" transform="translate(0,122.791254)"><path id="e0t30ejpr2uaa6" d="M795.690000,250.760000C797.780000,250.760000,799.240000,248.690000,798.540000,246.720000C797.500000,243.770000,795.650000,239.440000,792.510000,234.570000C788.360000,228.130000,783.490000,222.700000,779.660000,219.060000C778.490000,217.950000,776.650000,217.950000,775.490000,219.070000C771.960000,222.450000,767,228.320000,762.970000,234.570000C759.830000,239.440000,757.980000,243.770000,756.940000,246.720000C756.250000,248.690000,757.700000,250.760000,759.790000,250.760000L795.690000,250.760000Z" transform="translate(0,0)" opacity="0" fill="url(#e0t30ejpr2uaa6-fill)" stroke="none" stroke-width="1"/></g><g id="e0t30ejpr2uaa7_to" transform="translate(0,32.531254)"><path id="e0t30ejpr2uaa7" d="M707.610000,250.760000C709.700000,250.760000,711.160000,248.690000,710.460000,246.720000C709.420000,243.770000,707.570000,239.440000,704.430000,234.570000C700.280000,228.130000,695.410000,222.700000,691.580000,219.060000C690.410000,217.950000,688.570000,217.950000,687.410000,219.070000C683.880000,222.450000,678.920000,228.320000,674.890000,234.570000C671.750000,239.440000,669.900000,243.770000,668.860000,246.720000C668.170000,248.690000,669.620000,250.760000,671.710000,250.760000L707.610000,250.760000Z" transform="translate(0,0)" opacity="0" fill="url(#e0t30ejpr2uaa7-fill)" stroke="none" stroke-width="1"/></g><g id="e0t30ejpr2uaa8_to" transform="translate(4.187945,78.357063)"><path id="e0t30ejpr2uaa8" d="M619.520000,250.760000C621.610000,250.760000,623.070000,248.690000,622.370000,246.720000C621.330000,243.770000,619.480000,239.440000,616.340000,234.570000C612.190000,228.130000,607.320000,222.700000,603.490000,219.060000C602.320000,217.950000,600.480000,217.950000,599.320000,219.070000C595.790000,222.450000,590.830000,228.320000,586.800000,234.570000C583.660000,239.440000,581.810000,243.770000,580.770000,246.720000C580.080000,248.690000,581.530000,250.760000,583.620000,250.760000L619.520000,250.760000Z" transform="translate(0,0)" opacity="0" fill="url(#e0t30ejpr2uaa8-fill)" stroke="none" stroke-width="1"/></g><g id="e0t30ejpr2uaa9_to" transform="translate(-2.778972,89.812508)"><path id="e0t30ejpr2uaa9" d="M752.340000,338.220000C754.430000,338.220000,755.890000,336.150000,755.190000,334.180000C754.150000,331.230000,752.300000,326.900000,749.160000,322.030000C745.010000,315.590000,740.140000,310.160000,736.310000,306.520000C735.140000,305.410000,733.300000,305.410000,732.140000,306.530000C728.610000,309.910000,723.650000,315.780000,719.620000,322.030000C716.480000,326.900000,714.630000,331.230000,713.590000,334.180000C712.900000,336.150000,714.350000,338.220000,716.440000,338.220000L752.340000,338.220000Z" transform="translate(0,0)" opacity="0" fill="url(#e0t30ejpr2uaa9-fill)" stroke="none" stroke-width="1"/></g><g id="e0t30ejpr2uaa10_to" transform="translate(0.700982,46.237158)"><path id="e0t30ejpr2uaa10" d="M664.260000,338.220000C666.350000,338.220000,667.810000,336.150000,667.110000,334.180000C666.070000,331.230000,664.220000,326.900000,661.080000,322.030000C656.930000,315.590000,652.060000,310.160000,648.230000,306.520000C647.060000,305.410000,645.220000,305.410000,644.060000,306.530000C640.530000,309.910000,635.570000,315.780000,631.540000,322.030000C628.400000,326.900000,626.550000,331.230000,625.510000,334.180000C624.820000,336.150000,626.270000,338.220000,628.360000,338.220000L664.260000,338.220000Z" transform="translate(0,0)" opacity="0" fill="url(#e0t30ejpr2uaa10-fill)" stroke="none" stroke-width="1"/></g></g><g id="e0t30ejpr2uaa11_to" transform="translate(0,0)"><path id="e0t30ejpr2uaa11" d="M681.440000,517.180542C681.440000,449.453921,627.426523,394.362356,561.043801,394.362356C557.730908,394.362356,554.376395,394.506709,551.030207,394.803904C527.881574,361.382141,489.849893,341.020000,449.437590,341.020000C386.051455,341.020000,333.586214,389.683649,326.078100,452.306998C279.248107,456.739458,242.465004,497.047666,242.465004,545.957563C242.465004,597.813942,283.826225,640.007219,334.659991,640.007219L366.681851,640.007219L366.681851,705.245889L588.637371,705.245889L588.637371,636.729577C641.760196,623.967151,681.440000,575.218588,681.440000,517.180542Z" transform="translate(0,0)" opacity="0.15" filter="url(#e0t30ejpr2uaa11-filter)" fill="url(#e0t30ejpr2uaa11-fill)" stroke="none" stroke-width="1"/></g><g id="e0t30ejpr2uaa12" transform="matrix(1 0 0 1 -103.97821864000139 80.89875251000001)"><path id="e0t30ejpr2uaa13" d="M705.550000,358.460000C705.550000,307.080000,663.740000,265.270000,612.360000,265.270000C609.790000,265.270000,607.200000,265.380000,604.610000,265.600000C586.690000,240.240000,557.260000,224.790000,525.980000,224.790000C476.920000,224.790000,436.310000,261.710000,430.500000,309.230000C394.260000,312.590000,365.790000,343.180000,365.790000,380.290000C365.790000,419.640000,397.800000,451.650000,437.150000,451.650000L461.940000,451.650000L461.940000,501.150000L633.730000,501.150000L633.730000,449.070000C674.830000,439.370000,705.550000,402.480000,705.550000,358.460000ZM609.610000,397.140000L486.050000,397.140000L486.050000,375.910000L609.610000,375.910000L609.610000,397.140000ZM486.050000,477.030000L486.050000,421.260000L609.610000,421.260000L609.610000,477.030000L486.050000,477.030000ZM633.720000,424.060000L633.720000,351.790000L461.930000,351.790000L461.930000,427.530000L437.140000,427.530000C411.090000,427.530000,389.900000,406.340000,389.900000,380.290000C389.900000,354.240000,411.090000,333.040000,437.140000,333.040000C438.410000,333.040000,439.670000,333.110000,440.920000,333.210000L453.910000,334.210000L453.910000,321.180000L453.900000,320.710000C454.050000,281.090000,486.320000,248.900000,525.980000,248.900000C551.450000,248.900000,575.290000,262.580000,588.200000,284.600000L592.420000,291.790000L600.640000,290.380000C604.570000,289.710000,608.520000,289.360000,612.370000,289.360000C650.460000,289.360000,681.440000,320.350000,681.440000,358.430000C681.440000,389.080000,661.380000,415.050000,633.720000,424.060000Z" fill="url(#e0t30ejpr2uaa13-fill)" stroke="none" stroke-width="1"/><rect id="e0t30ejpr2uaa14" width="67.930000" height="24.120000" rx="0" ry="0" transform="matrix(1 0 0 1 500.55000000000001 436.76999999999998)" fill="rgb(0,87,111)" stroke="none" stroke-width="1"/></g><g id="e0t30ejpr2uaa15_tr" transform="translate(431.691781,450) rotate(0)"><g id="e0t30ejpr2uaa15" transform="translate(-535.665009,-386.519989)"><path id="e0t30ejpr2uaa16" d="M843.650000,386.520000C843.650000,556.620000,705.760000,694.510000,535.660000,694.510000" fill="none" stroke="rgb(227,227,227)" stroke-width="5" stroke-miterlimit="10" stroke-dashoffset="483.860000" stroke-dasharray="483.860000"/><path id="e0t30ejpr2uaa17" d="M227.680000,386.520000C227.680000,216.420000,365.570000,78.530000,535.670000,78.530000" fill="none" stroke="rgb(227,227,227)" stroke-width="5" stroke-miterlimit="10" stroke-dashoffset="483.860000" stroke-dasharray="483.860000"/></g></g></svg>