<?xml version="1.0" encoding="utf-8"?>
<!-- Generator: Adobe Illustrator 24.1.0, SVG Export Plug-In . SVG Version: 6.00 Build 0)  -->
<svg version="1.1" id="Art" xmlns="http://www.w3.org/2000/svg" xmlns:xlink="http://www.w3.org/1999/xlink" x="0px" y="0px"
	 viewBox="0 0 807.7 126.6" style="enable-background:new 0 0 807.7 126.6;" xml:space="preserve">
<style type="text/css">
	.st0{fill:#EA4335;}
	.st1{fill:#4285F4;}
	.st2{fill:#34A853;}
	.st3{fill:#FBBC05;}
	.st4{fill:#5F6368;}
</style>
<path class="st0" d="M95.2,33.3l4.8,0.1l13-13l0.6-5.5C103.3,5.6,89.7,0,74.8,0c-27,0-49.8,18.4-56.5,43.2c1.4-1,4.5-0.3,4.5-0.3
	l26-4.3c0,0,1.3-2.2,2-2.1c6-6.5,14.5-10.6,24-10.6C82.5,26,89.6,28.7,95.2,33.3z"/>
<path class="st1" d="M131.3,43.3c-3-11.2-9.3-21-17.7-28.5L95.2,33.2c7.4,6,12.1,15.1,12.1,25.3v3.3c9,0,16.3,7.3,16.3,16.3
	s-7.3,16.3-16.3,16.3H74.8l-3.3,3.3v19.5l3.3,3.2h32.5c23.3,0,42.3-19,42.3-42.3C149.6,63.6,142.4,50.9,131.3,43.3z"/>
<path class="st2" d="M42.3,120.3h32.5v-26H42.3c-2.4,0-4.7-0.5-6.7-1.5l-4.7,1.4l-13,13l-1.1,4.4C23.8,117.1,32.7,120.3,42.3,120.3z
	"/>
<path class="st3" d="M42.3,35.8C19,35.8,0,54.7,0,78.1c0,13.7,6.6,25.9,16.7,33.7l18.9-18.9C30,90.3,26,84.7,26,78.1
	c0-9,7.3-16.3,16.3-16.3c6.6,0,12.3,3.9,14.8,9.6L76,52.5C68.2,42.4,56,35.8,42.3,35.8z"/>
<path class="st4" d="M236.5,102.2c-11.7,0-21.7-4.1-30.1-12.4c-8.4-8.3-12.7-18.2-12.7-29.8s4.2-21.5,12.7-29.8
	c8.4-8.3,18.5-12.4,30.1-12.4c11.2,0,20.8,3.9,28.9,11.6l-8.1,8.1c-5.8-5.5-12.8-8.2-20.8-8.2c-8.4,0-15.6,3-21.4,8.9
	c-5.9,6-8.8,13.2-8.8,21.7c0,8.5,2.9,15.7,8.8,21.7c5.9,6,13,8.9,21.4,8.9c8.6,0,15.7-2.8,21.3-8.4c3.4-3.4,5.5-8.2,6.3-14.5h-27.6
	V56.2h38.8c0.4,2.1,0.6,4.5,0.6,7.2c0,11.3-3.3,20.3-10,26.9C258.3,98.2,248.5,102.2,236.5,102.2z M326.6,94.4
	c-5.3,5.2-11.7,7.8-19.3,7.8c-7.6,0-14.1-2.6-19.3-7.8c-5.3-5.2-7.9-11.6-7.9-19.4c0-7.7,2.6-14.2,7.9-19.4
	c5.3-5.2,11.7-7.8,19.3-7.8c7.6,0,14.1,2.6,19.3,7.8c5.3,5.2,7.9,11.6,7.9,19.4C334.5,82.8,331.8,89.2,326.6,94.4z M296.4,86.8
	c3,3.1,6.6,4.7,10.8,4.7c4.2,0,7.8-1.6,10.8-4.7c3-3.1,4.5-7,4.5-11.8c0-4.8-1.5-8.7-4.5-11.8s-6.6-4.6-10.9-4.6
	c-4.3,0-7.9,1.5-10.9,4.6c-3,3.1-4.5,7-4.5,11.8C291.9,79.8,293.4,83.7,296.4,86.8z M386,94.4c-5.3,5.2-11.7,7.8-19.3,7.8
	s-14.1-2.6-19.3-7.8c-5.3-5.2-7.9-11.6-7.9-19.4c0-7.7,2.6-14.2,7.9-19.4c5.3-5.2,11.7-7.8,19.3-7.8s14.1,2.6,19.3,7.8
	c5.3,5.2,7.9,11.6,7.9,19.4C393.9,82.8,391.3,89.2,386,94.4z M355.9,86.8c3,3.1,6.6,4.7,10.8,4.7c4.2,0,7.8-1.6,10.8-4.7
	c3-3.1,4.5-7,4.5-11.8c0-4.8-1.5-8.7-4.5-11.8c-3-3.1-6.6-4.6-10.9-4.6c-4.3,0-7.9,1.5-10.9,4.6c-3,3.1-4.5,7-4.5,11.8
	C351.3,79.8,352.9,83.7,355.9,86.8z M425.1,126.6c-6,0-11.1-1.6-15.2-4.8c-4.1-3.2-7.1-7-8.8-11.2l10.4-4.3c1.1,2.6,2.8,4.9,5.1,6.8
	c2.3,1.9,5.2,2.9,8.5,2.9c4.5,0,8.1-1.4,10.6-4.1c2.6-2.7,3.9-6.7,3.9-11.8V96h-0.4c-3.4,4.1-8.1,6.2-14.3,6.2
	c-6.9,0-13-2.6-18.2-7.9c-5.2-5.3-7.8-11.7-7.8-19.1c0-7.5,2.6-14,7.8-19.3c5.2-5.3,11.3-8,18.2-8c3.1,0,5.9,0.6,8.4,1.7
	c2.5,1.2,4.5,2.6,5.9,4.3h0.4v-4.4h11.3v48.8c0,9.5-2.4,16.5-7.3,21.2C438.8,124.2,432.6,126.6,425.1,126.6z M425.9,91.5
	c4.1,0,7.6-1.6,10.3-4.7c2.8-3.1,4.2-7,4.2-11.7c0-4.7-1.4-8.7-4.2-11.8c-2.8-3.2-6.2-4.7-10.3-4.7c-4.2,0-7.7,1.6-10.7,4.7
	c-2.9,3.2-4.4,7.1-4.4,11.8c0,4.7,1.5,8.6,4.4,11.7C418.2,89.9,421.7,91.5,425.9,91.5z M471.1,20.7v79.8h-11.9V20.7H471.1z
	 M503.8,102.2c-7.7,0-14.1-2.6-19.2-7.8c-5.1-5.2-7.7-11.7-7.7-19.3c0-8,2.5-14.5,7.5-19.5c5-5.1,11-7.6,18.2-7.6
	c3.3,0,6.3,0.6,9.2,1.8c2.8,1.2,5.1,2.7,7,4.6c1.9,1.9,3.3,3.7,4.4,5.5c1.1,1.8,2,3.6,2.7,5.3l1.2,3.1l-36.3,15
	c2.8,5.5,7.2,8.2,13.2,8.2c5.5,0,9.9-2.5,13.4-7.5l9.3,6.2c-2.1,3.1-5,5.9-8.7,8.3C513.9,101,509.3,102.2,503.8,102.2z M488.7,74.2
	l24.3-10.1c-0.7-1.7-2-3.1-3.8-4.2c-1.9-1.1-3.9-1.6-6.3-1.6c-3.5,0-6.8,1.4-9.8,4.3C490,65.6,488.5,69.4,488.7,74.2z"/>
<path class="st4" d="M589.6,102.2c-10.8,0-19.9-3.7-27.3-11c-7.3-7.3-11-16.5-11-27.5c0-11,3.7-20.1,11-27.5
	c7.3-7.3,16.4-11,27.3-11c11.1,0,20.1,4,27.1,12l-6.6,6.4c-5-6.2-11.8-9.4-20.5-9.4c-8,0-14.8,2.7-20.3,8.1
	c-5.5,5.4-8.3,12.5-8.3,21.3c0,8.8,2.8,15.9,8.3,21.3c5.5,5.4,12.3,8.1,20.3,8.1c8.8,0,16.4-3.6,22.6-10.7l6.6,6.6
	c-3.4,4-7.6,7.3-12.7,9.6C601.1,101,595.5,102.2,589.6,102.2z"/>
<path class="st4" d="M636.7,100.5h-9.5V26.9h9.5V100.5z"/>
<path class="st4" d="M652.1,56.2c4.9-5.1,11.1-7.7,18.6-7.7c7.5,0,13.7,2.6,18.6,7.7c4.9,5.1,7.3,11.5,7.3,19.2
	c0,7.7-2.4,14.1-7.3,19.2c-4.9,5.1-11.1,7.7-18.6,7.7c-7.5,0-13.7-2.6-18.6-7.7c-4.9-5.1-7.3-11.5-7.3-19.2
	C644.8,67.7,647.2,61.3,652.1,56.2z M659.2,88.6c3.3,3.3,7.1,5,11.6,5c4.5,0,8.3-1.7,11.6-5c3.3-3.3,4.9-7.7,4.9-13.2
	c0-5.5-1.6-9.9-4.9-13.2c-3.3-3.3-7.1-5-11.6-5c-4.5,0-8.3,1.7-11.6,5c-3.3,3.3-4.9,7.7-4.9,13.2C654.3,80.8,655.9,85.2,659.2,88.6z
	"/>
<path class="st4" d="M749,100.5H740v-7h-0.4c-1.4,2.4-3.6,4.4-6.6,6.1c-2.9,1.7-6.1,2.5-9.4,2.5c-6.3,0-11.1-1.9-14.3-5.8
	c-3.3-3.8-4.9-9-4.9-15.4V50.1h9.5v29.3c0,9.4,4.1,14.1,12.4,14.1c3.9,0,7.1-1.6,9.6-4.7c2.5-3.2,3.7-6.8,3.7-10.9V50.1h9.5V100.5z"
	/>
<path class="st4" d="M781.1,102.2c-6.5,0-12.1-2.6-16.9-7.7c-4.7-5.1-7.1-11.5-7.1-19.1c0-7.6,2.4-14,7.1-19.1
	c4.7-5.1,10.4-7.7,16.9-7.7c3.8,0,7.3,0.8,10.3,2.5c3.1,1.6,5.3,3.7,6.8,6.2h0.4l-0.4-7V26.9h9.5v73.6h-9.1v-7h-0.4
	c-1.5,2.5-3.8,4.5-6.8,6.2C788.4,101.4,784.9,102.2,781.1,102.2z M782.6,93.6c4.5,0,8.2-1.6,11.4-4.9c3.1-3.3,4.7-7.7,4.7-13.3
	c0-5.6-1.6-10-4.7-13.3c-3.1-3.3-6.9-4.9-11.4-4.9c-4.4,0-8.2,1.7-11.3,5c-3.2,3.3-4.7,7.7-4.7,13.2c0,5.5,1.6,9.9,4.7,13.2
	C774.5,91.9,778.2,93.6,782.6,93.6z"/>
</svg>
