<svg id="Group_414" data-name="Group 414" xmlns="http://www.w3.org/2000/svg" width="100%" height="100%" viewBox="0 0 74.727 58.454">
  <path id="Path_914" data-name="Path 914" d="M-5180.625-582.783h-52.213v-2.68a26.136,26.136,0,0,1,26.106-26.107,26.138,26.138,0,0,1,26.106,26.107Zm-46.681-5.36h41.148a20.78,20.78,0,0,0-20.574-18.068A20.775,20.775,0,0,0-5227.306-588.143Z" transform="translate(5232.838 641.237)" fill="#333"/>
  <path id="Path_915" data-name="Path 915" d="M-5207.4-606.968a16.156,16.156,0,0,1-16.138-16.139,16.156,16.156,0,0,1,16.138-16.139,16.157,16.157,0,0,1,16.139,16.139A16.157,16.157,0,0,1-5207.4-606.968Zm0-26.919a10.791,10.791,0,0,0-10.778,10.779,10.791,10.791,0,0,0,10.778,10.779,10.791,10.791,0,0,0,10.779-10.779A10.791,10.791,0,0,0-5207.4-633.886Z" transform="translate(5233.507 639.246)" fill="#333"/>
  <path id="Path_916" data-name="Path 916" d="M-5161.009-587.512h-25.453v-5.36h19.826a13.543,13.543,0,0,0-13.252-10.838,13.487,13.487,0,0,0-9.072,3.5l-3.6-3.972a18.833,18.833,0,0,1,12.67-4.884,18.9,18.9,0,0,1,18.878,18.878Z" transform="translate(5235.736 641.417)" fill="#333"/>
  <path id="Path_917" data-name="Path 917" d="M-5179.933-604.234a12,12,0,0,1-11.985-11.986,12,12,0,0,1,11.985-11.985,12,12,0,0,1,11.985,11.985A12,12,0,0,1-5179.933-604.234Zm0-18.612a6.634,6.634,0,0,0-6.626,6.626,6.635,6.635,0,0,0,6.626,6.627,6.634,6.634,0,0,0,6.625-6.627A6.634,6.634,0,0,0-5179.933-622.846Z" transform="translate(5235.781 640.04)" fill="#333"/>
</svg>
