<svg xmlns="http://www.w3.org/2000/svg" viewBox="0 0 80 80"><defs><style>.cls-1,.cls-2{fill:none;stroke:#00576f;stroke-width:5px;}.cls-1{stroke-miterlimit:10;}.cls-2{stroke-miterlimit:56;}.cls-3{fill:#fff;}.cls-4{fill:#005770;}</style></defs><title>redapt_icons_capabilities_2019.09</title><g id="Layer_1" data-name="Layer 1"><path class="cls-1" d="M56.25,21.45a17.52,17.52,0,0,0-2.92.25,17.86,17.86,0,0,0-33.28,9v0c-.33,0-.66,0-1,0a12.59,12.59,0,0,0,0,25.18h37.2a17.23,17.23,0,0,0,0-34.45Z"/><polyline class="cls-2" points="31.8 40.84 40.86 32.1 49.91 40.84"/><rect class="cls-3" x="23.21" y="46.81" width="35.29" height="18.18"/><line class="cls-2" x1="40.86" y1="32.1" x2="40.86" y2="47.34"/><rect class="cls-4" x="28.6" y="55.59" width="4.98" height="4.98"/><rect class="cls-4" x="28.6" y="65.82" width="4.98" height="4.98"/><rect class="cls-4" x="38.37" y="52.59" width="4.98" height="4.98"/><rect class="cls-4" x="38.37" y="62.82" width="4.98" height="4.98"/><rect class="cls-4" x="48.14" y="49.59" width="4.98" height="4.98"/><rect class="cls-4" x="48.14" y="59.82" width="4.98" height="4.98"/></g></svg>