<svg xmlns="http://www.w3.org/2000/svg" viewBox="0 0 80 80"><defs><style>.cls-1{fill:none;stroke:#00576f;stroke-miterlimit:10;stroke-width:5px;}.cls-2{font-size:10px;fill:#fff;font-family:MyriadPro-Regular, Myriad Pro;}.cls-3{letter-spacing:0em;}</style></defs><title>redapt_icons_capabilities_2019.09</title><g id="Layer_1" data-name="Layer 1"><path class="cls-1" d="M31.67,14.86a8.28,8.28,0,0,0-1.5.13A9.19,9.19,0,0,0,13,19.63v0l-.52,0a6.48,6.48,0,0,0,0,13H31.67a8.87,8.87,0,1,0,0-17.73Z"/><path class="cls-1" d="M67.17,33.74a9.29,9.29,0,0,0-1.5.13,9.19,9.19,0,0,0-17.13,4.64v0a4.53,4.53,0,0,0-.52,0,6.49,6.49,0,0,0,0,13H67.17a8.87,8.87,0,1,0,0-17.74Z"/><path class="cls-1" d="M31.67,52.63a8.28,8.28,0,0,0-1.5.13A9.19,9.19,0,0,0,13,57.4v0l-.52,0a6.48,6.48,0,0,0,0,13H31.67a8.87,8.87,0,1,0,0-17.73Z"/><line class="cls-1" x1="25.14" y1="34.59" x2="25.14" y2="48.2"/><polyline class="cls-1" points="40.26 19.51 57.55 19.51 57.55 29.67"/><polyline class="cls-1" points="40.26 62.53 57.55 62.53 57.55 52.37"/></g><g id="text"><text class="cls-2" transform="translate(5 -9.31)"><tspan class="cls-3">M</tspan><tspan x="8.07" y="0">ulticloud</tspan></text></g></svg>