<svg xmlns="http://www.w3.org/2000/svg" viewBox="0 0 80 80"><defs><style>.cls-1{fill:none;stroke:#00576f;stroke-miterlimit:10;stroke-width:5px;}.cls-2{fill:#00576f;}</style></defs><title>redapt_icons_capabilities_2019.09</title><g id="Layer_1" data-name="Layer 1"><rect class="cls-1" x="19.83" y="18.7" width="40.34" height="44.1"/><line class="cls-1" x1="20.15" y1="33.4" x2="59.85" y2="33.4"/><line class="cls-1" x1="20.15" y1="48.09" x2="59.85" y2="48.09"/><path class="cls-2" d="M51.25,23.46a2.59,2.59,0,1,0,2.58,2.59A2.59,2.59,0,0,0,51.25,23.46Z"/><circle class="cls-2" cx="51.25" cy="40.75" r="2.59"/><circle class="cls-2" cx="51.25" cy="55.45" r="2.59"/><line class="cls-1" x1="27.14" y1="23.89" x2="27.14" y2="28.22"/><line class="cls-1" x1="34.53" y1="23.89" x2="34.53" y2="28.22"/><line class="cls-1" x1="27.14" y1="38.58" x2="27.14" y2="42.91"/><line class="cls-1" x1="34.53" y1="38.58" x2="34.53" y2="42.91"/><line class="cls-1" x1="27.14" y1="53.29" x2="27.14" y2="57.62"/><line class="cls-1" x1="34.53" y1="53.29" x2="34.53" y2="57.62"/><polyline class="cls-1" points="19.9 72.45 7.62 72.45 7.62 60.14"/><polyline class="cls-1" points="53.41 7.55 72.38 7.55 72.38 26.57"/></g></svg>