<svg xmlns="http://www.w3.org/2000/svg" viewBox="0 0 80 80"><defs><style>.cls-1{fill:none;stroke:#005770;stroke-miterlimit:10;stroke-width:5px;}.cls-2{fill:#005770;}</style></defs><title>redapt_icons_capabilities_2019.09</title><g id="Layer_1" data-name="Layer 1"><path class="cls-1" d="M7.5,29.76h65m-55,37H7.5v-53h65v53h-10"/><path class="cls-2" d="M66,21.76a3.09,3.09,0,1,1-3.09-3.09A3.08,3.08,0,0,1,66,21.76"/><path class="cls-2" d="M56.18,21.76a3.09,3.09,0,1,1-3.09-3.09,3.09,3.09,0,0,1,3.09,3.09"/><line class="cls-1" x1="26.09" y1="48.29" x2="30.73" y2="50.97"/><line class="cls-1" x1="40" y1="40.26" x2="40" y2="45.62"/><line class="cls-1" x1="26.09" y1="64.35" x2="30.73" y2="61.68"/><line class="cls-1" x1="40" y1="72.38" x2="40" y2="67.03"/><line class="cls-1" x1="53.91" y1="64.35" x2="49.27" y2="61.68"/><line class="cls-1" x1="53.91" y1="48.29" x2="49.27" y2="50.97"/><circle class="cls-1" cx="40" cy="56.32" r="9.01"/></g></svg>