<svg xmlns="http://www.w3.org/2000/svg" viewBox="0 0 80 80"><defs><style>.cls-1,.cls-2{fill:none;stroke-miterlimit:10;stroke-width:5px;}.cls-1{stroke:#005770;}.cls-2{stroke:#015770;}</style></defs><title>redapt_icons_capabilities_2019.09</title><g id="Layer_1" data-name="Layer 1"><circle class="cls-1" cx="40" cy="40" r="22.93"/><line class="cls-1" x1="40" y1="7.14" x2="40" y2="18.09"/><line class="cls-1" x1="11.54" y1="23.57" x2="21.03" y2="29.05"/><line class="cls-1" x1="11.54" y1="56.43" x2="21.03" y2="50.95"/><line class="cls-1" x1="40" y1="72.86" x2="40" y2="61.91"/><line class="cls-1" x1="68.46" y1="56.43" x2="58.97" y2="50.95"/><line class="cls-1" x1="68.46" y1="23.57" x2="58.97" y2="29.05"/><path class="cls-2" d="M29.6,58.71l6.94-6.94a13.29,13.29,0,0,0,11.77-3.53C51.73,44.82,53,39,50.06,34.7L43,41.79l-4.9-4.9,7.09-7.09c-4.34-3-10.12-1.67-13.54,1.75a13.29,13.29,0,0,0-3.53,11.77l-6.94,6.94"/></g></svg>