<svg xmlns="http://www.w3.org/2000/svg" viewBox="0 0 80 80"><defs><style>.cls-1{fill:none;stroke:#005770;stroke-miterlimit:10;stroke-width:5px;}.cls-2{fill:#005770;}</style></defs><title>redapt_icon_managed-services</title><g id="Layer_1" data-name="Layer 1"><line class="cls-1" x1="14.67" y1="28.57" x2="64.25" y2="28.57"/><polyline class="cls-1" points="14.67 45.81 14.67 14.33 64.25 14.33 64.25 45.81"/><path class="cls-2" d="M58.6,21.84A2.6,2.6,0,1,1,56,19.24a2.59,2.59,0,0,1,2.59,2.6"/><path class="cls-2" d="M50.34,21.84a2.6,2.6,0,1,1-2.59-2.6,2.59,2.59,0,0,1,2.59,2.6"/><polyline class="cls-1" points="7.97 48.48 24.07 43.88 33.01 47.12 47.11 45.3 50.01 52.31"/><polyline class="cls-1" points="32.97 59.03 68.55 45.77 72.14 53.63 38.08 71.03 7.97 65.58"/></g></svg>