<svg xmlns="http://www.w3.org/2000/svg" viewBox="0 0 296.18 339.97"><defs><style>.cls-1{fill:#fff;}</style></defs><g id="Layer_2" data-name="Layer 2"><g id="Layer_1-2" data-name="Layer 1"><path class="cls-1" d="M161.78,164.42h0c-3.91-1.31-7.8-2.41-11.48-3.45-15.7-4.45-25.46-7.63-28.31-16.41a9.09,9.09,0,0,1,1.63-8.48c1.58-2.17,8-9.27,24-9.27s25.1,4.67,27.65,7.14c-.17-.17-.25-.27-.25-.27l16.14-14.45c-.9-1-4.37-4.52-11.43-7.83a68.4,68.4,0,0,0-21.63-5.71V85.47H136.47v20.59c-13,2.18-23.77,8.2-30.36,17.28a30.81,30.81,0,0,0-4.71,27.89c6.56,20.23,25.92,25.72,43,30.57h0c14.34,4.07,26.7,7.63,31.44,18.12a9.56,9.56,0,0,1-1,9.49c-1.95,2.89-8.5,9.51-27.17,8.7-12.87-.56-22.41-7.38-27.65-12.27-.69-.63-1.3-1.24-1.83-1.79l-15.32,15.31c.56.58,1.17,1.18,1.82,1.81a67.21,67.21,0,0,0,31.5,17.2v20.82H157.9V239.52c20.79-1.86,30.67-11.68,34.93-18A31.23,31.23,0,0,0,195.59,191C188.72,175.8,175.12,168.9,161.78,164.42Z"/><path class="cls-1" d="M278.85,172.33a129.86,129.86,0,0,0-12-54.53l29.29-16.91L284,79.8,254.68,96.72a130.77,130.77,0,0,0-94.41-54.57V8.36H135.91V42.15A130.77,130.77,0,0,0,41.5,96.72L12.18,79.8,0,100.89,29.28,117.8a130.29,130.29,0,0,0,0,109.06L0,243.76l12.18,21.1L41.5,247.93a130.79,130.79,0,0,0,94.41,54.58V336.3h24.36V302.51a130.79,130.79,0,0,0,94.41-54.58L284,264.86l12.18-21.1-29.29-16.9A129.86,129.86,0,0,0,278.85,172.33ZM148.09,278.73a106.41,106.41,0,1,1,106.4-106.4A106.53,106.53,0,0,1,148.09,278.73Z"/><circle class="cls-1" cx="49.24" cy="324.1" r="15.87"/><circle class="cls-1" cx="238.62" cy="15.87" r="15.87"/></g></g></svg>