<svg xmlns="http://www.w3.org/2000/svg" xmlns:xlink="http://www.w3.org/1999/xlink" viewBox="0 0 622.63 665.92"><defs><style>.cls-1{fill:#00576f;}.cls-2{fill:#e0e0e0;}.cls-3{opacity:0.15;}.cls-4{fill:url(#linear-gradient);}.cls-5{fill:url(#linear-gradient-2);}.cls-6{fill:url(#linear-gradient-3);}</style><linearGradient id="linear-gradient" y1="415.4" x2="452.52" y2="415.4" gradientUnits="userSpaceOnUse"><stop offset="0" stop-color="gray"/><stop offset="1" stop-color="#efefef"/></linearGradient><linearGradient id="linear-gradient-2" x1="286.4" y1="288.06" x2="384.83" y2="288.06" gradientUnits="userSpaceOnUse"><stop offset="0" stop-color="#00576f"/><stop offset="1" stop-color="#a7db78"/></linearGradient><linearGradient id="linear-gradient-3" x1="186.48" y1="288.06" x2="482.66" y2="288.06" xlink:href="#linear-gradient-2"/></defs><g id="Layer_2" data-name="Layer 2"><g id="Layer_1-2" data-name="Layer 1"><path class="cls-1" d="M334.57,537.53v-5A244.47,244.47,0,0,0,507.44,115.19,244.47,244.47,0,0,0,90.1,288.06h-5A249.47,249.47,0,1,1,334.57,537.53Z"/><path class="cls-2" d="M334.57,576.11v-5.77A282.28,282.28,0,0,0,534.18,88.45,282.29,282.29,0,0,0,52.29,288.06H46.52A288.05,288.05,0,0,1,538.26,84.37,288.06,288.06,0,0,1,334.57,576.11Z"/><g class="cls-3"><path class="cls-4" d="M426.05,415.4a198.41,198.41,0,0,0-18.27-83.31l44.74-25.84L433.91,274l-44.79,25.87a199.8,199.8,0,0,0-144.25-83.38V164.88H207.65v51.63A199.8,199.8,0,0,0,63.4,299.89L18.61,274,0,306.25l44.74,25.84a199.08,199.08,0,0,0,0,166.62L0,524.54l18.61,32.23L63.4,530.91a199.8,199.8,0,0,0,144.25,83.38v51.63h37.22V614.29a199.78,199.78,0,0,0,144.25-83.38l44.79,25.86,18.61-32.23-44.74-25.83A198.45,198.45,0,0,0,426.05,415.4Z"/></g><path class="cls-5" d="M348.26,280.15h0c-3.91-1.31-7.79-2.41-11.47-3.45-15.7-4.46-25.47-7.63-28.31-16.41a9.09,9.09,0,0,1,1.63-8.48c1.58-2.17,8-9.27,24-9.27s25.1,4.67,27.64,7.14a2.32,2.32,0,0,1-.24-.27L377.68,235c-.9-1-4.38-4.52-11.44-7.83a68.33,68.33,0,0,0-21.63-5.71V201.2H323v20.59c-13,2.18-23.76,8.2-30.36,17.27a30.89,30.89,0,0,0-4.71,27.9c6.56,20.23,25.92,25.72,43,30.57h0c14.34,4.07,26.7,7.63,31.44,18.12a9.59,9.59,0,0,1-1,9.49c-1.95,2.89-8.5,9.51-27.16,8.7-12.88-.56-22.42-7.38-27.66-12.27-.68-.64-1.29-1.24-1.83-1.79L289.4,335.08c.57.58,1.17,1.18,1.83,1.81a67.12,67.12,0,0,0,31.49,17.2v20.82h21.67V355.25c20.78-1.86,30.67-11.68,34.93-18a31.25,31.25,0,0,0,2.75-30.55C375.21,291.53,361.6,284.63,348.26,280.15Z"/><path class="cls-6" d="M465.34,288.06a130,130,0,0,0-12-54.53l29.28-16.91-12.18-21.1-29.32,16.93a130.74,130.74,0,0,0-94.41-54.57V124.09H322.4v33.79A130.74,130.74,0,0,0,228,212.45l-29.32-16.93-12.18,21.1,29.29,16.91a130.29,130.29,0,0,0,0,109.06l-29.29,16.9,12.18,21.1L228,363.66a130.74,130.74,0,0,0,94.42,54.57V452h24.35V418.23a130.78,130.78,0,0,0,94.42-54.57l29.31,16.93,12.18-21.1-29.28-16.9A130.08,130.08,0,0,0,465.34,288.06ZM334.57,394.46A106.41,106.41,0,1,1,441,288.06,106.52,106.52,0,0,1,334.57,394.46Z"/><circle class="cls-1" cx="235.72" cy="439.83" r="15.87"/><circle class="cls-1" cx="425.11" cy="131.6" r="15.87"/></g></g></svg>