<svg xmlns="http://www.w3.org/2000/svg" xmlns:xlink="http://www.w3.org/1999/xlink" viewBox="0 0 372.16 337.67"><defs><style>.cls-1{fill:#075870;}.cls-2{fill:url(#linear-gradient);}</style><linearGradient id="linear-gradient" y1="168.83" x2="372.16" y2="168.83" gradientUnits="userSpaceOnUse"><stop offset="0" stop-color="#075870"/><stop offset="0.82" stop-color="#a8d279"/><stop offset="1" stop-color="#a3d079"/></linearGradient></defs><g id="Layer_2" data-name="Layer 2"><g id="Layer_1-2" data-name="Layer 1"><path class="cls-1" d="M280.34,54.68a14.21,14.21,0,1,1-14.2-14.2h0a14.14,14.14,0,0,1,14.14,14.15v0"/><path class="cls-1" d="M235.22,54.68A14.21,14.21,0,1,1,221,40.48h.06a14.15,14.15,0,0,1,14.15,14.15v0"/><path class="cls-2" d="M341.84,168.17l-17,6.33V0H26.7V179.46L0,187.08l7.5,26.27,83.71-23.92L139,206.76l69.94-9,7.16,17.3-80.56,30,9.54,25.6,182.46-68,8.9,19.48-170.32,87-159.95-29L1.32,307.07l169,30.6L372.16,234.56ZM54,27.31H297.55V77.79H54ZM226.19,168l-84.11,10.86L92.2,160.74,54,171.65V105.11H297.55v79.57l-55.83,20.81Z"/></g></g></svg>