<svg id="Group_1235" data-name="Group 1235" xmlns="http://www.w3.org/2000/svg" xmlns:xlink="http://www.w3.org/1999/xlink" width="104.76" height="82.843" viewBox="0 0 104.76 82.843">
  <defs>
    <linearGradient id="linear-gradient" x1="-8.894" y1="6.192" x2="-0.736" y2="1.249" gradientUnits="objectBoundingBox">
      <stop offset="0" stop-color="#00576f"/>
      <stop offset="1" stop-color="#88cb77"/>
    </linearGradient>
    <linearGradient id="linear-gradient-2" x1="-5.9" y1="4.378" x2="2.258" y2="-0.565" xlink:href="#linear-gradient"/>
    <linearGradient id="linear-gradient-3" x1="-6.306" y1="3.752" x2="4.086" y2="-1.213" xlink:href="#linear-gradient"/>
    <linearGradient id="linear-gradient-4" x1="-7.888" y1="4.508" x2="2.504" y2="-0.458" xlink:href="#linear-gradient"/>
    <linearGradient id="linear-gradient-5" x1="-2.493" y1="1.93" x2="7.899" y2="-3.035" xlink:href="#linear-gradient"/>
    <linearGradient id="linear-gradient-6" x1="-4.075" y1="2.686" x2="6.317" y2="-2.28" xlink:href="#linear-gradient"/>
    <linearGradient id="linear-gradient-7" x1="-4.653" y1="3.622" x2="3.506" y2="-1.321" xlink:href="#linear-gradient"/>
    <linearGradient id="linear-gradient-8" x1="-0.903" y1="1.17" x2="9.489" y2="-3.795" xlink:href="#linear-gradient"/>
    <linearGradient id="linear-gradient-9" x1="-2.485" y1="1.926" x2="7.907" y2="-3.039" xlink:href="#linear-gradient"/>
    <linearGradient id="linear-gradient-10" x1="0.201" y1="0.834" x2="0.792" y2="0.381" xlink:href="#linear-gradient"/>
  </defs>
  <path id="Path_1103" data-name="Path 1103" d="M514.531,270.573a3.795,3.795,0,1,0,3.795,3.795A3.795,3.795,0,0,0,514.531,270.573Z" transform="translate(-428.306 -258.574)" fill="url(#linear-gradient)"/>
  <circle id="Ellipse_282" data-name="Ellipse 282" cx="3.795" cy="3.795" r="3.795" transform="translate(82.43 63.273)" fill="url(#linear-gradient-2)"/>
  <rect id="Rectangle_513" data-name="Rectangle 513" width="5.958" height="7.555" transform="translate(41.221 12.033)" fill="url(#linear-gradient-3)"/>
  <rect id="Rectangle_514" data-name="Rectangle 514" width="5.958" height="7.555" transform="translate(54.105 12.033)" fill="url(#linear-gradient-4)"/>
  <rect id="Rectangle_515" data-name="Rectangle 515" width="5.958" height="7.555" transform="translate(41.221 63.29)" fill="url(#linear-gradient-5)"/>
  <rect id="Rectangle_516" data-name="Rectangle 516" width="5.958" height="7.555" transform="translate(54.105 63.29)" fill="url(#linear-gradient-6)"/>
  <path id="Path_1104" data-name="Path 1104" d="M371.157,399.659a3.795,3.795,0,1,0,3.795,3.795A3.795,3.795,0,0,0,371.157,399.659Z" transform="translate(-313.407 -362.023)" fill="url(#linear-gradient-7)"/>
  <rect id="Rectangle_517" data-name="Rectangle 517" width="5.958" height="7.555" transform="translate(12.746 37.67)" fill="url(#linear-gradient-8)"/>
  <rect id="Rectangle_518" data-name="Rectangle 518" width="5.958" height="7.555" transform="translate(25.63 37.67)" fill="url(#linear-gradient-9)"/>
  <path id="Path_1105" data-name="Path 1105" d="M200.449,241.744V210.158H124.164v25.635l-28.475,0v31.586l28.475,0V293h76.285V261.414l-28.475,0v-19.67Zm-70.327-25.628h64.369v19.671l-64.369.006Zm64.369,70.927H130.122V267.379l64.369-.006Zm-28.475-25.625-64.369.006v-19.67l64.369-.006Z" transform="translate(-95.689 -210.158)" fill="url(#linear-gradient-10)"/>
</svg>
