<?xml version="1.0" encoding="utf-8"?>
<!-- Generator: Adobe Illustrator 24.2.1, SVG Export Plug-In . SVG Version: 6.00 Build 0)  -->
<svg version="1.1" id="Layer_1" xmlns="http://www.w3.org/2000/svg" xmlns:xlink="http://www.w3.org/1999/xlink" x="0px" y="0px"
	 viewBox="0 0 80 80" style="enable-background:new 0 0 80 80;" xml:space="preserve">
<style type="text/css">
	.st0{fill:none;stroke:#00576F;stroke-width:5;stroke-miterlimit:10;}
	.st1{fill:none;stroke:#005770;stroke-width:5;stroke-miterlimit:10;}
	.st2{fill:none;stroke:#00576F;stroke-width:5;stroke-miterlimit:56;}
	.st3{fill:#00576F;}
</style>
<path class="st0" d="M68.9,39c3.9-3.9,4.9-9.5,2-15.3l-8,8l-5.5-5.5l8-8c-5.8-2.9-11.4-1.9-15.3,2s-4.9,9.5-4,13.3L19.9,59.7
	c-1.7,1.7-2.7,4.1-2.5,6.5c0.1,1.5,0.6,2.9,1.7,3.9c1,1,2.4,1.6,3.9,1.7c2.4,0.2,4.8-0.8,6.5-2.5L55.6,43C59.4,43.9,65,42.9,68.9,39
	z"/>
<polyline class="st0" points="34,47.5 26.1,39 33.6,31.4 42.2,39.4 "/>
<path class="st0" d="M50,46.6l14.9,13.9c0.5,0.5,0.5,1.2,0,1.7l-8,8c-0.5,0.5-1.2,0.5-1.7,0L41.3,55.3"/>
<path class="st0" d="M12,29.9l2.5,2.5l-1.3,1.3l-2.5-2.5l-4.4,4.4c-1,1-1,2.7,0,3.7l7.9,7.9c1,1,2.7,1,3.7,0l4.4-4.4l-2.2-2.2
	l1.3-1.3l2.2,2.2l12.6-12.6l-5.3-5.3l5-8.8l-4.4-4.4L12,29.9z"/>
</svg>
