<svg xmlns="http://www.w3.org/2000/svg" width="100%" height="100%" viewBox="0 0 48.887 66.77">
  <g id="Group_460" data-name="Group 460" transform="translate(271.5 -6.615)">
    <rect id="Rectangle_308" data-name="Rectangle 308" width="19.142" height="5" transform="translate(-256.713 68.384)" fill="#4d4d4d"/>
    <path id="Path_926" data-name="Path 926" d="M-247.056,6.616A24.491,24.491,0,0,0-271.5,30.966a24.45,24.45,0,0,0,8.326,18.471,12.768,12.768,0,0,1,4.282,9.625v2.5h23.672v-2.5a12.767,12.767,0,0,1,4.281-9.625,24.446,24.446,0,0,0,8.326-18.471A24.49,24.49,0,0,0-247.056,6.616Zm12.819,39.063a17.67,17.67,0,0,0-5.812,10.883h-4.507V38.8h-5V56.562h-4.508a17.67,17.67,0,0,0-5.812-10.883A19.452,19.452,0,0,1-266.5,30.985a19.48,19.48,0,0,1,19.443-19.369,19.481,19.481,0,0,1,19.444,19.369A19.452,19.452,0,0,1-234.237,45.679Z" fill="#4d4d4d"/>
  </g>
</svg>
