<svg xmlns="http://www.w3.org/2000/svg" width="100%" height="100%" viewBox="0 0 55.482 60.34">
  <g id="Group_461" data-name="Group 461" transform="translate(132.855 -10.83)">
    <rect id="Rectangle_309" data-name="Rectangle 309" width="4.605" height="5.469" transform="translate(-123.29 19.661)" fill="#4d4d4d"/>
    <rect id="Rectangle_310" data-name="Rectangle 310" width="4.605" height="5.469" transform="translate(-113.053 19.661)" fill="#4d4d4d"/>
    <rect id="Rectangle_311" data-name="Rectangle 311" width="4.605" height="5.469" transform="translate(-123.29 37.861)" fill="#4d4d4d"/>
    <rect id="Rectangle_312" data-name="Rectangle 312" width="4.605" height="5.469" transform="translate(-113.053 37.861)" fill="#4d4d4d"/>
    <rect id="Rectangle_313" data-name="Rectangle 313" width="4.605" height="5.469" transform="translate(-123.29 56.062)" fill="#4d4d4d"/>
    <rect id="Rectangle_314" data-name="Rectangle 314" width="4.605" height="5.469" transform="translate(-113.053 56.062)" fill="#4d4d4d"/>
    <path id="Path_927" data-name="Path 927" d="M-132.855,10.83V71.17h55.482V10.83Zm50.878,55.736H-128.25v-13.9h46.273Zm0-19.021H-128.25V33.937h46.273Zm-46.273-18.5V15.434h46.273V29.042Z" fill="#4d4d4d"/>
    <path id="Path_928" data-name="Path 928" d="M-92.255,19.636A2.746,2.746,0,0,0-95,22.383a2.746,2.746,0,0,0,2.746,2.747,2.747,2.747,0,0,0,2.747-2.747A2.747,2.747,0,0,0-92.255,19.636Z" fill="#4d4d4d"/>
    <circle id="Ellipse_219" data-name="Ellipse 219" cx="2.747" cy="2.747" r="2.747" transform="translate(-95.002 37.849)" fill="#4d4d4d"/>
    <circle id="Ellipse_220" data-name="Ellipse 220" cx="2.747" cy="2.747" r="2.747" transform="translate(-95.002 56.061)" fill="#4d4d4d"/>
  </g>
</svg>
