<svg xmlns="http://www.w3.org/2000/svg" viewBox="0 0 80 80"><defs><style>.cls-1{font-size:10px;font-family:MyriadPro-Regular, Myriad Pro;}.cls-1,.cls-7{fill:#fff;}.cls-2{letter-spacing:0em;}.cls-3{letter-spacing:0em;}.cls-4{letter-spacing:-0.04em;}.cls-5{letter-spacing:0.01em;}.cls-6{fill:none;stroke:#00576f;stroke-miterlimit:10;stroke-width:5px;}.cls-8{fill:#00576f;}</style></defs><title>redapt_icons_capabilities_2019.09</title><g id="Layer_1" data-name="Layer 1"><text class="cls-1" transform="translate(-134.44 -8.9)"><tspan class="cls-2">D</tspan><tspan x="6.7" y="0">evOps Enableme</tspan><tspan class="cls-3" x="76.88" y="0">n</tspan><tspan x="82.39" y="0">t</tspan></text><text class="cls-1" transform="translate(3.01 -8.9)">I<tspan class="cls-4" x="2.39" y="0">o</tspan><tspan x="7.48" y="0">T and </tspan><tspan class="cls-3" x="32.7" y="0">E</tspan><tspan x="37.58" y="0">dge </tspan><tspan class="cls-5" x="55.94" y="0">S</tspan><tspan x="60.93" y="0">olution</tspan></text><line class="cls-6" x1="41.13" y1="67.99" x2="41.13" y2="44.83"/><polyline class="cls-6" points="52.13 44.83 52.13 51.81 58.9 59.62"/><path class="cls-7" d="M58.9,63.87a4.82,4.82,0,0,1,0-9.63,4.82,4.82,0,0,1,0,9.63Z"/><path class="cls-8" d="M58.9,56.74a2.19,2.19,0,0,1,.36,0,2.3,2.3,0,1,1-.36,0m0-5a7.31,7.31,0,1,0,1.14.09,7.2,7.2,0,0,0-1.14-.09Z"/><polyline class="cls-6" points="30.12 44.83 30.12 51.81 23.35 59.62"/><path class="cls-7" d="M23.35,63.87a4.82,4.82,0,0,1-.75-9.57,4.74,4.74,0,0,1,.75-.06,4.82,4.82,0,0,1,.75,9.57A4.74,4.74,0,0,1,23.35,63.87Z"/><path class="cls-8" d="M23.35,56.74a2.31,2.31,0,0,1,.36,4.6l-.36,0a2.31,2.31,0,0,1-.36-4.6,2.19,2.19,0,0,1,.36,0m0-5h0a7.31,7.31,0,1,0,7.22,6.17,7.3,7.3,0,0,0-7.22-6.17Z"/><path class="cls-7" d="M41.1,72.8a4.81,4.81,0,0,1-4.75-5.56A4.81,4.81,0,1,1,41.1,72.8Z"/><path class="cls-8" d="M41.1,65.68a2.19,2.19,0,0,1,.36,0,2.31,2.31,0,0,1-.36,4.59,2.19,2.19,0,0,1-.36,0,2.31,2.31,0,0,1,.36-4.59m0-5a7.31,7.31,0,1,0,1.14.09,7.27,7.27,0,0,0-1.14-.09Z"/><path class="cls-6" d="M53.66,18.31a13.85,13.85,0,0,0-2.25.19,13.75,13.75,0,0,0-25.62,6.94v0c-.25,0-.51,0-.77,0a9.7,9.7,0,0,0,0,19.39H53.66a13.26,13.26,0,1,0,0-26.52Z"/></g></svg>