<svg xmlns="http://www.w3.org/2000/svg" viewBox="0 0 80 80"><defs><style>.cls-1{fill:none;stroke:#00576f;stroke-miterlimit:10;stroke-width:5px;}.cls-2{fill:#fff;}.cls-3{fill:#00576f;}</style></defs><title>redapt_icons_capabilities_2019.09</title><g id="Layer_1" data-name="Layer 1"><line class="cls-1" x1="68.98" y1="39.89" x2="42.77" y2="39.89"/><polyline class="cls-1" points="42.77 29.06 51.47 29.06 59.92 21.74"/><path class="cls-2" d="M59.31,26.74a5.12,5.12,0,0,1-.78-.06,5,5,0,0,1,.78-9.94,5.22,5.22,0,0,1,.78.06,5,5,0,0,1-.78,9.94Z"/><path class="cls-3" d="M59.31,19.24l.39,0a2.5,2.5,0,0,1-.39,5,2.56,2.56,0,0,1-.39,0,2.5,2.5,0,0,1,.39-5m0-5a7.5,7.5,0,0,0-1.17,14.91,7.59,7.59,0,0,0,1.17.09,7.5,7.5,0,0,0,1.17-14.91,7.68,7.68,0,0,0-1.17-.09Z"/><polyline class="cls-1" points="42.77 50.71 51.47 50.71 59.92 58.03"/><path class="cls-2" d="M59.31,63a5,5,0,0,1-.78-9.94,5.12,5.12,0,0,1,.78-.06A5,5,0,0,1,60.09,63,5.22,5.22,0,0,1,59.31,63Z"/><path class="cls-3" d="M59.31,55.53a2.5,2.5,0,0,1,.39,5,2.66,2.66,0,0,1-.39,0,2.5,2.5,0,0,1-.39-5,2.56,2.56,0,0,1,.39,0m0-5h0a7.59,7.59,0,0,0-1.17.09,7.5,7.5,0,0,0,1.17,14.91,7.68,7.68,0,0,0,1.17-.09,7.5,7.5,0,0,0-1.17-14.91Z"/><path class="cls-2" d="M69,44.91a5.35,5.35,0,0,1-.79-.06A5,5,0,0,1,69,34.91a4.29,4.29,0,0,1,.79.07A5,5,0,0,1,69,44.91Z"/><path class="cls-3" d="M69,37.41a1.87,1.87,0,0,1,.4,0,2.5,2.5,0,0,1-.39,5l-.4,0a2.5,2.5,0,0,1,.39-5m0-5A7.5,7.5,0,0,0,67.8,47.32a7.81,7.81,0,0,0,1.18.09,7.5,7.5,0,0,0,1.17-14.9,7.83,7.83,0,0,0-1.18-.1Z"/><line class="cls-1" x1="20.01" y1="26.89" x2="29.59" y2="26.89"/><line class="cls-1" x1="20.01" y1="39.89" x2="29.59" y2="39.89"/><circle class="cls-3" cx="29.59" cy="54.49" r="4.01"/><rect class="cls-1" x="11.22" y="14.58" width="30.47" height="53.17"/></g></svg>