<svg xmlns="http://www.w3.org/2000/svg" viewBox="0 0 80 80"><defs><style>.cls-1{fill:none;stroke:#00576f;stroke-miterlimit:10;stroke-width:5px;}.cls-2{fill:#00576f;}</style></defs><title>redapt_icons_capabilities_2019.09</title><g id="Layer_1" data-name="Layer 1"><polyline class="cls-1" points="16 38.16 16 57.34 31.9 57.34"/><polyline class="cls-1" points="62.75 48.34 62.75 28.13 46.85 28.13"/><rect class="cls-1" x="33.97" y="49.98" width="40.34" height="16.59"/><circle class="cls-2" cx="65.39" cy="58.34" r="2.9"/><line class="cls-1" x1="42.28" y1="56.18" x2="42.28" y2="60.51"/><line class="cls-1" x1="50.67" y1="56.18" x2="50.67" y2="60.51"/><path class="cls-1" d="M36,18.2a9.18,9.18,0,0,0-1.67.15,10.23,10.23,0,0,0-19.06,5.16v0a5.44,5.44,0,0,0-.57,0,7.21,7.21,0,1,0,0,14.42H36A9.87,9.87,0,1,0,36,18.2Z"/></g></svg>