<svg id="Layer_1" data-name="Layer 1" xmlns="http://www.w3.org/2000/svg" viewBox="0 0 68.13 61.81"><defs><style>.cls-1{fill:#fff;}</style></defs><rect class="cls-1" x="7.39" y="14.24" width="49.58" height="5"/><polygon class="cls-1" points="59.47 33.98 54.47 33.98 54.47 5 9.89 5 9.89 33.98 4.89 33.98 4.89 0 59.47 0 59.47 33.98"/><path class="cls-1" d="M51.32,10a2.6,2.6,0,1,1-2.6-2.6h0A2.59,2.59,0,0,1,51.31,10h0"/><path class="cls-1" d="M43.06,10a2.6,2.6,0,1,1-2.6-2.6h0A2.59,2.59,0,0,1,43.06,10h0"/><polygon class="cls-1" points="40.42 41.44 38.25 36.2 25.45 37.85 16.7 34.68 1.37 39.05 0 34.25 16.88 29.42 26.01 32.73 41.41 30.75 45.04 39.52 40.42 41.44"/><polygon class="cls-1" points="31.18 61.81 0.24 56.21 1.13 51.29 30.41 56.59 61.59 40.66 59.96 37.09 26.56 49.54 24.81 44.86 62.57 30.79 68.13 42.94 31.18 61.81"/></svg>