<svg xmlns="http://www.w3.org/2000/svg" xmlns:xlink="http://www.w3.org/1999/xlink" viewBox="0 0 793.84 750.54"><defs><style>.cls-1{opacity:0.15;fill:url(#linear-gradient);}.cls-2{fill:none;stroke:#e3e3e3;stroke-miterlimit:10;stroke-width:5px;}.cls-3{opacity:0.25;}.cls-4{fill:#fff;}.cls-5{fill:url(#linear-gradient-2);}.cls-6{fill:#075870;}</style><linearGradient id="linear-gradient" y1="502.84" x2="742.84" y2="502.84" gradientUnits="userSpaceOnUse"><stop offset="0" stop-color="#818181"/><stop offset="1" stop-color="#f0efef"/></linearGradient><linearGradient id="linear-gradient-2" x1="333.31" y1="328.86" x2="701.94" y2="328.86" gradientUnits="userSpaceOnUse"><stop offset="0" stop-color="#075870"/><stop offset="1" stop-color="#a8d279"/></linearGradient></defs><g id="Layer_2" data-name="Layer 2"><g id="Layer_1-2" data-name="Layer 1"><path class="cls-1" d="M539.5,750.54c112.12,0,203.34-91.22,203.34-203.34,0-95-65.53-175.07-153.63-197.25-40.53-10.2-79.21-27.11-112.58-52.27a209.52,209.52,0,0,0-308.55,63.2c-24.26,42.27-58.44,77.76-98.93,104.89A155.47,155.47,0,0,0,0,593.33c-.93,86.46,71.08,157.21,157.55,157.21Z"/><path class="cls-2" d="M519.77,610.19c-151.16,1.18-274.67-120.4-275.85-271.57"/><path class="cls-2" d="M515.48,62.76c151.17-1.18,274.67,120.4,275.86,271.57"/><g class="cls-3"><rect class="cls-4" x="403.85" width="35.46" height="35.46"/></g><g class="cls-3"><rect class="cls-4" x="469.11" width="35.46" height="35.46"/></g><g class="cls-3"><rect class="cls-4" x="528.71" width="35.46" height="35.46"/></g><g class="cls-3"><rect class="cls-4" x="703.99" y="160.32" width="35.46" height="35.46"/></g><g class="cls-3"><rect class="cls-4" x="703.99" y="95.06" width="35.46" height="35.46"/></g><g class="cls-3"><rect class="cls-4" x="703.99" y="35.46" width="35.46" height="35.46"/></g><path class="cls-5" d="M701.94,327.74c0-58.5-50.24-105.69-109.55-100.52a104.14,104.14,0,0,0-188.71,47.39,77.16,77.16,0,0,0,6.8,154h36.61a93.48,93.48,0,0,0,161.58-.38A101,101,0,0,0,701.94,327.74ZM527.76,449.57a68.39,68.39,0,1,1,68.39-68.39A68.47,68.47,0,0,1,527.76,449.57Zm91.58-48.63a93.75,93.75,0,1,0-182.55,2.37H410.48a51.83,51.83,0,0,1,0-103.66c1.38,0,2.76.07,4.12.18l13.66.86V287A78.83,78.83,0,0,1,575.15,247.2l4.42,7.55,8.64-1.47a75.5,75.5,0,0,1,31.13,147.66Z"/><polygon class="cls-6" points="518.87 421.56 481 383.56 498.95 365.68 518.9 385.7 558.51 346.09 576.42 364 518.87 421.56"/></g></g></svg>