<svg xmlns="http://www.w3.org/2000/svg" viewBox="0 0 368.63 292.09"><defs><style>.cls-1{fill:#fff;}</style></defs><g id="Layer_2" data-name="Layer 2"><g id="Layer_1-2" data-name="Layer 1"><path class="cls-1" d="M368.63,144.93c0-58.5-50.25-105.69-109.55-100.52A104.14,104.14,0,0,0,70.36,91.8a77.17,77.17,0,0,0,6.8,154h36.61a93.49,93.49,0,0,0,161.59-.39A101,101,0,0,0,368.63,144.93ZM194.45,266.76a68.39,68.39,0,1,1,68.39-68.39A68.47,68.47,0,0,1,194.45,266.76ZM286,218.13a93.75,93.75,0,1,0-182.55,2.37H77.16a51.84,51.84,0,0,1,0-103.67c1.39,0,2.76.08,4.12.19l13.66.86V104.17a78.83,78.83,0,0,1,146.9-39.78l4.42,7.55,8.63-1.47A75.5,75.5,0,0,1,286,218.13Z"/><polygon class="cls-1" points="185.56 238.75 147.69 200.74 165.64 182.86 185.59 202.89 225.19 163.28 243.1 181.19 185.56 238.75"/></g></g></svg>