<svg id="Layer_1" data-name="Layer 1" xmlns="http://www.w3.org/2000/svg" viewBox="0 0 67.76 58.17"><defs><style>.cls-1{fill:#fff;}</style></defs><path class="cls-1" d="M45.8,11l-4,3.44H34.05v5h9.63l5.75-5A4.94,4.94,0,0,1,45.8,11Z"/><path class="cls-1" d="M50.58,7.15a1.81,1.81,0,0,1,.4,0,2.49,2.49,0,0,1-.39,5,2.56,2.56,0,0,1-.39,0,2.5,2.5,0,0,1,.38-5m0-5a7.5,7.5,0,0,0-1.16,14.91,7.59,7.59,0,0,0,1.17.09,7.5,7.5,0,0,0,1.17-14.9,7.72,7.72,0,0,0-1.18-.1Z"/><path class="cls-1" d="M46.54,43a4.9,4.9,0,0,1,2.89-1.9l-5.75-5H34.05v5h7.77l4,3.44A5,5,0,0,1,46.54,43Z"/><path class="cls-1" d="M50.59,43.45a2.5,2.5,0,0,1,.39,5,2.69,2.69,0,0,1-.4,0,2.5,2.5,0,0,1-.38-5l.39,0m0-5h0a7.59,7.59,0,0,0-1.17.09,7.5,7.5,0,0,0,1.16,14.91,6.64,6.64,0,0,0,1.18-.1,7.5,7.5,0,0,0-1.17-14.9Z"/><path class="cls-1" d="M55.32,27.05a5.14,5.14,0,0,1,.62-1.75H34.05v5H55.94A4.89,4.89,0,0,1,55.32,27.05Z"/><path class="cls-1" d="M60.25,25.33a2.56,2.56,0,0,1,.39,0,2.5,2.5,0,0,1-.38,5l-.4,0a2.5,2.5,0,0,1,.39-5m0-5a7.5,7.5,0,0,0-1.17,14.91,7.81,7.81,0,0,0,1.18.09,7.5,7.5,0,0,0,1.17-14.91,7.81,7.81,0,0,0-1.18-.09Z"/><rect class="cls-1" x="11.29" y="12.31" width="9.58" height="5"/><rect class="cls-1" x="11.29" y="25.3" width="9.58" height="5"/><circle class="cls-1" cx="20.87" cy="42.41" r="4.01"/><path class="cls-1" d="M35.47,58.17H0V0H35.47ZM5,53.17H30.47V5H5Z"/></svg>